<?xml version="1.0" encoding="UTF-8" standalone="no"?>
<svg
   xmlns:dc="http://purl.org/dc/elements/1.1/"
   xmlns:cc="http://creativecommons.org/ns#"
   xmlns:rdf="http://www.w3.org/1999/02/22-rdf-syntax-ns#"
   xmlns:svg="http://www.w3.org/2000/svg"
   xmlns="http://www.w3.org/2000/svg"
   id="svg4984"
   version="1.1"
   viewBox="0 0 45.628807 6.5380254"
   height="6.5380254mm"
   width="45.628807mm">
  <defs
     id="defs4978" />
  <metadata
     id="metadata4981">
    <rdf:RDF>
      <cc:Work
         rdf:about="">
        <dc:format>image/svg+xml</dc:format>
        <dc:type
           rdf:resource="http://purl.org/dc/dcmitype/StillImage" />
        <dc:title></dc:title>
      </cc:Work>
    </rdf:RDF>
  </metadata>
  <g
     transform="translate(14.936115,-164.72402)"
     id="layer1">
    <g
       id="g4924"
       transform="matrix(0.35277777,0,0,-0.35277777,-34.305141,160.35809)">
      <path
         id="path30"
         style="fill:#032046;fill-opacity:1;fill-rule:nonzero;stroke:none"
         d="m 91.941527,-27.39857 c -0.502,-0.219 -0.937,-0.371 -1.31,-0.45 -0.373,-0.082 -0.8,-0.152 -1.268,-0.202 -0.476,-0.056 -0.942,-0.076 -1.403,-0.076 -2.003,0 -3.503,0.561 -4.492,1.691 -0.984,1.131 -1.479,2.571 -1.479,4.321 0,1.76 0.495,3.203 1.478,4.325 0.985,1.127 2.533,1.69 4.643,1.69 1.245,0 2.486,-0.151 3.72,-0.438 v -1.869 c -0.591,0.201 -1.082,0.349 -1.455,0.449 -0.379,0.097 -0.738,0.167 -1.078,0.209 -0.336,0.049 -0.672,0.072 -1.011,0.072 -1.317,0 -2.272,-0.424 -2.868,-1.266 -0.596,-0.85 -0.892,-1.894 -0.892,-3.14 0,-1.311 0.339,-2.369 1.013,-3.177 0.672,-0.808 1.675,-1.213 3.012,-1.213 1.113,0 2.241,0.274 3.39,0.831 z" />
      <path
         id="path34"
         style="fill:#032046;fill-opacity:1;fill-rule:nonzero;stroke:none"
         d="m 96.933327,-28.05027 c -0.918,0 -1.71,0.181 -2.367,0.541 -0.662,0.356 -1.164,0.889 -1.506,1.589 -0.349,0.696 -0.522,1.472 -0.522,2.325 0,0.846 0.17,1.619 0.514,2.317 0.339,0.698 0.84,1.226 1.503,1.591 0.659,0.364 1.454,0.548 2.378,0.548 0.926,0 1.724,-0.184 2.381,-0.548 0.661,-0.365 1.162003,-0.893 1.504003,-1.591 0.344,-0.698 0.517,-1.471 0.517,-2.317 0,-0.853 -0.177,-1.629 -0.52,-2.325 -0.345,-0.7 -0.846003,-1.233 -1.509003,-1.589 -0.66,-0.36 -1.45,-0.541 -2.373,-0.541 m 0,1.43 c 0.65,0 1.14,0.286 1.473,0.861 0.323,0.575 0.489,1.29 0.489,2.164 0,0.866 -0.166,1.586 -0.489,2.159 -0.333,0.577 -0.823,0.867 -1.473,0.867 -0.647,0 -1.133,-0.29 -1.462,-0.867 -0.33,-0.573 -0.491,-1.293 -0.491,-2.159 0,-0.874 0.161,-1.589 0.491,-2.164 0.329,-0.575 0.815,-0.861 1.462,-0.861" />
      <path
         id="path38"
         style="fill:#032046;fill-opacity:1;fill-rule:nonzero;stroke:none"
         d="m 102.37063,-27.85257 v 8.516 h 2.295 v -1.6 c 0.412,0.658 0.874,1.118 1.374,1.392 0.5,0.269 1.009,0.405 1.527,0.405 0.674,0 1.252,-0.216 1.74,-0.647 0.482,-0.435 0.723,-1.118 0.723,-2.046 v -6.02 h -2.294 v 5.456 c 0,0.466 -0.042,0.779 -0.132,0.945 -0.084,0.166 -0.199,0.292 -0.344,0.381 -0.151,0.08 -0.313,0.123 -0.496,0.123 -0.319,0 -0.644,-0.105 -0.986,-0.311 -0.344,-0.207 -0.713,-0.62 -1.112,-1.231 v -5.363 z" />
      <path
         id="path42"
         style="fill:#032046;fill-opacity:1;fill-rule:nonzero;stroke:none"
         d="m 111.25433,-27.57917 v 1.694 c 1.139,-0.489 2.107,-0.735 2.915,-0.735 0.426,0 0.771,0.092 1.024,0.273 0.256,0.178 0.388,0.411 0.388,0.695 0,0.242 -0.099,0.443 -0.288,0.61 -0.192,0.16 -0.485,0.321 -0.879,0.477 l -0.776,0.306 c -0.8,0.319 -1.393,0.676 -1.776,1.067 -0.384,0.381 -0.575,0.881 -0.575,1.497 0,0.739 0.289,1.351 0.867,1.83 0.58,0.484 1.461,0.725 2.653,0.725 0.693,0 1.517,-0.104 2.477,-0.309 v -1.61 c -0.925,0.323 -1.69,0.489 -2.3,0.489 -0.48,0 -0.84,-0.084 -1.076,-0.246 -0.241,-0.163 -0.361,-0.375 -0.361,-0.63 0,-0.205 0.076,-0.382 0.232,-0.539 0.15,-0.155 0.428,-0.309 0.829,-0.456 l 0.666,-0.257 c 1.106,-0.42 1.829,-0.827 2.169,-1.224 0.342,-0.393 0.512,-0.87 0.512,-1.427 0,-0.718 -0.309,-1.348 -0.932,-1.893 -0.617,-0.538 -1.516,-0.808 -2.694,-0.808 -1.006,0 -2.028,0.156 -3.075,0.471" />
      <path
         id="path46"
         style="fill:#032046;fill-opacity:1;fill-rule:nonzero;stroke:none"
         d="m 126.44153,-27.56467 c -1.082,-0.323 -2.111,-0.486 -3.083,-0.486 -0.918,0 -1.726,0.179 -2.413,0.518 -0.698,0.346 -1.231,0.884 -1.602,1.613 -0.371,0.735 -0.558,1.528 -0.558,2.389 0,0.797 0.155,1.534 0.476,2.207 0.315,0.67 0.772,1.204 1.379,1.597 0.602,0.39 1.345,0.587 2.231,0.587 1.086,0 1.95,-0.349 2.598,-1.037 0.648,-0.698 0.972,-1.989 0.972,-3.874 h -5.234 c 0.05,-0.574 0.181,-1.028 0.387,-1.359 0.211,-0.328 0.489,-0.59 0.846,-0.789 0.349,-0.191 0.826,-0.292 1.419,-0.292 0.766,0 1.626,0.186 2.582,0.54 z m -5.264,4.813 h 3.006 c 0,0.784 -0.129,1.339 -0.385,1.679 -0.259,0.331 -0.591,0.503 -0.994,0.503 -0.446,0 -0.81,-0.187 -1.097,-0.557 -0.285,-0.364 -0.461,-0.907 -0.53,-1.625" />
      <path
         id="path50"
         style="fill:#032046;fill-opacity:1;fill-rule:nonzero;stroke:none"
         d="m 127.64883,-27.85257 v 8.516 h 2.296 v -1.591 c 0.272,0.544 0.647,0.978 1.119,1.299 0.478,0.327 1.005,0.489 1.588,0.489 0.139,0 0.282,-0.01 0.429,-0.036 v -2.061 c -0.32,0.116 -0.625,0.178 -0.911,0.178 -0.452,0 -0.865,-0.115 -1.234,-0.346 -0.375,-0.228 -0.701,-0.575 -0.991,-1.036 v -5.412 z" />
      <path
         id="path54"
         style="fill:#032046;fill-opacity:1;fill-rule:nonzero;stroke:none"
         d="m 136.96333,-27.85257 -3.253,8.516 h 2.424 l 2.379,-6.143 2.369,6.143 h 1.661 l -3.282,-8.516 z" />
      <path
         id="path58"
         style="fill:#032046;fill-opacity:1;fill-rule:nonzero;stroke:none"
         d="m 147.25823,-26.92867 c -0.331,-0.325 -0.617,-0.56 -0.859,-0.699 -0.248,-0.141 -0.501,-0.244 -0.762,-0.319 -0.262,-0.066 -0.544,-0.104 -0.84,-0.104 -0.76,0 -1.366,0.241 -1.825,0.711 -0.457,0.474 -0.689,1.055 -0.689,1.745 0,0.836 0.345,1.539 1.032,2.099 0.685,0.559 1.796,0.844 3.33,0.844 h 0.616 v 0.778 c 0,0.52 -0.149,0.865 -0.435,1.049 -0.29,0.176 -0.657,0.27 -1.104,0.27 -0.879,0 -1.775,-0.252 -2.686,-0.757 v 1.585 c 1.036,0.39 2.066,0.587 3.095,0.587 0.632,0 1.195,-0.087 1.689,-0.256 0.497,-0.175 0.894,-0.434 1.191,-0.797 0.292,-0.358 0.443,-0.896 0.443,-1.606 v -3.772 c 0,-0.461 0.076,-0.739 0.217,-0.843 0.148,-0.107 0.293,-0.156 0.438,-0.156 0.086,0 0.191,0.008 0.322,0.027 l 0.034,-1.288 c -0.488,-0.145 -0.922,-0.22 -1.295,-0.22 -0.43,0 -0.795,0.075 -1.1,0.217 -0.312,0.146 -0.545,0.446 -0.711,0.905 z m 0.003,1.225 v 1.735 h -0.544 c -0.756,0 -1.314,-0.13 -1.682,-0.399 -0.369,-0.272 -0.556,-0.6 -0.556,-1 0,-0.329 0.112,-0.6 0.334,-0.805 0.23,-0.212 0.489,-0.318 0.785,-0.318 0.271,0 0.549,0.068 0.825,0.2 0.281,0.133 0.559,0.329 0.838,0.587" />
      <path
         id="path62"
         style="fill:#032046;fill-opacity:1;fill-rule:nonzero;stroke:none"
         d="m 155.81483,-27.80657 c -0.547,-0.162 -0.979,-0.244 -1.293,-0.244 -0.749,0 -1.333,0.104 -1.747,0.32 -0.411,0.213 -0.72,0.501 -0.924,0.865 -0.209,0.368 -0.316,0.898 -0.316,1.61 v 4.49 h -0.956 v 1.429 h 0.956 v 1.433 l 2.296,0.259 v -1.692 h 1.822 v -1.429 h -1.822 v -4.188 c 0,-0.617 0.109,-1.032 0.326,-1.245 0.214,-0.216 0.532,-0.325 0.953,-0.325 0.198,0 0.43,0.033 0.705,0.101 z" />
      <path
         d="m 156.80163,-15.98857 h 2.29 v -1.915 h -2.29 z m 0,-3.348 h 2.29 v -8.516 h -2.29 z"
         style="fill:#032046;fill-opacity:1;fill-rule:nonzero;stroke:none"
         id="path64" />
      <path
         id="path68"
         style="fill:#032046;fill-opacity:1;fill-rule:nonzero;stroke:none"
         d="m 163.14973,-27.85257 -3.254,8.516 h 2.421 l 2.384,-6.143 2.363,6.143 h 1.661 l -3.28,-8.516 z" />
      <path
         id="path72"
         style="fill:#032046;fill-opacity:1;fill-rule:nonzero;stroke:none"
         d="m 176.37163,-27.56467 c -1.085,-0.323 -2.112,-0.486 -3.082,-0.486 -0.923,0 -1.728,0.179 -2.416,0.518 -0.697,0.346 -1.226,0.884 -1.602,1.613 -0.37,0.735 -0.558,1.528 -0.558,2.389 0,0.797 0.162,1.534 0.477,2.207 0.317,0.67 0.776,1.204 1.379,1.597 0.606,0.39 1.348,0.587 2.23,0.587 1.087,0 1.953,-0.349 2.6,-1.037 0.648,-0.698 0.972,-1.989 0.972,-3.874 h -5.236 c 0.055,-0.574 0.18,-1.028 0.39,-1.359 0.208,-0.328 0.488,-0.59 0.841,-0.789 0.355,-0.191 0.83,-0.292 1.423,-0.292 0.765,0 1.628,0.186 2.582,0.54 z m -5.266,4.813 h 3.007 c 0,0.784 -0.128,1.339 -0.386,1.679 -0.256,0.331 -0.587,0.503 -0.995,0.503 -0.444,0 -0.807,-0.187 -1.094,-0.557 -0.285,-0.364 -0.462,-0.907 -0.532,-1.625" />
      <path
         id="path76"
         style="fill:#032046;fill-opacity:1;fill-rule:nonzero;stroke:none"
         d="m 177.54783,-27.57917 v 1.694 c 1.136,-0.489 2.109,-0.735 2.914,-0.735 0.429,0 0.769,0.092 1.027,0.273 0.252,0.178 0.382,0.411 0.382,0.695 0,0.242 -0.093,0.443 -0.286,0.61 -0.195,0.16 -0.486,0.321 -0.877,0.477 l -0.778,0.306 c -0.797,0.319 -1.392,0.676 -1.777,1.067 -0.38,0.381 -0.572,0.881 -0.572,1.497 0,0.739 0.284,1.351 0.868,1.83 0.576,0.484 1.458,0.725 2.65,0.725 0.691,0 1.524,-0.104 2.477,-0.309 v -1.61 c -0.924,0.323 -1.693,0.489 -2.301,0.489 -0.476,0 -0.84,-0.084 -1.075,-0.246 -0.241,-0.163 -0.362,-0.375 -0.362,-0.63 0,-0.205 0.077,-0.382 0.232,-0.539 0.153,-0.155 0.426,-0.309 0.829,-0.456 l 0.667,-0.257 c 1.109,-0.42 1.831,-0.827 2.168,-1.224 0.344,-0.393 0.512,-0.87 0.512,-1.427 0,-0.718 -0.309,-1.348 -0.928,-1.893 -0.619,-0.538 -1.519,-0.808 -2.697,-0.808 -1.011,0 -2.027,0.156 -3.073,0.471" />
      <path
         id="path80"
         style="fill:#032046;fill-opacity:1;fill-rule:nonzero;stroke:none"
         d="m 91.941527,-27.39857 c -0.502,-0.219 -0.937,-0.371 -1.31,-0.45 -0.373,-0.082 -0.8,-0.152 -1.268,-0.202 -0.476,-0.056 -0.942,-0.076 -1.403,-0.076 -2.003,0 -3.503,0.561 -4.492,1.691 -0.984,1.131 -1.479,2.571 -1.479,4.321 0,1.76 0.495,3.203 1.478,4.325 0.985,1.127 2.533,1.69 4.643,1.69 1.245,0 2.486,-0.151 3.72,-0.438 v -1.869 c -0.591,0.201 -1.082,0.349 -1.455,0.449 -0.379,0.097 -0.738,0.167 -1.078,0.209 -0.336,0.049 -0.672,0.072 -1.011,0.072 -1.317,0 -2.272,-0.424 -2.868,-1.266 -0.596,-0.85 -0.892,-1.894 -0.892,-3.14 0,-1.311 0.339,-2.369 1.013,-3.177 0.672,-0.808 1.675,-1.213 3.012,-1.213 1.113,0 2.241,0.274 3.39,0.831 z" />
      <path
         id="path84"
         style="fill:#032046;fill-opacity:1;fill-rule:nonzero;stroke:none"
         d="m 96.933327,-28.05027 c -0.918,0 -1.71,0.181 -2.367,0.541 -0.662,0.356 -1.164,0.889 -1.506,1.589 -0.349,0.696 -0.522,1.472 -0.522,2.325 0,0.846 0.17,1.619 0.514,2.317 0.339,0.698 0.84,1.226 1.503,1.591 0.659,0.364 1.454,0.548 2.378,0.548 0.926,0 1.724,-0.184 2.381,-0.548 0.661,-0.365 1.162003,-0.893 1.504003,-1.591 0.344,-0.698 0.517,-1.471 0.517,-2.317 0,-0.853 -0.177,-1.629 -0.52,-2.325 -0.345,-0.7 -0.846003,-1.233 -1.509003,-1.589 -0.66,-0.36 -1.45,-0.541 -2.373,-0.541 m 0,1.43 c 0.65,0 1.14,0.286 1.473,0.861 0.323,0.575 0.489,1.29 0.489,2.164 0,0.866 -0.166,1.586 -0.489,2.159 -0.333,0.577 -0.823,0.867 -1.473,0.867 -0.647,0 -1.133,-0.29 -1.462,-0.867 -0.33,-0.573 -0.491,-1.293 -0.491,-2.159 0,-0.874 0.161,-1.589 0.491,-2.164 0.329,-0.575 0.815,-0.861 1.462,-0.861" />
      <path
         id="path88"
         style="fill:#032046;fill-opacity:1;fill-rule:nonzero;stroke:none"
         d="m 102.37063,-27.85257 v 8.516 h 2.295 v -1.6 c 0.412,0.658 0.874,1.118 1.374,1.392 0.5,0.269 1.009,0.405 1.527,0.405 0.674,0 1.252,-0.216 1.74,-0.647 0.482,-0.435 0.723,-1.118 0.723,-2.046 v -6.02 h -2.294 v 5.456 c 0,0.466 -0.042,0.779 -0.132,0.945 -0.084,0.166 -0.199,0.292 -0.344,0.381 -0.151,0.08 -0.313,0.123 -0.496,0.123 -0.319,0 -0.644,-0.105 -0.986,-0.311 -0.344,-0.207 -0.713,-0.62 -1.112,-1.231 v -5.363 z" />
      <path
         id="path92"
         style="fill:#032046;fill-opacity:1;fill-rule:nonzero;stroke:none"
         d="m 111.25433,-27.57917 v 1.694 c 1.139,-0.489 2.107,-0.735 2.915,-0.735 0.426,0 0.771,0.092 1.024,0.273 0.256,0.178 0.388,0.411 0.388,0.695 0,0.242 -0.099,0.443 -0.288,0.61 -0.192,0.16 -0.485,0.321 -0.879,0.477 l -0.776,0.306 c -0.8,0.319 -1.393,0.676 -1.776,1.067 -0.384,0.381 -0.575,0.881 -0.575,1.497 0,0.739 0.289,1.351 0.867,1.83 0.58,0.484 1.461,0.725 2.653,0.725 0.693,0 1.517,-0.104 2.477,-0.309 v -1.61 c -0.925,0.323 -1.69,0.489 -2.3,0.489 -0.48,0 -0.84,-0.084 -1.076,-0.246 -0.241,-0.163 -0.361,-0.375 -0.361,-0.63 0,-0.205 0.076,-0.382 0.232,-0.539 0.15,-0.155 0.428,-0.309 0.829,-0.456 l 0.666,-0.257 c 1.106,-0.42 1.829,-0.827 2.169,-1.224 0.342,-0.393 0.512,-0.87 0.512,-1.427 0,-0.718 -0.309,-1.348 -0.932,-1.893 -0.617,-0.538 -1.516,-0.808 -2.694,-0.808 -1.006,0 -2.028,0.156 -3.075,0.471" />
      <path
         id="path96"
         style="fill:#032046;fill-opacity:1;fill-rule:nonzero;stroke:none"
         d="m 126.44153,-27.56467 c -1.082,-0.323 -2.111,-0.486 -3.083,-0.486 -0.918,0 -1.726,0.179 -2.413,0.518 -0.698,0.346 -1.231,0.884 -1.602,1.613 -0.371,0.735 -0.558,1.528 -0.558,2.389 0,0.797 0.155,1.534 0.476,2.207 0.315,0.67 0.772,1.204 1.379,1.597 0.602,0.39 1.345,0.587 2.231,0.587 1.086,0 1.95,-0.349 2.598,-1.037 0.648,-0.698 0.972,-1.989 0.972,-3.874 h -5.234 c 0.05,-0.574 0.181,-1.028 0.387,-1.359 0.211,-0.328 0.489,-0.59 0.846,-0.789 0.349,-0.191 0.826,-0.292 1.419,-0.292 0.766,0 1.626,0.186 2.582,0.54 z m -5.264,4.813 h 3.006 c 0,0.784 -0.129,1.339 -0.385,1.679 -0.259,0.331 -0.591,0.503 -0.994,0.503 -0.446,0 -0.81,-0.187 -1.097,-0.557 -0.285,-0.364 -0.461,-0.907 -0.53,-1.625" />
      <path
         id="path100"
         style="fill:#032046;fill-opacity:1;fill-rule:nonzero;stroke:none"
         d="m 127.64883,-27.85257 v 8.516 h 2.296 v -1.591 c 0.272,0.544 0.647,0.978 1.119,1.299 0.478,0.327 1.005,0.489 1.588,0.489 0.139,0 0.282,-0.01 0.429,-0.036 v -2.061 c -0.32,0.116 -0.625,0.178 -0.911,0.178 -0.452,0 -0.865,-0.115 -1.234,-0.346 -0.375,-0.228 -0.701,-0.575 -0.991,-1.036 v -5.412 z" />
      <path
         id="path104"
         style="fill:#032046;fill-opacity:1;fill-rule:nonzero;stroke:none"
         d="m 136.96333,-27.85257 -3.253,8.516 h 2.424 l 2.379,-6.143 2.369,6.143 h 1.661 l -3.282,-8.516 z" />
      <path
         id="path108"
         style="fill:#032046;fill-opacity:1;fill-rule:nonzero;stroke:none"
         d="m 147.25823,-26.92867 c -0.331,-0.325 -0.617,-0.56 -0.859,-0.699 -0.248,-0.141 -0.501,-0.244 -0.762,-0.319 -0.262,-0.066 -0.544,-0.104 -0.84,-0.104 -0.76,0 -1.366,0.241 -1.825,0.711 -0.457,0.474 -0.689,1.055 -0.689,1.745 0,0.836 0.345,1.539 1.032,2.099 0.685,0.559 1.796,0.844 3.33,0.844 h 0.616 v 0.778 c 0,0.52 -0.149,0.865 -0.435,1.049 -0.29,0.176 -0.657,0.27 -1.104,0.27 -0.879,0 -1.775,-0.252 -2.686,-0.757 v 1.585 c 1.036,0.39 2.066,0.587 3.095,0.587 0.632,0 1.195,-0.087 1.689,-0.256 0.497,-0.175 0.894,-0.434 1.191,-0.797 0.292,-0.358 0.443,-0.896 0.443,-1.606 v -3.772 c 0,-0.461 0.076,-0.739 0.217,-0.843 0.148,-0.107 0.293,-0.156 0.438,-0.156 0.086,0 0.191,0.008 0.322,0.027 l 0.034,-1.288 c -0.488,-0.145 -0.922,-0.22 -1.295,-0.22 -0.43,0 -0.795,0.075 -1.1,0.217 -0.312,0.146 -0.545,0.446 -0.711,0.905 z m 0.003,1.225 v 1.735 h -0.544 c -0.756,0 -1.314,-0.13 -1.682,-0.399 -0.369,-0.272 -0.556,-0.6 -0.556,-1 0,-0.329 0.112,-0.6 0.334,-0.805 0.23,-0.212 0.489,-0.318 0.785,-0.318 0.271,0 0.549,0.068 0.825,0.2 0.281,0.133 0.559,0.329 0.838,0.587" />
      <path
         id="path112"
         style="fill:#032046;fill-opacity:1;fill-rule:nonzero;stroke:none"
         d="m 155.81483,-27.80657 c -0.547,-0.162 -0.979,-0.244 -1.293,-0.244 -0.749,0 -1.333,0.104 -1.747,0.32 -0.411,0.213 -0.72,0.501 -0.924,0.865 -0.209,0.368 -0.316,0.898 -0.316,1.61 v 4.49 h -0.956 v 1.429 h 0.956 v 1.433 l 2.296,0.259 v -1.692 h 1.822 v -1.429 h -1.822 v -4.188 c 0,-0.617 0.109,-1.032 0.326,-1.245 0.214,-0.216 0.532,-0.325 0.953,-0.325 0.198,0 0.43,0.033 0.705,0.101 z" />
      <path
         d="m 156.80163,-15.98857 h 2.29 v -1.915 h -2.29 z m 0,-3.348 h 2.29 v -8.516 h -2.29 z"
         style="fill:#032046;fill-opacity:1;fill-rule:nonzero;stroke:none"
         id="path114" />
      <path
         id="path118"
         style="fill:#032046;fill-opacity:1;fill-rule:nonzero;stroke:none"
         d="m 163.14973,-27.85257 -3.254,8.516 h 2.421 l 2.384,-6.143 2.363,6.143 h 1.661 l -3.28,-8.516 z" />
      <path
         id="path122"
         style="fill:#032046;fill-opacity:1;fill-rule:nonzero;stroke:none"
         d="m 176.37163,-27.56467 c -1.085,-0.323 -2.112,-0.486 -3.082,-0.486 -0.923,0 -1.728,0.179 -2.416,0.518 -0.697,0.346 -1.226,0.884 -1.602,1.613 -0.37,0.735 -0.558,1.528 -0.558,2.389 0,0.797 0.162,1.534 0.477,2.207 0.317,0.67 0.776,1.204 1.379,1.597 0.606,0.39 1.348,0.587 2.23,0.587 1.087,0 1.953,-0.349 2.6,-1.037 0.648,-0.698 0.972,-1.989 0.972,-3.874 h -5.236 c 0.055,-0.574 0.18,-1.028 0.39,-1.359 0.208,-0.328 0.488,-0.59 0.841,-0.789 0.355,-0.191 0.83,-0.292 1.423,-0.292 0.765,0 1.628,0.186 2.582,0.54 z m -5.266,4.813 h 3.007 c 0,0.784 -0.128,1.339 -0.386,1.679 -0.256,0.331 -0.587,0.503 -0.995,0.503 -0.444,0 -0.807,-0.187 -1.094,-0.557 -0.285,-0.364 -0.462,-0.907 -0.532,-1.625" />
      <path
         id="path126"
         style="fill:#032046;fill-opacity:1;fill-rule:nonzero;stroke:none"
         d="m 177.54783,-27.57917 v 1.694 c 1.136,-0.489 2.109,-0.735 2.914,-0.735 0.429,0 0.769,0.092 1.027,0.273 0.252,0.178 0.382,0.411 0.382,0.695 0,0.242 -0.093,0.443 -0.286,0.61 -0.195,0.16 -0.486,0.321 -0.877,0.477 l -0.778,0.306 c -0.797,0.319 -1.392,0.676 -1.777,1.067 -0.38,0.381 -0.572,0.881 -0.572,1.497 0,0.739 0.284,1.351 0.868,1.83 0.576,0.484 1.458,0.725 2.65,0.725 0.691,0 1.524,-0.104 2.477,-0.309 v -1.61 c -0.924,0.323 -1.693,0.489 -2.301,0.489 -0.476,0 -0.84,-0.084 -1.075,-0.246 -0.241,-0.163 -0.362,-0.375 -0.362,-0.63 0,-0.205 0.077,-0.382 0.232,-0.539 0.153,-0.155 0.426,-0.309 0.829,-0.456 l 0.667,-0.257 c 1.109,-0.42 1.831,-0.827 2.168,-1.224 0.344,-0.393 0.512,-0.87 0.512,-1.427 0,-0.718 -0.309,-1.348 -0.928,-1.893 -0.619,-0.538 -1.519,-0.808 -2.697,-0.808 -1.011,0 -2.027,0.156 -3.073,0.471" />
      <path
         id="path130"
         style="fill:#e63329;fill-opacity:1;fill-rule:nonzero;stroke:none"
         d="m 55.640427,-24.94437 c 0.273,0.351 0.678,0.849 1.176,1.394 h 1.805 z m -0.393,6.457 0.231,-0.135 h 1.894 c 0.033,0.023 0.067,0.046 0.101,0.07 l -1.788,1.051 c -0.157,-0.316 -0.301,-0.646 -0.438,-0.986 m 16.079,-6.975 c -0.107,-0.192 -0.273,-0.509 -0.381,-0.802 -0.022,-0.06 -0.043,-0.121 -0.063,-0.181 l 2.241,-1.319 c 0.288,0.149 0.623,0.332 1.003,0.553 0.029,0.017 0.056,0.034 0.085,0.051 z m 5.028,3.011 c -0.447,0.495 -1.663,1.514 -1.663,1.514 0,0 -1.352,-0.95 -2.387,-1.45 0,0 0.897,0.843 1.21,1.129 0.442,0.404 1.737,1.658 1.737,1.658 l -0.025,0.027 -11.704,-0.037 1.505,7.016 c -0.627,-0.179 -1.537,-0.473 -2.529,-0.911 -0.195,-0.086 -0.383,-0.174 -0.57,-0.262 l -1.244,-5.843 h -3.805 c -1.177,-1.186 -1.942,-2.241 -1.942,-2.241 l 0.653,-0.714 h 1.509 c 0.45,0.398 1.102,0.928 1.996,1.545 l -0.223,-0.601 c -0.381,-0.296 -0.748,-0.617 -1.091,-0.944 h 2.254 l -0.856,-3.861 1.041,-1.035 0.074,-0.084 c 0,0 0.687,0.12 1.549,0.337 l 1.028,4.643 13.459,0.039 c 0.02,0.04 0.03,0.068 0.024,0.075 m -5.119,-2.958 -3.157,1.859 h -2.115 l 4.226,-2.487 c 0.467,0.264 0.836,0.494 1.046,0.628 m 1.368,9.382 -0.554,0.729 -7.115,-3.324 h 2.113 z m -17.056,-4.014 c 0,0 0.193,0.17 0.515,0.431 h -0.943 c 0.198,-0.193 0.428,-0.431 0.428,-0.431" />
      <path
         id="path134"
         style="fill:#ffffff;fill-opacity:1;fill-rule:nonzero;stroke:none"
         d="m 57.473527,-18.55277 c 0.47,0.325 0.995,0.66 1.541,0.959 l -2.519,1.482 c -0.297,-0.436 -0.566,-0.898 -0.81,-1.389 z" />
      <path
         id="path138"
         style="fill:#032046;fill-opacity:1;fill-rule:nonzero;stroke:none"
         d="m 77.729027,-23.55067 -0.739,0.545 c 0,0 -0.236,-0.231 -0.585,-0.545 z" />
      <path
         id="path142"
         style="fill:#ffffff;fill-opacity:1;fill-rule:nonzero;stroke:none"
         d="m 74.377427,-18.62287 h -4.157 l 3.215,1.502 -0.832,1.094 -5.556,-2.596 h -2.113 l 7.115,3.324 -0.423,-0.198 -0.303,0.353 -6.546,-3.06 1.227,5.596 c -0.075,0.147 -0.12,0.232 -0.12,0.232 0,0 -0.328,-0.069 -0.857,-0.219 l -1.505,-7.015 11.704,0.036 z" />
      <path
         id="path146"
         style="fill:#ffffff;fill-opacity:1;fill-rule:nonzero;stroke:none"
         d="m 55.478327,-18.62287 -0.231,0.136 c -0.12,-0.3 -0.236,-0.606 -0.343,-0.924 0.053,-0.044 0.132,-0.118 0.215,-0.199 h 0.943 c 0.323,0.261 0.776,0.613 1.31,0.987 z" />
      <path
         id="path150"
         style="fill:#ffffff;fill-opacity:1;fill-rule:nonzero;stroke:none"
         d="m 62.888027,-26.91357 0.62,2.942 4.966,-2.938 c 0.179,0.079 0.363,0.164 0.548,0.255 0.426,0.208 0.823,0.422 1.168,0.617 l -4.227,2.487 h 2.115 l 3.158,-1.859 c 0.124,0.08 0.194,0.127 0.194,0.127 0,0 -0.043,-0.07 -0.103,-0.18 l 2.884,-1.698 c 0.183,0.108 0.357,0.215 0.525,0.323 l -5.6,3.287 h 6.5 c 0.33,0.452 0.613,0.863 0.694,1.025 l -13.459,-0.039 -1.028,-4.644 c 0.332,0.084 0.69,0.183 1.045,0.295" />
      <path
         id="path154"
         style="fill:#ffffff;fill-opacity:1;fill-rule:nonzero;stroke:none"
         d="m 70.882227,-26.44567 c -0.152,-0.458 -0.246,-0.915 -0.246,-0.915 l 1.345,-0.948 c 0,0 0.413,0.163 1.143,0.544 z" />
      <path
         id="path158"
         style="fill:#ffffff;fill-opacity:1;fill-rule:nonzero;stroke:none"
         d="m 60.050527,-18.20377 -0.919,0.541 c -0.044,-0.031 -0.926,-0.652 -2.002,-1.7 -0.086,-0.083 -0.169,-0.165 -0.25,-0.247 h 3.805 l 1.244,5.842 c -0.336,-0.158 -0.655,-0.321 -0.965,-0.487 z" />
      <path
         id="path162"
         style="fill:#ffffff;fill-opacity:1;fill-rule:nonzero;stroke:none"
         d="m 57.099727,-22.56507 h -1.51 l 0.712,-0.779 c 0,0 0.245,0.289 0.798,0.779" />
      <path
         id="path166"
         style="fill:#ffffff;fill-opacity:1;fill-rule:nonzero;stroke:none"
         d="m 58.141627,-26.79157 0.817,0.57 0.093,-0.077 0.128,-0.128 0.855,3.862 h -2.254 c -0.347,-0.331 -0.672,-0.666 -0.964,-0.986 h 1.805 l -2.981,-1.394 c -0.245,-0.315 -0.384,-0.511 -0.384,-0.511 l 0.11,-0.111 3.413,1.595 z" />
      <path
         id="path170"
         style="fill:#013670;fill-opacity:1;fill-rule:nonzero;stroke:none"
         d="m 77.729027,-23.55067 h -1.324 c -0.199,-0.18 -0.436,-0.387 -0.687,-0.592 -0.467,-0.383 -1.124,-0.773 -1.124,-0.773 0.268,0.327 0.682,0.871 1.042,1.365 h -6.5 l 5.601,-3.288 c 0.641,0.409 1.177,0.808 1.611,1.141 0,0 -0.463,-0.712 -0.802,-1.23 0.468,-0.445 0.966,-0.84 0.966,-0.84 l 2.141,3.535 z" />
      <path
         id="path174"
         style="fill:#013670;fill-opacity:1;fill-rule:nonzero;stroke:none"
         d="m 66.004027,-12.60777 -1.227,-5.596 6.547,3.059 -0.251,0.292 -2.053,-1.05 -0.894,1.655 -2.49,-1.093 c 0.303,0.303 0.458,0.432 1.203,0.878 -0.314,0.799 -0.658,1.506 -0.835,1.855" />
      <path
         id="path178"
         style="fill:#013670;fill-opacity:1;fill-rule:nonzero;stroke:none"
         d="m 59.014627,-17.59417 v 0 c 0.029,-0.008 0.097,-0.053 0.121,-0.066 0,0 -0.003,-0.002 -0.004,-0.003 l 0.919,-0.541 0.913,3.951 c -1.186,-0.635 -2.191,-1.326 -3.062,-2.106 l -0.053,0.026 c 0.216,0.409 0.844,1.077 1.558,1.707 0.663,0.587 1.581,1.097 1.581,1.097 l 0.153,0.918 c -1.199,-0.439 -2.53,-1.081 -3.57,-2.167 -0.395,-0.413 -0.749,-0.859 -1.073,-1.335 z" />
      <path
         id="path182"
         style="fill:#013670;fill-opacity:1;fill-rule:nonzero;stroke:none"
         d="m 74.377427,-18.62287 -0.781,0.874 0.092,0.295 -0.253,0.333 -3.215,-1.502 z" />
      <path
         id="path186"
         style="fill:#013670;fill-opacity:1;fill-rule:nonzero;stroke:none"
         d="m 58.141627,-26.79157 0.638,2.82 -3.413,-1.595 1.847,-1.872 z" />
      <path
         id="path190"
         style="fill:#013670;fill-opacity:1;fill-rule:nonzero;stroke:none"
         d="m 62.934227,-26.89977 c 1.128,0.362 2.144,0.893 2.144,0.893 0,0 0.222,-0.249 0.433,-0.531 l 0.902,-1.157 c 0,0 0.94,0.286 2.061,0.785 l -4.966,2.939 -0.62,-2.943 c 0.015,0.005 0.031,0.009 0.046,0.014" />
      <path
         id="path194"
         style="fill:#013670;fill-opacity:1;fill-rule:nonzero;stroke:none"
         d="m 71.902127,-30.35447 c -0.026,0.002 0.055,0.226 0.035,0.226 -2.052,0.076 -5.959,0.072 -6.342,0.358 -0.277,0.209 0.146,1.267 0.422,1.848 0,0 -0.427,0.578 -1.109,1.41 -0.068,-0.07 -1.117,-1.243 -1.223,-3.069 -0.571,-0.16 -0.645,-0.275 -1.771,-0.367 -0.677,-0.052 -3.729,-0.146 -3.729,-0.146 l -0.169,-0.151 c -0.182,-0.014 -1.197,-0.049 -1.197,-0.049 0,0 0.107,-0.342 0.327,-0.584 0.271,-0.021 6.491,-0.156 7.314,0.38 0.318,-0.269 0.894,-0.419 2.027,-0.371 0.213,0.008 3.874,-0.033 4.313,-0.031 1.548,0.01 4.69,0.205 4.69,0.205 l 0.283,0.31 c -0.34,0 -1.998,0.021 -3.027,0.021 -0.282,0 -0.779,0.003 -0.844,0.01" />
    </g>
  </g>
</svg>
