<?xml version="1.0" encoding="UTF-8" standalone="no"?>
<svg
   xmlns:dc="http://purl.org/dc/elements/1.1/"
   xmlns:cc="http://creativecommons.org/ns#"
   xmlns:rdf="http://www.w3.org/1999/02/22-rdf-syntax-ns#"
   xmlns:svg="http://www.w3.org/2000/svg"
   xmlns="http://www.w3.org/2000/svg"
   id="svg13"
   viewBox="0 0 4211.243 1014.8477"
   style="clip-rule:evenodd;fill-rule:evenodd;image-rendering:optimizeQuality;shape-rendering:geometricPrecision;text-rendering:geometricPrecision"
   version="1.1"
   height="41.838272mm"
   width="173.58792mm"
   xml:space="preserve"><metadata
     id="metadata17"><rdf:RDF><cc:Work
         rdf:about=""><dc:format>image/svg+xml</dc:format><dc:type
           rdf:resource="http://purl.org/dc/dcmitype/StillImage" /><dc:title></dc:title></cc:Work></rdf:RDF></metadata><defs
     id="defs4"><style
       id="style2"
       type="text/css"><![CDATA[
    .fil0 {fill:white}
    .fil1 {fill:#67B437;fill-rule:nonzero}
   ]]></style></defs><g
     transform="translate(0,-0.10029362)"
     id="Layer_x0020_1"><metadata
       id="CorelCorpID_0Corel-Layer" /><g
       id="_1395200373200"><circle
         style="fill:#ffffff"
         cy="0"
         cx="0"
         id="circle7"
         r="643"
         transform="matrix(0.356519,0.331118,-0.316393,0.329319,615.662,593.306)"
         class="fil0" /><path
         id="path9"
         transform="matrix(6.4187916,0,0,6.4187916,0,-0.09472589)"
         d="m 88.490234,0.015625 c -0.778962,7.7896282 -5.45242,13.552503 -6.542968,22.121094 -0.778963,5.764325 0.467552,11.841267 4.050781,16.982422 1.713718,-0.311586 3.583614,-0.467255 5.453125,-0.623047 C 88.023735,28.836955 94.72278,19.488811 94.099609,14.347656 93.320647,7.9601612 91.606086,3.598854 88.490234,0.015625 Z m 36.298826,5.7636719 c -6.2317,15.7350491 -19.47244,16.0467461 -18.07031,33.9628911 2.1811,0.467377 4.20562,1.090177 6.38672,1.86914 3.27164,-8.257006 5.60884,-7.321453 10.75,-16.357422 2.96006,-4.985362 2.9589,-13.710284 0.93359,-19.4746091 z M 49.230469,8.4277344 c 5.452739,8.2570056 4.518246,14.4890876 6.076172,22.7460936 1.090548,5.920118 4.362381,11.059807 11.373047,14.798828 1.402133,-0.934755 2.959652,-1.713224 4.517578,-2.492187 C 66.523489,37.560351 67.302313,31.328567 64.498047,24.162109 61.849573,17.774614 56.708512,12.322548 49.230469,8.4277344 Z m 47.671875,2.1816406 c 0.155792,9.035969 -2.491149,14.331502 -2.802735,19.472656 -0.155792,2.804266 0.933347,5.454004 2.179688,8.414063 1.24634,0 2.337644,-0.0015 3.583984,0.154297 0.155789,-3.739022 2.181639,-6.542897 2.181639,-11.839844 0,-2.336889 -0.93618,-10.748432 -5.142576,-16.201172 z M 63.875,16.683594 c 4.050607,7.478043 2.960901,11.373766 5.609375,17.605468 1.402133,3.271644 3.894495,5.920133 6.542969,7.322266 1.090548,-0.467378 2.180479,-0.778258 3.115234,-1.089844 C 78.6752,37.249841 78.363985,34.445349 77.273438,31.796875 75.403927,26.967306 70.418288,20.889993 63.875,16.683594 Z m 63.71875,5.453125 c -1.24634,4.362192 -2.49169,9.347162 -4.98437,11.839843 -2.80427,2.804267 -4.20612,6.233635 -3.89454,9.972657 1.09055,0.467377 2.33524,1.08972 3.42578,1.71289 0.77897,-1.86951 2.49436,-3.583033 3.89649,-5.919921 1.86951,-3.427437 3.73774,-10.439011 1.55664,-17.605469 z m 30.69141,3.427734 c -8.10122,7.010665 -14.33275,6.23272 -20.56446,9.660156 -5.14115,2.960059 -8.10098,9.034961 -8.56836,14.955079 0.31159,0.467377 0.77872,0.780211 1.2461,1.091796 0.62317,0.467378 1.24597,1.089721 1.86914,1.712891 5.92012,-8.412798 12.6194,-7.634236 18.69531,-12.775391 2.49268,-2.025303 5.92013,-5.296977 7.32227,-14.644531 z M 21.1875,31.017578 c 8.880176,8.101213 8.256862,12.463857 10.59375,17.449219 2.804266,6.231702 7.790414,10.593256 18.228516,13.085937 0.934755,-1.402133 2.024686,-2.80444 3.115234,-4.050781 0.155793,-0.155792 0.15625,-0.154754 0.15625,-0.310547 C 43.777904,52.985007 43.465497,44.727796 37.701172,38.496094 34.585321,35.068657 29.756091,32.419711 21.1875,31.017578 Z m 16.203125,2.648438 c 3.271644,4.050606 4.361169,8.256491 7.632813,12.46289 2.804266,3.427437 7.012227,5.76434 11.841796,7.322266 0.778963,-0.778963 1.557432,-1.556517 2.492188,-2.179688 -3.115851,-3.427436 -3.895868,-7.166894 -7.011719,-10.126953 -3.739021,-3.427436 -8.41179,-5.92059 -14.955078,-7.478515 z m 120.271485,1.86914 c -3.73902,4.673777 -7.01119,9.036616 -12.15234,11.529297 -4.51799,2.336889 -8.25653,5.296135 -9.81446,9.035156 l 3.27149,3.740235 c 9.65914,-4.050607 17.91635,-13.710793 18.69531,-24.304688 z M 95.345703,43.673828 C 81.04778,43.4835 66.971696,49.293473 57.332031,60.773438 40.194849,81.338056 43.77797,112.02975 65.277344,129.47852 86.620925,146.92728 117.93463,144.43376 134.91602,123.86914 152.0532,103.46031 148.47053,72.614783 127.12695,55.166016 117.72098,47.600339 106.46631,43.821861 95.345703,43.673828 Z m -5.765625,2.767578 c 0.467378,0.155793 0.780212,0.777801 1.091797,0.933594 0.467378,0 0.934966,-0.310089 1.402344,-0.154297 l 0.466797,0.466797 c 0,0 0.311004,0.15625 0.466796,0.15625 0.467378,0.311585 1.245971,0.310547 1.869141,0.310547 h 0.779297 c 0.311585,-0.155793 0.778716,-0.466797 1.246094,-0.466797 0.311585,0.155793 0.312042,0.778716 0.15625,1.246094 0.311585,0.155792 0.623961,0.15625 0.935547,0.15625 0.778962,0.311585 1.713682,1.868349 2.648439,0.933594 0.62317,0.311585 1.09063,0.624085 2.02539,0.3125 0.46738,-10e-7 0.77826,-0.311005 1.08984,-0.466797 h 0.7793 c 0.31158,-0.311586 0.15475,-0.62442 0.31055,-1.091797 0.15579,-0.155793 0.46771,-0.311462 0.77929,-0.623047 0.1558,-0.155793 0.31296,-0.466797 0.46875,-0.466797 0.62317,0.155793 1.24552,0.155212 1.71289,0.466797 v 0.935547 c 0.1558,0.155792 0.31147,0.310547 0.62305,0.310547 0.15579,0 0.46725,-0.154297 0.62305,-0.154297 0.62317,0 0.93496,0.465758 1.40234,0.777344 -0.15579,0.467377 -0.46771,0.780211 -0.7793,1.091796 0,0.155793 0.15671,0.311005 0.3125,0.466797 0,0.467378 -0.15579,1.091216 0,1.558594 0,0.311585 0.46634,0.778716 0.31055,1.246094 -0.31158,0 -0.46771,0.310547 -0.7793,0.310547 -0.15579,0.155792 -0.311,4.57e-4 -0.46679,0.15625 -0.31159,0 -0.46771,0.15625 -0.7793,0.15625 -0.31158,0 -0.6235,-0.156708 -0.7793,-0.3125 -0.31158,-0.155793 -0.62155,-0.311005 -0.77734,-0.466797 -0.31159,0 -0.46771,0.15625 -0.7793,0.15625 -0.77896,0.155792 -1.24597,0.154754 -1.86914,0.310547 -0.46738,0.467377 -0.78021,0.934966 -1.09179,1.402343 -0.1558,0 -0.31147,0.156708 -0.62305,0.3125 -0.31159,0 -0.62201,-0.155792 -0.93359,0 -0.62318,0.155793 -0.46817,0.934509 -0.93555,1.246094 -0.15579,0.467378 -0.46771,0.934966 -0.779299,1.402344 0.467379,0.778963 1.401759,0.934385 1.869139,1.869141 -0.46738,0.155792 -1.40085,-0.154878 -1.55664,0.3125 -0.155791,0.311585 -4.6e-4,0.934508 -0.156249,1.246093 -0.311585,0 -0.934508,-0.157165 -1.246093,-0.46875 -0.311586,-0.467377 0.312042,-0.934966 0.15625,-1.402343 -0.155793,-0.311586 -0.467712,-0.466797 -0.779297,-0.466797 -0.311586,-0.155793 -0.623962,-0.15625 -0.935547,-0.15625 C 96.747009,59.838348 96.279878,59.683136 95.8125,59.527344 95.500915,59.371551 95.033784,59.059632 94.566406,58.748047 94.410614,58.592254 93.78769,58.125 93.320312,58.125 c -0.311585,0 -0.623961,0.624419 -0.935546,1.091797 -0.623171,0.934755 -0.933928,1.868436 -1.712891,2.958984 -0.311585,0.467378 -0.624419,0.623962 -1.091797,0.935547 -0.155792,0.155793 -0.466797,0.311462 -0.466797,0.623047 0,0.311585 1.090759,0.778259 1.402344,1.089844 0.155793,0 0.311004,0.15625 0.466797,0.15625 0.467378,0.155792 0.778716,-0.468293 1.246094,-0.3125 0.311585,-0.311585 0.157164,-0.777801 0.46875,-0.933594 0.467377,0 0.933927,0.466339 1.71289,0.310547 0.311585,0 0.778716,-0.465882 1.246094,-0.154297 v 0.933594 c -0.467378,0.311585 -0.934966,0.934966 -1.402344,1.402343 -0.311585,0.311586 -0.622008,0.622467 -0.933594,1.089844 0,0.155793 -4.57e-4,0.312958 -0.15625,0.46875 0,0.155793 -0.15625,0.311005 -0.15625,0.466797 v 0.466797 c -0.155792,0.467378 -0.622008,0.623504 -0.933593,0.779297 0,0.155792 -0.15625,0.466797 -0.15625,0.466797 -0.155793,0.311585 -0.3125,0.312957 -0.3125,0.46875 -0.155793,0.155792 0.0015,0.467254 -0.154297,0.623047 0,0 -0.15625,0.154754 -0.15625,0.310547 -0.311585,0.467377 -0.468627,0.779754 -1.091797,0.935546 -0.311585,0.155793 -0.778259,0.15625 -1.089844,0.15625 -0.311585,-0.467377 -0.155211,-1.403716 -0.466797,-1.871093 -0.155792,-0.778963 -0.156584,-1.713348 -0.935546,-1.869141 -0.623171,0.311585 -0.311462,1.40222 -0.623047,2.025391 -0.467378,0 -0.778259,-0.311005 -1.089844,-0.466797 -0.311585,-0.467378 -0.779754,-0.935424 -0.935547,-1.558594 -0.155793,0 -0.15625,-0.154754 -0.15625,-0.310547 -0.311585,-0.311585 -0.777344,-0.624419 -0.777344,-1.091797 -0.467377,-0.62317 -1.715178,-0.465758 -2.49414,-0.777344 -0.311586,0.311586 -0.622009,0.154755 -0.933594,0.310547 -0.155793,0 -0.312958,0.3125 -0.46875,0.3125 -0.311585,0.155793 -0.622009,0.154755 -0.933594,0.310547 -0.467378,0.155793 -0.780212,0.312043 -1.091797,0.15625 -0.311585,0 -0.465758,-0.466797 -0.777343,-0.466797 -0.623171,0 -0.934967,0.621552 -1.402344,0.777344 -0.311585,0 -0.623962,-0.154297 -0.935547,-0.154297 -0.155793,0 -0.155212,0.154755 -0.466797,0.310547 -0.467378,0.311585 -0.778716,0.623504 -1.246094,0.779297 0,-0.311585 0.154297,-0.623962 0.154297,-0.935547 0.467378,-0.467378 1.091216,-0.778716 1.558594,-1.246094 0.311585,-0.778962 0.467712,-1.557432 0.779297,-2.492187 0,-0.155793 0.15625,-0.311004 0.15625,-0.466797 0,-0.311585 -4.58e-4,-0.467254 -0.15625,-0.623047 -0.155793,-0.62317 -0.311005,-1.091216 -0.466797,-1.558594 -0.62317,0.155793 -1.40222,0.467712 -2.025391,0.779297 -0.62317,0.155793 -1.091216,0.311005 -1.558594,0.466797 -0.155792,0.155793 -0.311004,0.467712 -0.466796,0.779297 -0.311586,0.155793 -0.779755,0.467712 -0.935547,0.779297 -0.155793,0.934755 0.311127,2.024229 -0.15625,2.958984 -0.623171,0 -1.089721,-0.465758 -1.712891,-0.777344 -0.467378,-0.155792 -0.934051,-0.468873 -1.089844,0.154297 -0.155792,0.155793 0,0.312958 0,0.46875 -0.155792,0.467378 -0.156707,0.778716 -0.3125,1.246094 0,0.467378 0.001,0.934051 -0.310546,1.089844 -0.155793,0.311585 -0.62442,0.311004 -1.091797,0.466797 -0.467378,0.778963 0.155211,1.55847 0.466797,2.18164 -0.155793,0.623171 -0.310547,1.713225 -0.310547,2.492188 0.467377,0.311585 1.402677,0.156707 2.18164,0.3125 0.934756,0.155792 1.089263,0.310423 1.556641,0.933594 0.155792,0.311585 0.312957,0.623504 0.46875,0.779296 0.155792,0.467378 0.467254,0.779755 0.623047,0.935547 0.155792,0.155793 0.154297,0.467255 0.154297,0.623047 0.155792,0.155793 0.3125,0.156708 0.3125,0.3125 0.155792,0.467378 4.57e-4,0.934509 0.15625,1.246094 0,0.311585 0.154754,0.465759 0.310546,0.777344 0,0.155792 4.58e-4,0.467711 0.15625,0.779297 0,0.155792 0.156708,0.311461 0.3125,0.623047 0,0.155792 0.154297,0.467711 0.154297,0.779296 0,0 0.15625,0.156708 0.15625,0.3125 0.155793,0.155793 0.15625,0.311005 0.15625,0.466797 0.311586,0.467378 0.778716,1.089721 1.246094,1.712891 0.155793,0.311585 0.466797,0.469207 0.466797,0.625 0.155793,0.467378 -0.466797,0.933928 -0.466797,1.71289 0,0.311586 0.155793,0.623962 0,0.935547 -0.155792,0.778963 -0.934508,1.401763 -1.246094,1.869141 0.155793,0.62317 0.154755,1.245055 0.310547,1.556641 0.778963,0.311585 0.936462,0.467131 1.248047,1.246093 0,0.623171 0.31009,1.402221 0.154297,2.025391 -0.155793,0.311585 -0.310547,0.623962 -0.310547,0.935547 -0.155792,0.467378 -4.57e-4,0.934966 -0.15625,1.402344 -0.155792,0.311585 -0.623962,0.15625 -0.935547,0.15625 l -0.310547,0.310546 c -0.311585,0 -0.623047,4.58e-4 -0.623047,0.15625 -0.155792,0.467378 0.311005,0.778259 0.466797,1.089844 l 1.402344,2.804684 c 0,0.1558 0.15625,0.31101 0.15625,0.4668 0.467378,0.77896 0.622009,1.71518 0.933594,2.49414 0.155792,0.31159 0.46875,0.77872 0.46875,1.24609 0,0.31159 -0.155793,0.62201 0,0.9336 -0.155793,0.31158 -0.467712,0.62396 -0.779297,0.93555 -0.467378,0.46737 -0.934966,0.93542 -1.402344,1.55859 -0.311585,0.31158 -0.779754,0.62305 -0.935547,0.62305 -0.467377,0.15579 -0.778258,-0.46772 -1.089843,-0.7793 -0.467378,0 -0.778716,-0.46771 -1.246094,-0.7793 -0.62317,0.1558 -1.24597,4.6e-4 -1.869141,0.15625 -0.155792,0 -0.312957,0.15625 -0.46875,0.15625 h -1.089843 c -0.934756,0 -1.869475,0.31101 -2.648438,0.4668 -0.934755,0.15579 -1.713225,4.6e-4 -2.492188,0.15625 -0.311585,0.15579 -0.624419,0.46725 -1.091796,0.62305 h -0.466797 c 0,0.15579 -0.154755,0.15625 -0.310547,0.15625 -0.155793,0.15579 -0.312958,-0.002 -0.46875,0.15429 0,0 -0.154754,0.15625 -0.310547,0.15625 -0.311585,0.1558 -0.623962,0.15625 -0.935547,0.15625 -0.62317,0.31159 -1.091216,0.93451 -1.558594,1.2461 -0.311585,0.62317 -0.622008,1.24551 -0.933593,1.71289 -0.311586,-0.31159 -1.713348,-3.11466 -1.869141,-3.58203 l -0.15625,-0.3125 c -1.713718,-4.05061 -2.960814,-8.10025 -3.583984,-12.306644 0,-0.623171 0.780211,-1.247466 1.091796,-1.714844 0.155793,-0.311585 0.311005,-0.467712 0.466797,-0.779297 0.467378,-0.778963 0.934966,-1.556517 1.402344,-2.179687 0.155793,-0.934756 0.155335,-1.246428 -0.15625,-2.025391 0,-0.155793 -0.15625,-0.467712 -0.15625,-0.779297 -0.311585,-0.467378 -0.623504,-0.778716 -0.779297,-1.246094 0,-0.311585 0.156708,-0.934508 0.3125,-1.246094 0.155793,-0.467377 0.467712,-0.778716 0.779297,-1.246093 0.467378,0 0.623047,-0.469084 0.623047,-1.248047 0.155793,-0.311585 0.311462,-0.465759 0.623047,-0.777344 -0.155793,-1.402133 0.466673,-2.336729 1.089844,-3.271484 0,-0.155793 4.57e-4,-0.3125 0.15625,-0.3125 0.155792,-0.467378 0.467835,-1.090178 0.15625,-1.869141 0.155792,-0.934755 1.246427,-1.40222 2.02539,-2.025391 0,0 0.154755,-0.15625 0.310547,-0.15625 0.311585,-0.155792 0.623504,-0.155211 0.779297,-0.466796 0.155793,-0.155793 4.57e-4,-0.467712 0.15625,-0.779297 0.155793,0 0.310547,-0.156708 0.310547,-0.3125 0.311585,-0.311585 0.624419,-0.465759 1.091797,-0.777344 0.311585,-0.155793 0.622008,-0.3125 0.933593,-0.3125 0.934756,0.311585 1.558928,0.62317 2.337891,0 0.311585,-0.311585 0.467712,-0.468169 0.779297,-0.935547 0.155793,-0.311585 0.310547,-0.467254 0.310547,-0.623047 0,-0.778963 -0.623047,-1.24597 -0.623047,-1.86914 0.155793,-0.623171 0.467254,-1.090178 0.623047,-1.869141 0,-0.311585 0.3125,-0.623962 0.3125,-0.935547 -0.155793,-0.311585 -0.468293,-0.466673 -0.3125,-1.089844 0,-0.311585 0.312957,-0.467711 0.46875,-0.779297 0,-0.467377 -0.157288,-0.934966 0.154297,-1.402343 -0.155793,-1.090548 0.312376,-1.869475 0.935547,-2.648438 0,-0.311585 0.310547,-0.311004 0.310547,-0.466797 0.155792,-0.311585 0.156707,-0.467254 0.3125,-0.623046 0.155792,-0.467378 0.467254,-0.623962 0.623046,-0.935547 0.155793,-0.778963 4.58e-4,-1.402221 0.15625,-2.025391 0,-0.311585 0.467255,-0.621551 0.623047,-0.777344 0.155793,-0.311585 0.311462,-0.779754 0.623047,-0.935547 0.311585,0 0.311462,0.3125 0.623047,0.3125 0.467378,-0.155792 0.934051,-0.935881 1.089844,-1.714843 v -0.623047 c 0,-0.467378 0.468292,-0.934509 0.3125,-1.246094 0.62317,-0.467378 1.246428,-0.778716 2.02539,-1.246094 0.155793,0 0.311005,-0.156707 0.466797,-0.3125 0.467378,-0.155792 1.091216,-0.467711 1.558594,-0.779297 h 0.310547 c 1.402133,-0.778962 2.804898,-1.24597 4.207031,-1.86914 0.311585,0 0.623962,-0.15625 0.935547,-0.15625 3.115851,-1.090548 6.230309,-1.71231 9.501953,-2.179688 z m 86.464842,5.763672 c -11.06127,4.206399 -14.48842,2.492275 -21.1875,4.517578 -5.14115,1.557926 -9.19091,4.985007 -11.68359,9.191406 0.93475,1.557926 1.86947,3.11636 2.64844,4.830079 5.76432,-2.960059 11.68456,-2.804775 16.66992,-4.830079 4.82957,-2.025303 8.56737,-6.386733 13.55273,-13.708984 z m -54.52734,4.517578 c 0.15579,0 0.31146,0.3125 0.62304,0.3125 h 0.46876 c 0.62317,0 1.08926,0.310547 1.55664,0.310547 0.15579,0 0.46725,-0.154297 0.62304,-0.154297 0.31159,0.155793 0.62351,0.777344 0.7793,0.777344 0.15579,0.155793 0.46771,0 0.7793,0 16.51401,14.177123 21.18727,36.924614 12.46289,55.15234 h -0.4668 c -0.15579,0 -0.15671,-0.31192 -0.3125,-0.77929 -0.15579,-0.1558 -0.4668,-0.46726 -0.4668,-0.62305 -0.15579,-0.15579 -0.15625,-0.31146 -0.15625,-0.62305 -0.15579,-0.46737 -0.311,-0.78067 -0.46679,-1.24804 0,-0.62317 -0.15625,-1.40073 -0.15625,-2.17969 -0.31159,-0.46738 -1.40177,-0.62442 -1.86914,-1.0918 -0.1558,-0.15579 -0.31147,-0.46679 -0.62305,-0.46679 -0.15579,-0.1558 -0.31146,4.5e-4 -0.62305,0.15624 h -0.93554 c -0.31159,0.1558 -0.62201,0.31055 -0.9336,0.31055 -0.62317,0 -1.09167,-0.46679 -1.71484,-0.46679 h -0.77735 c -0.93475,-0.1558 -1.71472,-0.46726 -2.33789,-0.62305 -0.46737,-0.15579 -0.93451,-0.3125 -1.24609,-0.3125 -0.31159,-0.15579 -0.77826,-0.46588 -1.08984,-0.1543 0,0.31159 0.311,0.46726 0.46679,0.62305 l 0.62305,0.62304 c 0.46738,0.46738 1.09109,1.40098 2.18164,0.9336 0.15579,0 0.46725,-0.31055 0.62305,-0.31055 0.93475,-0.15579 1.55709,0.46668 1.71289,1.08985 0.15579,0.15579 4.5e-4,0.31146 0.15625,0.62304 0,0.31159 0.15475,0.77872 0.31054,1.2461 0,0.15579 0.15625,0.3125 0.15625,0.3125 -0.15579,0.46737 -0.6235,0.62396 -0.77929,0.93554 -0.31159,0.1558 -0.62201,0.62201 -0.9336,0.9336 -0.15579,0.15579 -0.311,0.1567 -0.46679,0.3125 l -0.46875,0.46679 c -0.31159,0.31159 -0.77826,0.46726 -1.08985,0.62305 -0.31158,0.31159 -0.62396,0.6235 -0.93554,0.7793 -0.1558,0.15579 -0.62201,0.15475 -0.9336,0.31054 -0.15579,0 -0.46725,0.15671 -0.62304,0.3125 -0.62317,0 -1.24793,-0.15579 -1.8711,0 -0.15579,0 -0.46725,0.15625 -0.62305,0.15625 -0.31158,0 -0.9345,-0.3125 -1.24609,-0.3125 -0.46738,-0.15579 -0.7778,-0.31146 -0.93359,-0.62304 v -1.40235 c -0.1558,-0.62317 -4.6e-4,-1.24597 -0.15625,-1.86914 -0.1558,-1.40213 -1.09018,-2.18093 -1.86914,-3.27148 -0.1558,-0.15579 -0.31296,-0.31146 -0.46875,-0.62305 -0.1558,0 -0.1543,-0.311 -0.1543,-0.46679 L 117,106.10938 c 0,-0.1558 -4.6e-4,-0.46726 -0.15625,-0.62305 0,-0.15579 -0.15475,-0.31146 -0.31055,-0.62305 v -0.4668 c -0.15579,-0.15579 -0.3125,-0.31146 -0.3125,-0.62304 -0.15579,-0.1558 -0.15429,-0.46726 -0.15429,-0.62305 -0.1558,-0.31158 -0.625,-0.62442 -0.625,-1.0918 -0.31159,-0.31158 -0.46576,-0.6235 -0.77735,-0.77929 -0.46738,0.31158 -0.001,1.40371 -0.46875,1.87109 -0.62317,-0.15579 -0.77917,-0.7793 -1.40234,-0.7793 -0.31159,0.46738 0.3125,0.77872 0.3125,1.2461 0.31158,0.62317 0.62396,1.08926 0.93555,1.55664 0.46737,0.62317 0.622,1.09167 0.93359,1.71484 0.46738,0.46738 0.77975,0.77826 0.93555,1.08985 0.15579,0.15579 0.15625,0.31295 0.15625,0.46875 0,0.15579 0.15429,0.15475 0.15429,0.31054 0.1558,0.31159 0.15625,0.62351 0.15625,0.7793 0.1558,0.31158 0.31101,0.77826 0.4668,1.08984 0.15579,0.46738 0.15671,0.93497 0.3125,1.40235 v 0.62304 l 0.4668,0.46875 c 0.15579,0.1558 0.1567,0.31101 0.3125,0.4668 0.15579,0.31159 0.6235,0.77872 0.77929,1.24609 0.31159,0.31159 0.30997,0.77976 0.77735,0.93555 0.46738,-0.15579 0.77871,0.1543 1.24609,0.1543 h 0.46875 c 0.46738,0.15579 1.08926,0.31296 1.55664,0.46875 0.46738,0 1.09076,0.15521 1.40235,0.4668 0,0.31158 -0.46576,0.46771 -0.77735,0.77929 -0.31158,0.15579 -0.46771,0.31146 -0.77929,0.62305 -0.46738,0.31158 -0.93497,0.62246 -1.40235,1.08984 -0.15579,0 -0.15671,0.15671 -0.3125,0.3125 -0.62317,0.46738 -1.40072,0.62351 -2.17969,0.7793 -0.62317,0.46738 -0.77917,1.08926 -1.40234,1.55664 -0.15579,0 -0.3125,0.3125 -0.3125,0.3125 -0.15579,0.15579 -0.46725,0.1543 -0.62305,0.1543 -0.46737,0.31158 -0.77871,0.77975 -1.24609,0.93554 -0.31159,0.1558 -0.62396,0.15522 -0.93555,0.4668 -0.31158,0.31159 -0.311,0.77872 -0.46679,1.24609 -0.1558,0.31159 -0.31101,0.46772 -0.4668,0.7793 -0.15579,0.31159 -0.31146,0.93497 -0.62305,1.40235 0,0.15579 -0.15671,0.31146 -0.3125,0.62304 0,0.15579 -4.6e-4,0.31296 -0.15625,0.46875 0,0.15579 -0.15475,0.31101 -0.31054,0.4668 -0.31159,0.62317 -0.31147,1.40176 -0.62305,1.86914 -0.15579,0.46738 -0.93497,0.93405 -1.40235,1.08984 -0.46737,0.46738 -0.93496,0.62396 -1.40234,0.93555 -0.15579,0.31159 -0.311,0.46771 -0.4668,0.7793 -0.46737,0.31158 -0.62292,1.08926 -1.24609,1.55664 -0.46738,1.09055 -1.40222,1.86993 -2.02539,2.80468 -0.31159,0.1558 -0.62396,0.15626 -0.93555,0.15626 h -0.15625 c -0.31158,0.15579 -0.62201,0.15624 -0.93359,0.15624 h -0.15625 c -0.31159,0 -0.62396,0.15626 -0.93555,0.15626 h -0.15429 -0.93555 -0.3125 c -0.311587,0.15579 -0.621553,0.15429 -0.777346,0.15429 h -0.3125 -0.779296 -0.466797 -0.779297 -0.310547 -0.779297 -0.3125 c -0.311585,0 -0.467712,-0.15429 -0.779297,-0.15429 h -0.466797 -0.623047 -0.466797 c -0.155792,-0.93476 0.154297,-1.71369 0.154297,-2.64844 0.155793,-0.1558 0,-0.46771 0,-0.7793 0,-0.62317 0.469208,-1.24597 0.625,-1.86914 0.155793,-0.93476 -4.57e-4,-1.86947 -0.15625,-2.64844 0,-0.31158 -4.57e-4,-0.6235 -0.15625,-0.77929 -0.155792,-0.77897 -0.623047,-1.40268 -0.623047,-2.18165 -0.467377,-0.46737 -0.467711,-1.24551 -0.779296,-1.71289 0.311585,-0.93475 0.311461,-1.86993 0.623046,-2.80468 0.155793,-0.31159 0.3125,-0.62351 0.3125,-0.7793 0,-0.31159 -4.57e-4,-0.62396 -0.15625,-0.93555 0,-0.31158 0.155793,-0.62155 0,-0.77734 0,-0.31159 -0.15625,-0.62396 -0.15625,-0.93555 -0.155792,-1.09055 0.311005,-1.86947 0.466797,-2.64843 0,-0.31159 4.58e-4,-0.46726 0.15625,-0.62305 0,-0.15579 0.15625,-0.31101 0.15625,-0.4668 0.155793,-0.15579 0.15625,-0.46921 0.15625,-0.625 0.155793,-0.31158 0.466797,-0.62155 0.466797,-0.77734 0,-0.31159 -0.623504,-0.77976 -0.779297,-0.93555 -0.155792,-0.15579 -0.154754,-0.46725 -0.310547,-0.62305 -0.155792,-0.31158 -0.467254,-0.46771 -0.623046,-0.77929 -0.155793,-0.1558 -0.156708,-0.31101 -0.3125,-0.4668 -0.155793,-0.15579 -0.310547,-0.15671 -0.310547,-0.3125 -0.155793,-0.15579 -0.157165,-0.46725 -0.46875,-0.62305 -0.311585,-0.31158 -0.779174,-0.15475 -1.402344,-0.31054 -0.311585,0 -0.622009,-0.15625 -0.933594,-0.15625 -0.155792,0 -0.311004,0.15579 -0.466797,0 -0.311585,0 -0.623961,-0.15671 -0.935546,-0.3125 -0.778963,-0.1558 -1.558928,-0.31055 -2.337891,-0.31055 -0.311585,-1.09055 -0.934509,-2.18139 -1.246094,-3.42773 -0.155792,-0.1558 -0.310547,-0.46726 -0.310547,-0.62305 -0.155792,-0.46738 -0.156707,-0.93451 -0.3125,-1.2461 -0.155792,-0.46737 -0.466797,-0.77825 -0.466797,-1.08984 0.155793,-0.46738 0.311462,-0.78021 0.623047,-1.0918 0,-0.62317 0.467255,-1.09121 0.623047,-1.55859 v -0.623047 l 0.466797,-0.466797 c 0,-0.155792 4.57e-4,-0.467254 0.15625,-0.623047 0.155793,-0.311585 1.091216,-0.778258 1.558594,-1.089843 0.62317,-0.311586 1.089263,-0.62442 1.55664,-1.091797 l 2.337891,-1.402344 c 0.62317,-0.467378 0.779631,-0.778839 1.558594,-0.623047 0.467377,0 0.934508,0.46875 1.246093,0.46875 0.467378,-0.155792 0.466797,-0.623962 0.466797,-0.935547 0.311586,-0.311585 0.623047,-0.622923 0.623047,-1.246093 0.311585,-0.155793 0.311005,-0.156708 0.466797,-0.3125 0.778963,-0.311586 1.091674,-0.777802 1.714844,-0.933594 0.467378,-0.311585 1.401305,-1.246341 1.712891,0 0.311585,0.311585 0.778716,0.311004 1.246093,0.466797 0.311585,0.155792 0.467709,0.466797 0.779299,0.466797 0.46738,0.155792 1.09121,0.156707 1.55859,0.3125 0.31159,0 0.62201,0.311004 0.9336,0.466796 0.15579,0.311586 0.46875,0.46817 0.46875,0.935547 0,0.311585 -0.3125,0.467712 -0.3125,0.779297 0.15579,0.467378 0.46725,0.467712 0.62304,0.779297 0.31159,0.155793 0.62396,0.622466 0.93555,1.089844 0.31158,0.311585 0.62247,0.934051 1.08984,1.089843 0.31159,0 0.46771,-0.310546 0.7793,-0.310546 0.62317,0 0.93451,0.466216 1.24609,0.933593 0.77897,0.311586 1.55744,0.467255 2.49219,0.623047 0.31159,0 0.46771,0.15625 0.7793,0.15625 0.46738,0.155793 0.93496,4.58e-4 1.40234,0.15625 0.62317,0.155793 1.09122,0.467254 1.5586,0.623044 0.46737,0 0.46725,-0.623959 0.62304,-0.935544 0.1558,-0.311585 0.4668,-0.465758 0.4668,-0.777344 0,-0.467377 -1.24701,-0.313414 -1.55859,-0.625 -0.62317,-0.467377 -0.62168,-1.556974 -0.1543,-2.335937 0.15579,-0.311585 0.46725,-0.311919 0.62305,-0.779297 -0.1558,-0.311585 -0.78022,-0.312042 -1.0918,-0.15625 -0.15579,0.62317 0.002,1.559051 -0.77735,1.714844 -0.31158,0.155792 -0.6235,0 -0.77929,0 h -0.62305 c -0.31158,-0.155793 -0.62305,-1.247466 -0.62305,-1.714844 0,-0.467378 0.1558,-0.934966 0,-1.402344 -0.15579,-0.311585 -0.31146,-0.467254 -0.62304,-0.623046 0,-0.467378 -0.15717,-0.777802 -0.46875,-0.933594 -0.46738,0.467377 0.1567,0.778258 0.3125,1.089844 0.15579,1.090547 0.62271,2.337309 -0.15625,2.804687 -0.77897,-0.311585 -0.93497,9.15e-4 -1.40235,0.3125 -0.31158,0.311585 -0.46771,0.623047 -0.77929,0.623047 -0.46738,0 -0.77884,-0.624419 -0.62305,-1.091797 0,-0.467378 1.24609,-0.934966 1.24609,-1.402344 0,-0.311585 -0.311,-0.467711 -0.46679,-0.779297 v -0.623046 c -0.1558,-0.311586 -0.31055,-0.621552 -0.31055,-0.777344 v -0.46875 c 0,-0.311585 -0.3125,-0.778259 -0.3125,-1.089844 -0.31159,-0.62317 -0.93393,-0.156707 -1.71289,-0.3125 -0.31159,0 -0.31296,-0.465759 -0.46875,-0.777344 -0.93476,-0.155792 -0.93497,0.465759 -1.40234,0.777344 -0.1558,0.155793 -0.46576,0.312957 -0.77735,0.46875 -0.15579,0.155793 -0.46725,0.311004 -0.62304,0.466797 -0.31159,0.155792 -0.46772,0.623047 -0.7793,0.623047 -0.46738,0.155792 -0.93451,-0.311005 -1.246096,-0.466797 -0.467377,-0.311585 -0.936004,-0.467712 -1.091796,-0.779297 0,-1.090548 -0.622467,-1.24597 -1.089844,-1.869141 0,-0.62317 0.467254,-0.778716 0.623047,-1.246093 0.155792,-0.155793 0.155211,-0.467712 0.466797,-0.779297 l 0.623046,-0.623047 c 0.155793,-0.155793 0.156708,-0.312958 0.3125,-0.46875 l 0.466797,-0.466797 c 0.311589,-0.311585 0.622469,-0.622132 1.089849,-0.310547 0.15579,0 0.31295,0.311004 0.46874,0.466797 0.31159,0.311585 0.15613,1.091339 0.7793,0.935547 0.46738,0 0.4668,-0.313415 0.4668,-0.625 0,-0.155793 -4.6e-4,-0.622009 -0.15625,-0.933594 0,-0.155792 -0.4668,-0.467254 -0.4668,-0.623047 0,-0.311585 0.31101,-1.090301 0.4668,-1.246093 0.46738,-10e-7 0.77871,0.467254 1.24609,0.623046 0.31159,0 0.46726,-0.15625 0.62305,-0.15625 0.31158,0.155793 0.46771,0.466797 0.7793,0.466797 0.31158,0.155793 0.78021,0 1.09179,0 0.46738,-0.155792 0.77826,-0.15625 1.08985,-0.15625 0.15579,-0.155792 0.15475,-0.311004 0.31054,-0.466797 0.31159,-0.311585 0.62442,-0.622008 1.0918,-0.933593 0.31159,0 0.46725,0.154754 0.62305,0.310547 0.46738,-0.623171 1.08972,-0.934967 1.71289,-1.402344 0,-0.311585 -0.62305,-0.311919 -0.62305,-0.779297 0.15579,-0.155793 0.77976,-0.467254 0.93555,-0.623047 0.15579,-0.155793 0.311,-0.467254 0.46679,-0.623047 0.31159,-0.155792 0.46772,-0.154754 0.7793,-0.310547 0.15579,-0.155792 0.46726,-0.311461 0.62305,-0.623047 0.31158,-0.155792 0.6235,-0.312957 0.7793,-0.46875 0.46737,-0.311585 0.62246,-0.777801 1.08984,-0.933593 0.31158,-0.155793 0.46771,-0.467255 0.7793,-0.623047 0.46737,0 0.93496,0.311461 1.40234,0.623047 0.31159,0.155792 0.77872,0.311004 1.24609,0.466796 0.1558,0.155793 0.15671,0.311005 0.3125,0.466797 0.1558,0 0.46726,0.15625 0.62305,0.15625 0.31159,0.311586 0.62247,0.624086 1.08984,0.3125 0.1558,-0.311585 -0.15625,-0.623961 -0.15625,-0.935547 0,-0.467377 0.15671,-1.090301 0.3125,-1.246093 0.1558,-0.311585 0.31101,-0.311462 0.4668,-0.623047 0.15579,-0.155793 0.15671,-0.311004 0.3125,-0.466797 0.15579,-0.311585 0.62305,-0.936462 0.62305,-1.248047 0.15579,-0.311585 0,-0.467254 0,-0.623047 0.15579,-0.311585 0.311,-0.622466 0.46679,-1.089843 0,-0.155793 0.15626,-0.311005 0.15626,-0.466797 0,-0.311586 0.15429,-0.467255 0.15429,-0.623047 0.15579,-0.311585 0.31296,-0.312958 0.46875,-0.46875 0,-0.155793 0.15625,-0.465759 0.15625,-0.777344 0.15579,-0.467378 0.15521,-0.935423 0.4668,-1.558594 -0.31159,-0.62317 0.15625,-1.091673 0.15625,-1.714844 0,-0.311585 -0.31296,-0.622008 -0.46875,-0.933593 0,-0.311585 0.15625,-0.778259 0.15625,-1.089844 0,-0.62317 -0.4668,-1.402678 -0.4668,-2.181641 -0.46738,-0.467377 -1.24746,-0.468169 -1.71484,-0.935546 -0.77896,-0.311586 -1.71244,-0.466093 -1.55664,-1.556641 -0.31159,-0.62317 -1.24668,-0.780088 -0.7793,-1.714844 0.46738,-0.155792 1.24506,-0.155669 1.55664,-0.623047 0.31159,0.155793 0.46771,-0.15625 0.7793,-0.15625 z m -96.154299,2.042969 c -2.505784,0.04926 -5.353556,0.644628 -8.693359,2.007813 8.257006,4.050606 12.306692,8.881527 16.980469,10.439453 5.141154,1.713718 6.544515,0.155669 11.0625,0.623047 0.311585,-1.090548 0.778716,-2.025725 1.246093,-2.804688 C 38.899634,65.379862 34.31251,58.589712 25.363281,58.765625 Z m 79.431639,3.970703 c 0.27751,-0.01461 0.59834,0.101906 0.83203,0.21875 0.77897,0 1.86902,-0.155335 2.49219,0.15625 0.15579,0.778963 -0.15488,1.869475 0.3125,2.648438 0,0.155792 0.46725,-0.0015 0.62305,0.154296 -0.1558,0.467378 -0.62247,0.779755 -1.08985,0.935547 -0.15579,0.155793 -0.31295,0.466797 -0.46875,0.466797 -0.93475,0.778963 -2.02377,1.559385 -2.80273,2.494141 0.31158,1.557926 -1.24643,0.466797 -2.02539,0.466797 -0.31159,-0.155793 -0.62442,4.57e-4 -1.0918,0.15625 h -0.77929 c -0.31159,0 -0.46726,0.154297 -0.62305,0.154297 h -0.623049 c -0.155792,0 -0.622008,0.312957 -0.933593,0.46875 -0.311586,0.155792 -0.623505,0.467254 -0.779297,0.623047 -0.311586,0.155792 -0.467255,0.15625 -0.623047,0.15625 -0.467378,0.311585 -0.622924,0.623046 -1.246094,0.623046 -0.155793,-0.311585 0.154297,-0.778716 0.154297,-1.246093 0.311585,-0.467378 0.312957,-1.247924 0.46875,-1.871094 0.155792,-0.155793 0.154754,-0.467254 0.310547,-0.623047 0.467377,-0.155793 1.090758,-0.155212 1.402344,-0.466797 0.311585,-0.155792 0.623961,-0.467712 0.935546,-0.779297 0.623171,-0.467377 1.089716,-0.935423 1.712886,-1.558594 0.62318,-0.467377 1.55802,-0.77722 2.0254,-1.40039 0.31158,-0.311585 0.46771,-0.936462 0.77929,-1.248047 0.1558,-0.155793 0.62351,-0.466797 0.7793,-0.466797 0.0779,-0.03895 0.16531,-0.05763 0.25781,-0.0625 z M 14.638672,63.189453 C 11.586111,63.10182 7.7890113,63.888883 3.1152344,65.291016 8.5679741,68.095282 14.956712,72.924918 21.5,77.287109 c 7.166458,4.985362 13.553788,6.543463 20.564453,4.050782 0.155793,-1.402133 0.466216,-2.802945 0.933594,-4.205079 C 29.444094,74.640131 26.01781,65.915013 17.449219,63.578125 16.59236,63.344436 15.656192,63.218664 14.638672,63.189453 Z m 155.175778,1.478516 c -8.10121,7.166458 -12.93181,6.544217 -16.98242,7.634765 -2.0253,0.623171 -4.20587,2.336272 -5.14062,3.115235 0.46737,1.24634 0.93496,2.64819 1.40234,3.894531 9.50335,0.155793 17.29327,-6.07594 20.7207,-14.644531 z m -66.67968,11.529297 c 0.31158,0.155792 0.46771,0.311004 0.77929,0.466796 0.46738,0.311586 1.08985,0.156585 1.08985,0.935547 0,0.311586 -0.46772,0.779755 -0.7793,0.935547 -0.15579,0.155793 -0.311,0.154755 -0.4668,0.310547 -0.46738,0.467378 -0.15567,0.934509 -0.62304,1.246094 -0.77897,-0.155793 -2.96094,-0.155088 -2.96094,-1.089844 0,-0.467378 0.31192,-0.623047 0.77929,-0.623047 0.62318,-0.467377 0.15567,-1.090758 0.62305,-1.402344 0,-0.155792 0.31146,-0.156707 0.62305,-0.3125 0.46738,-0.155792 0.46817,-0.466796 0.93555,-0.466796 z m 3.96484,0.01563 c 0.17283,-0.01461 0.35799,0.02378 0.55273,0.140625 0,0.311585 -0.15579,0.467254 0,0.623046 0.1558,0.155793 0.31147,-0.15625 0.62305,-0.15625 0.46738,0 0.77872,0.3125 1.24609,0.3125 0.31159,0.623171 0.46738,1.245056 0,1.556641 -0.31158,0.311585 -1.09075,0.312958 -1.40234,0.46875 -0.46738,0.311585 -0.31146,1.245513 -0.62305,1.712891 0.31159,0.467377 0.15683,1.247008 -0.31054,1.558594 h -1.08985 c -0.31158,-10e-7 -0.6235,0.154296 -0.77929,0.154296 -0.31159,0 -0.62397,-0.310546 -0.93555,-0.310546 -0.46738,-0.155793 -0.93451,0.15625 -1.24609,0.15625 -0.31159,-0.155793 -0.46772,-0.3125 -0.7793,-0.3125 -0.46738,-0.311586 -0.93359,-0.311462 -0.93359,-0.623047 -1e-5,-0.311586 0.15475,-0.623505 0.31054,-0.779297 0.46738,-0.311585 1.24551,0.156831 1.71289,-0.310547 0.1558,0 0.15671,-0.312958 0.3125,-0.46875 0.1558,-0.155793 0.46726,-0.154754 0.62305,-0.310547 0.15579,-0.155793 0.15521,-0.623504 0.4668,-0.779297 h 0.93554 c 0,-0.311585 -0.15487,-0.778258 0.3125,-1.089844 -0.15579,-0.155792 -0.15625,-0.311461 -0.15625,-0.623047 0.23369,-0.350533 0.64166,-0.876105 1.16016,-0.919921 z m 8.6543,2.945312 c -0.1558,0.155793 -0.31147,0.154754 -0.62305,0.310547 l -0.93555,0.466797 c -0.15579,0.311585 -0.15475,0.467254 -0.31054,0.623047 0,0.155792 -0.15625,0.312957 -0.15625,0.46875 0,0 -4.6e-4,0.15625 -0.15625,0.15625 0,0.155792 -4.6e-4,0.311004 -0.15625,0.466797 -0.31159,0.62317 -0.93393,0.623504 -1.7129,0.779297 0,0 -0.15475,-0.0015 -0.31054,0.154296 -0.15579,0.311586 -10e-4,0.467255 0.1543,0.623047 0.15579,0.155793 0.3125,0.312958 0.3125,0.46875 0.15579,0.155793 0.15624,0.310547 0.15624,0.310547 0.1558,0.155793 0.1543,0.3125 0.1543,0.3125 l 0.3125,-0.3125 0.31055,-0.310547 c 0.15579,0 0.31296,-0.156707 0.46875,-0.3125 0.15579,-0.155792 0.311,-0.15625 0.4668,-0.15625 0.15579,-0.155792 0.311,0 0.46679,0 h 0.15625 0.62305 c 0.15579,-0.155792 0.46725,-0.154297 0.62305,-0.154297 h 0.3125 c 0,0.155793 0.15625,0.154297 0.15625,0.154297 l 0.31054,-0.310547 c 0,0 0.15671,-0.15625 0.3125,-0.15625 0.1558,-0.155792 0.31055,-0.15625 0.31055,-0.15625 0.15579,-0.155792 0.3125,-0.154297 0.3125,-0.154296 0.0813,-0.08128 0.11944,-0.161548 0.16016,-0.220704 -0.16742,0.06302 -0.39847,0.06445 -0.62891,0.06445 -0.62317,-0.155793 -0.77826,-0.934967 -1.08984,-1.402344 v -0.3125 l -0.15625,-0.310547 0.15625,-0.15625 c 0.15579,-0.155793 0.46771,-0.311004 0.77929,-0.466797 0,-0.155793 0.15625,-0.15625 0.15625,-0.15625 h -0.3125 c -0.15579,0 -0.311,-0.15625 -0.46679,-0.15625 -0.1558,0 -0.15625,-0.154297 -0.15625,-0.154297 z m 1.71875,3.050781 c 0.0589,-0.02219 0.10982,-0.05123 0.15039,-0.0918 -0.0745,0 -0.11307,0.03756 -0.15039,0.0918 z m -5.86914,-2.060546 c -0.063,0.01004 -0.13305,0.04119 -0.21094,0.09961 0.15579,0.311585 -10e-4,0.934051 0.31054,1.089844 0.40896,-0.272637 0.3413,-1.259743 -0.0996,-1.189454 z m 49.73632,3.15039 c -4.44739,0.03651 -8.39001,1.233319 -10.84375,2.869141 0.31159,2.025303 0.46726,4.207118 0.62305,6.232422 5.60853,-1.402133 8.25612,1.556974 14.33203,2.335937 6.07591,0.778963 14.33379,-0.934436 20.25391,-6.542969 -8.25701,0.155793 -11.52815,-3.271237 -19.78516,-4.517578 -1.55792,-0.272637 -3.09761,-0.389124 -4.58008,-0.376953 z M 28.339844,87.632812 c -0.778355,-0.01065 -1.602183,0.01585 -2.478516,0.09375 -5.920117,0.467378 -10.28292,1.557977 -14.177734,4.673829 7.166458,-0.311586 11.997394,2.336852 17.761718,2.648437 4.050607,0.155793 7.632988,-1.403346 11.683594,-3.740234 0,-0.934756 4.58e-4,-1.869475 0.15625,-2.648438 -4.225873,0.95423 -7.496832,-0.952794 -12.945312,-1.027344 z m 88.037106,6.636719 c -0.15579,0 -0.31054,0.154755 -0.31054,0.310547 -0.1558,0.155793 -0.3125,0.156708 -0.3125,0.3125 v 0.310547 c 0,0.155793 0.15625,0.312957 0.15625,0.46875 0,0 0.15475,0.15625 0.31054,0.15625 0.31159,0.155793 0.62396,0.154754 0.93555,0.310547 h 0.31055 c 0,0 4.5e-4,0.15625 0.15625,0.15625 h 0.77929 c 0.1558,0 0.31147,-0.15625 0.62305,-0.15625 v -0.15625 c 0.15579,0 0.311,-0.154297 0.4668,-0.154297 v -0.3125 c -0.46738,0 -0.77826,-0.15625 -1.08985,-0.15625 -0.31158,-0.155793 -0.62396,-0.15625 -0.93554,-0.15625 -0.46738,-0.155793 -0.62155,-0.311462 -0.77735,-0.623047 z M 15.628906,95.085938 C 11.58138,95.09963 6.7185543,96.489714 0,100.96875 c 14.800294,3.27164 25.705653,11.99624 42.53125,1.40234 -0.467378,-1.86951 -0.779754,-3.73986 -0.935547,-5.609371 -12.103135,4.926941 -17.06224,-1.705905 -25.966797,-1.675781 z m 144.994144,1.208984 c -3.58323,0 -7.01169,0.621885 -9.66016,1.55664 -0.15579,1.246341 -0.15521,2.493898 -0.4668,3.740238 8.88018,1.55792 17.13616,0.46674 24.92579,-4.207034 -4.67378,0.311585 -10.12506,-1.089844 -14.79883,-1.089844 z m -5.95508,12.015628 c -2.30677,0.031 -4.42616,0.32984 -5.88672,0.91406 -0.31159,1.24634 -0.62247,2.33719 -1.08984,3.42773 2.18109,0.46738 4.36187,1.24585 6.54297,2.49219 2.18109,1.09055 4.36233,2.80478 6.69921,4.83008 5.14116,4.51798 10.7494,7.32242 21.1875,4.05078 -9.19176,-5.76432 -12.46306,-11.68368 -16.51367,-13.70898 -2.72637,-1.36319 -7.09484,-2.05759 -10.93945,-2.00586 z m -9.00195,9.01562 c -0.62317,1.09055 -1.09018,2.18094 -1.86914,3.27149 7.01066,5.14115 13.55338,9.50382 25.08203,7.47851 -4.51799,-2.0253 -7.78936,-4.98538 -11.2168,-7.32226 -3.27164,-2.02531 -7.01073,-3.58353 -11.99609,-3.42774 z m -6.54297,9.97071 c -0.93476,1.09054 -1.86994,2.18243 -2.80469,3.11718 3.73902,2.49268 8.72412,7.01036 11.2168,13.86524 1.71371,4.98536 8.88071,11.21676 19.47461,13.86523 -5.29695,-6.38749 -5.92105,-10.12713 -7.63477,-14.17773 -1.71372,-4.2064 -3.73742,-7.94503 -8.09961,-11.83985 -3.42744,-2.96006 -9.03649,-4.67428 -12.15234,-4.83007 z m -7.32227,7.16601 c -0.77896,0.62317 -1.55743,1.24792 -2.49219,1.87109 3.42744,3.11586 5.13968,6.54294 7.47657,9.19141 3.27164,3.89481 7.32332,5.91943 14.33398,8.41211 -4.36219,-4.51798 -5.45284,-9.50304 -9.34766,-13.86523 -2.64847,-3.11586 -7.16643,-4.20725 -9.9707,-5.60938 z"
         style="fill:#67b437;fill-rule:nonzero;stroke-width:0.15579256" /><path
         id="path9-3"
         d="m 1556.9401,321.31246 c -32.1583,-9.89488 -71.7378,-17.31579 -111.3174,-17.31579 -138.5284,0 -222.6349,86.58025 -222.6349,210.26606 0,121.21234 74.2117,195.42423 200.3715,195.42423 47.0007,0 96.4751,-9.89488 136.0546,-24.73746 V 494.47296 h -81.6328 v 133.58096 c -14.8424,4.94768 -29.6847,7.42115 -47.0007,7.42115 -76.6854,0 -118.7386,-47.0007 -118.7386,-126.15954 0,-84.10676 51.9481,-133.58119 128.6335,-133.58119 37.1058,0 71.7378,7.42141 103.8962,19.78977 z m 242.4248,86.58025 c -51.9482,-4.94719 -79.1591,24.73721 -94.0014,61.84328 v 0 c 2.4737,-19.78977 2.4737,-42.05351 2.4737,-56.89558 h -74.2117 V 702.2658 h 81.6328 V 583.52718 c 0,-76.68536 24.7373,-108.84399 79.1591,-96.47514 z m 286.9516,131.10723 c 0,-74.21163 -37.1057,-131.10723 -123.686,-131.10723 -89.054,0 -138.5284,64.31675 -138.5284,153.37072 0,101.42283 51.9482,148.42353 145.9496,148.42353 37.1058,0 74.2115,-7.42116 106.3699,-19.78977 l -7.4211,-61.84327 c -27.211,12.36885 -56.8956,19.78976 -86.5803,19.78976 -49.4744,0 -76.6854,-24.73696 -76.6854,-74.21139 h 178.108 c 2.4737,-12.36886 2.4737,-24.73746 2.4737,-34.63235 z m -178.1079,-19.78951 c 2.4738,-32.15839 22.2635,-54.42212 51.9482,-54.42212 29.6846,0 47.0007,19.78976 47.0007,54.42212 z m 479.9019,19.78951 c 0,-74.21163 -39.5795,-131.10723 -123.6861,-131.10723 -89.0538,0 -138.5284,64.31675 -138.5284,153.37072 0,101.42283 51.9483,148.42353 145.9497,148.42353 37.1057,0 71.7378,-7.42116 103.8962,-19.78977 l -7.4211,-61.84327 c -24.7373,12.36885 -54.4219,19.78976 -84.1065,19.78976 -51.9482,0 -76.6854,-24.73696 -76.6854,-74.21139 h 178.1079 c 0,-12.36886 2.4737,-24.73746 2.4737,-34.63235 z m -178.1079,-19.78951 c 2.4737,-32.15839 22.2635,-54.42212 51.9481,-54.42212 29.6847,0 47.0007,19.78976 44.527,54.42212 z M 2702.2731,702.2658 V 499.42065 c 0,-49.47443 -19.7897,-91.52794 -86.5802,-91.52794 -47.0007,0 -79.159,22.26374 -96.4752,54.42187 v 0 c 2.4738,-14.84208 2.4738,-37.10581 2.4738,-49.47417 h -74.2116 V 702.2658 h 79.159 V 563.73741 c 0,-49.47468 27.211,-89.05422 64.3168,-89.05422 24.7372,0 32.1584,17.31605 32.1584,44.52724 V 702.2658 Z m 465.0595,-272.10935 c 0,-79.15907 -51.948,-123.68606 -150.8969,-123.68606 -39.5794,0 -76.6853,2.47348 -108.8437,2.47348 V 702.2658 h 81.6328 V 568.6846 h 24.7372 c 96.4752,0 153.3706,-61.84278 153.3706,-138.52815 z m -84.1064,4.9472 c 0,42.05351 -29.6846,64.317 -74.2116,66.79047 -4.9475,0 -12.3686,-2.47347 -19.7898,-2.47347 V 373.26087 h 24.7372 c 49.4744,0 69.2642,24.73696 69.2642,61.84278 z m 356.2159,267.16215 c -2.4739,-22.26349 -2.4739,-49.47442 -2.4739,-71.73817 v -121.2121 c 0,-64.317 -27.2108,-103.89654 -123.6859,-103.89654 -37.1058,0 -74.2117,7.42142 -103.8963,17.3163 l 7.4212,69.26395 c 24.7371,-14.84208 59.3693,-22.26325 86.5802,-22.26325 39.5796,0 54.4219,12.36837 54.4219,42.05302 v 12.3686 c -96.4751,0 -165.7394,37.10582 -165.7394,106.37002 0,47.00071 29.6847,79.15933 81.6329,79.15933 42.0532,0 79.1591,-22.26374 91.5276,-54.42211 v 2.47372 c 0,12.36886 -2.4737,29.68465 -2.4737,44.52723 z m -81.6328,-118.73862 c 0,32.15837 -22.2635,64.3165 -56.8958,64.3165 -22.2633,0 -34.6319,-12.36861 -34.6319,-29.68466 0,-22.26324 17.316,-42.05301 91.5277,-42.05301 z m 324.0574,-175.63447 c -54.4218,-4.94719 -81.633,24.73721 -96.4751,61.84328 v 0 c 4.9472,-19.78977 4.9472,-42.05351 4.9472,-56.89558 h -76.6853 V 702.2658 h 81.633 V 583.52718 c 0,-76.68536 27.211,-108.84399 81.6326,-96.47514 z m 210.2664,230.05609 c -9.8951,2.47397 -19.7901,4.94768 -29.6849,4.94768 -24.737,0 -32.1581,-9.89488 -32.1581,-47.0007 V 474.68319 h 66.7904 v -61.84278 h -69.2641 V 303.99667 l -79.1591,22.26349 v 86.58025 h -47.0007 v 61.84278 h 47.0007 v 143.47583 c 0,66.79048 19.7897,91.52794 86.5802,91.52794 19.7898,0 44.527,-2.47397 64.3167,-7.42116 z m 319.11,-225.10839 h -84.1065 l -32.1585,89.05371 c -9.895,27.21094 -22.2634,66.79048 -27.2108,94.00166 v 0 c -7.4211,-27.21118 -14.8423,-56.89584 -24.7373,-81.63305 l -34.632,-101.42232 h -89.0539 l 106.3699,289.42539 -7.4211,22.26324 c -17.316,42.05351 -32.1584,54.42212 -56.8956,54.42212 -12.3687,0 -24.7372,0 -37.1058,-4.94769 l -7.4212,69.2642 c 12.3686,2.47396 27.2109,2.47396 37.1059,2.47396 74.2116,0 106.37,-32.15862 141.0019,-121.21259 z"
         class="fil1"
         style="clip-rule:evenodd;fill:#67b437;fill-rule:evenodd;stroke-width:2.47372127;image-rendering:optimizeQuality;shape-rendering:geometricPrecision;text-rendering:geometricPrecision" /></g></g></svg>