<?xml version="1.0" encoding="UTF-8" standalone="no"?>
<!-- Created with Inkscape (http://www.inkscape.org/) -->

<svg
   xmlns:dc="http://purl.org/dc/elements/1.1/"
   xmlns:cc="http://creativecommons.org/ns#"
   xmlns:rdf="http://www.w3.org/1999/02/22-rdf-syntax-ns#"
   xmlns:svg="http://www.w3.org/2000/svg"
   xmlns="http://www.w3.org/2000/svg"
   xmlns:sodipodi="http://sodipodi.sourceforge.net/DTD/sodipodi-0.dtd"
   xmlns:inkscape="http://www.inkscape.org/namespaces/inkscape"
   width="128.54843"
   height="60.6605"
   id="svg3789"
   version="1.1"
   inkscape:version="0.48.2 r9819"
   sodipodi:docname="New document 4">
  <defs
     id="defs3791">
    <linearGradient
       x1="0"
       y1="0"
       x2="1"
       y2="0"
       gradientUnits="userSpaceOnUse"
       gradientTransform="matrix(18.058029,0,0,-18.058029,369.71021,543.01221)"
       spreadMethod="pad"
       id="linearGradient3553">
      <stop
         style="stop-opacity:1;stop-color:#de891d"
         offset="0"
         id="stop3555" />
      <stop
         style="stop-opacity:1;stop-color:#fecb0e"
         offset="1"
         id="stop3557" />
    </linearGradient>
    <linearGradient
       x1="0"
       y1="0"
       x2="1"
       y2="0"
       gradientUnits="userSpaceOnUse"
       gradientTransform="matrix(18.749542,0,0,-18.749542,371.68384,548.81573)"
       spreadMethod="pad"
       id="linearGradient3533">
      <stop
         style="stop-opacity:1;stop-color:#de891d"
         offset="0"
         id="stop3535" />
      <stop
         style="stop-opacity:1;stop-color:#fecb0e"
         offset="1"
         id="stop3537" />
    </linearGradient>
    <linearGradient
       x1="0"
       y1="0"
       x2="1"
       y2="0"
       gradientUnits="userSpaceOnUse"
       gradientTransform="matrix(8.2905426,0,0,-8.2905426,352.56509,534.4637)"
       spreadMethod="pad"
       id="linearGradient3509">
      <stop
         style="stop-opacity:1;stop-color:#d4831b"
         offset="0"
         id="stop3511" />
      <stop
         style="stop-opacity:1;stop-color:#fecb0e"
         offset="0.908035"
         id="stop3513" />
      <stop
         style="stop-opacity:1;stop-color:#fecb0e"
         offset="0.908035"
         id="stop3515" />
      <stop
         style="stop-opacity:1;stop-color:#fecb0e"
         offset="1"
         id="stop3517" />
    </linearGradient>
    <linearGradient
       x1="0"
       y1="0"
       x2="1"
       y2="0"
       gradientUnits="userSpaceOnUse"
       gradientTransform="matrix(10.972122,0,0,-10.972122,347.16121,535.48569)"
       spreadMethod="pad"
       id="linearGradient3489">
      <stop
         style="stop-opacity:1;stop-color:#de831d"
         offset="0"
         id="stop3491" />
      <stop
         style="stop-opacity:1;stop-color:#fecb0e"
         offset="1"
         id="stop3493" />
    </linearGradient>
    <linearGradient
       x1="0"
       y1="0"
       x2="1"
       y2="0"
       gradientUnits="userSpaceOnUse"
       gradientTransform="matrix(-2.9954071,8.2298431,8.2298431,2.9954071,358.48744,541.69994)"
       spreadMethod="pad"
       id="linearGradient3465">
      <stop
         style="stop-opacity:1;stop-color:#de831d"
         offset="0"
         id="stop3467" />
      <stop
         style="stop-opacity:1;stop-color:#fecb0e"
         offset="0.834259"
         id="stop3469" />
      <stop
         style="stop-opacity:1;stop-color:#fecb0e"
         offset="0.834259"
         id="stop3471" />
      <stop
         style="stop-opacity:1;stop-color:#fecb0e"
         offset="1"
         id="stop3473" />
    </linearGradient>
    <linearGradient
       x1="0"
       y1="0"
       x2="1"
       y2="0"
       gradientUnits="userSpaceOnUse"
       gradientTransform="matrix(-5.8923187,16.189072,16.189072,5.8923187,359.02728,542.60149)"
       spreadMethod="pad"
       id="linearGradient3445">
      <stop
         style="stop-opacity:1;stop-color:#d4831b"
         offset="0"
         id="stop3447" />
      <stop
         style="stop-opacity:1;stop-color:#fecb0e"
         offset="1"
         id="stop3449" />
    </linearGradient>
    <linearGradient
       x1="0"
       y1="0"
       x2="1"
       y2="0"
       gradientUnits="userSpaceOnUse"
       gradientTransform="matrix(-8.1751404,22.460998,22.460998,8.1751404,361.83891,544.867)"
       spreadMethod="pad"
       id="linearGradient3423">
      <stop
         style="stop-opacity:1;stop-color:#ce8019"
         offset="0"
         id="stop3425" />
      <stop
         style="stop-opacity:1;stop-color:#fecb0e"
         offset="0.86116"
         id="stop3427" />
      <stop
         style="stop-opacity:1;stop-color:#fecb0e"
         offset="1"
         id="stop3429" />
    </linearGradient>
    <linearGradient
       x1="0"
       y1="0"
       x2="1"
       y2="0"
       gradientUnits="userSpaceOnUse"
       gradientTransform="matrix(32.971008,0,0,-32.971008,345.39307,545.00174)"
       spreadMethod="pad"
       id="linearGradient3399">
      <stop
         style="stop-opacity:1;stop-color:#de831d"
         offset="0"
         id="stop3401" />
      <stop
         style="stop-opacity:1;stop-color:#eda919"
         offset="0.272644"
         id="stop3403" />
      <stop
         style="stop-opacity:1;stop-color:#de891d"
         offset="0.518738"
         id="stop3405" />
      <stop
         style="stop-opacity:1;stop-color:#fecb0e"
         offset="1"
         id="stop3407" />
    </linearGradient>
    <linearGradient
       x1="0"
       y1="0"
       x2="1"
       y2="0"
       gradientUnits="userSpaceOnUse"
       gradientTransform="matrix(43.681824,36.653351,-36.653351,43.681824,352.95485,521.79739)"
       spreadMethod="pad"
       id="linearGradient3377">
      <stop
         style="stop-opacity:1;stop-color:#f69c20"
         offset="0"
         id="stop3379" />
      <stop
         style="stop-opacity:1;stop-color:#fecb0f"
         offset="0.583206"
         id="stop3381" />
      <stop
         style="stop-opacity:1;stop-color:#ffffff"
         offset="1"
         id="stop3383" />
    </linearGradient>
    <linearGradient
       x1="0"
       y1="0"
       x2="1"
       y2="0"
       gradientUnits="userSpaceOnUse"
       gradientTransform="matrix(43.737228,36.699951,-36.699951,43.737228,351.29019,523.78398)"
       spreadMethod="pad"
       id="linearGradient3355">
      <stop
         style="stop-opacity:1;stop-color:#f69c20"
         offset="0"
         id="stop3357" />
      <stop
         style="stop-opacity:1;stop-color:#fecb0f"
         offset="0.628372"
         id="stop3359" />
      <stop
         style="stop-opacity:1;stop-color:#ffffff"
         offset="1"
         id="stop3361" />
    </linearGradient>
    <linearGradient
       x1="0"
       y1="0"
       x2="1"
       y2="0"
       gradientUnits="userSpaceOnUse"
       gradientTransform="matrix(3.1322632,8.6058502,8.6058502,-3.1322632,355.0397,530.47197)"
       spreadMethod="pad"
       id="linearGradient3333">
      <stop
         style="stop-opacity:1;stop-color:#f69c20"
         offset="0"
         id="stop3335" />
      <stop
         style="stop-opacity:1;stop-color:#fecb0f"
         offset="0.667084"
         id="stop3337" />
      <stop
         style="stop-opacity:1;stop-color:#fecb0f"
         offset="1"
         id="stop3339" />
    </linearGradient>
    <linearGradient
       x1="0"
       y1="0"
       x2="1"
       y2="0"
       gradientUnits="userSpaceOnUse"
       gradientTransform="matrix(43.743378,36.705017,-36.705017,43.743378,345.93065,530.16566)"
       spreadMethod="pad"
       id="linearGradient3311">
      <stop
         style="stop-opacity:1;stop-color:#f69c20"
         offset="0"
         id="stop3313" />
      <stop
         style="stop-opacity:1;stop-color:#fecb0f"
         offset="0.134598"
         id="stop3315" />
      <stop
         style="stop-opacity:1;stop-color:#fecb0f"
         offset="1"
         id="stop3317" />
    </linearGradient>
    <linearGradient
       x1="0"
       y1="0"
       x2="1"
       y2="0"
       gradientUnits="userSpaceOnUse"
       gradientTransform="matrix(-78.324554,1.53e-5,-1.53e-5,-78.324554,382.76971,545.9041)"
       spreadMethod="pad"
       id="linearGradient3291">
      <stop
         style="stop-opacity:1;stop-color:#f7941d"
         offset="0"
         id="stop3293" />
      <stop
         style="stop-opacity:1;stop-color:#f7c628"
         offset="1"
         id="stop3295" />
    </linearGradient>
    <linearGradient
       x1="0"
       y1="0"
       x2="1"
       y2="0"
       gradientUnits="userSpaceOnUse"
       gradientTransform="matrix(10.9086,0,0,-10.9086,351.52345,545.87473)"
       spreadMethod="pad"
       id="linearGradient3269">
      <stop
         style="stop-opacity:1;stop-color:#f69c20"
         offset="0"
         id="stop3271" />
      <stop
         style="stop-opacity:1;stop-color:#fecb0f"
         offset="0.5"
         id="stop3273" />
      <stop
         style="stop-opacity:1;stop-color:#ffffff"
         offset="1"
         id="stop3275" />
    </linearGradient>
    <linearGradient
       x1="0"
       y1="0"
       x2="1"
       y2="0"
       gradientUnits="userSpaceOnUse"
       gradientTransform="matrix(-76.497406,-13.488541,13.488541,-76.497406,385.22432,556.31181)"
       spreadMethod="pad"
       id="linearGradient3245">
      <stop
         style="stop-opacity:1;stop-color:#f69c20"
         offset="0"
         id="stop3247" />
      <stop
         style="stop-opacity:1;stop-color:#fecb0f"
         offset="0.401215"
         id="stop3249" />
      <stop
         style="stop-opacity:1;stop-color:#ffffff"
         offset="0.864288"
         id="stop3251" />
      <stop
         style="stop-opacity:1;stop-color:#ffffff"
         offset="1"
         id="stop3253" />
    </linearGradient>
    <linearGradient
       x1="0"
       y1="0"
       x2="1"
       y2="0"
       gradientUnits="userSpaceOnUse"
       gradientTransform="matrix(-63.695709,36.774719,-36.774719,-63.695709,387.44923,539.28073)"
       spreadMethod="pad"
       id="linearGradient3223">
      <stop
         style="stop-opacity:1;stop-color:#f69c20"
         offset="0"
         id="stop3225" />
      <stop
         style="stop-opacity:1;stop-color:#fecb0f"
         offset="0.388733"
         id="stop3227" />
      <stop
         style="stop-opacity:1;stop-color:#ffffff"
         offset="1"
         id="stop3229" />
    </linearGradient>
    <linearGradient
       x1="0"
       y1="0"
       x2="1"
       y2="0"
       gradientUnits="userSpaceOnUse"
       gradientTransform="matrix(43.699188,36.667908,-36.667908,43.699188,344.83293,531.46098)"
       spreadMethod="pad"
       id="linearGradient3197">
      <stop
         style="stop-opacity:1;stop-color:#fcc215"
         offset="0"
         id="stop3199" />
      <stop
         style="stop-opacity:1;stop-color:#fab41a"
         offset="0.32753"
         id="stop3201" />
      <stop
         style="stop-opacity:1;stop-color:#fab41a"
         offset="0.32753"
         id="stop3203" />
      <stop
         style="stop-opacity:1;stop-color:#fecb0f"
         offset="0.521606"
         id="stop3205" />
      <stop
         style="stop-opacity:1;stop-color:#ffffff"
         offset="1"
         id="stop3207" />
    </linearGradient>
    <clipPath
       clipPathUnits="userSpaceOnUse"
       id="clipPath3117">
      <path
         inkscape:connector-curvature="0"
         d="m 273.813,493.215 130.187,0 0,92.06 -130.187,0 0,-92.06 z"
         id="path3119" />
    </clipPath>
  </defs>
  <sodipodi:namedview
     id="base"
     pagecolor="#ffffff"
     bordercolor="#666666"
     borderopacity="1.0"
     inkscape:pageopacity="0.0"
     inkscape:pageshadow="2"
     inkscape:zoom="1.5270345"
     inkscape:cx="62.13136"
     inkscape:cy="24.615917"
     inkscape:document-units="px"
     inkscape:current-layer="layer1"
     showgrid="false"
     fit-margin-top="0"
     fit-margin-left="0"
     fit-margin-right="0"
     fit-margin-bottom="0"
     inkscape:window-width="1366"
     inkscape:window-height="706"
     inkscape:window-x="-8"
     inkscape:window-y="-8"
     inkscape:window-maximized="1" />
  <metadata
     id="metadata3794">
    <rdf:RDF>
      <cc:Work
         rdf:about="">
        <dc:format>image/svg+xml</dc:format>
        <dc:type
           rdf:resource="http://purl.org/dc/dcmitype/StillImage" />
        <dc:title></dc:title>
      </cc:Work>
    </rdf:RDF>
  </metadata>
  <g
     inkscape:label="Layer 1"
     inkscape:groupmode="layer"
     id="layer1"
     transform="translate(-312.86864,-496.3176)">
    <g
       id="g3113"
       transform="matrix(1.25,0,0,-1.25,-46.625485,1204.1051)">
      <g
         id="g3115"
         clip-path="url(#clipPath3117)">
        <g
           id="g3121"
           transform="translate(290.0763,536.951)">
          <path
             d="m 0,0 c 2.027,0 4.659,0.038 6.099,0.113 l -0.701,-1.837 -7.879,0 c 0.095,2.52 0.114,3.997 0.114,6.554 0,2.765 -0.019,4.318 -0.114,7.026 l 2.538,0 C -0.038,9.148 -0.057,7.595 -0.057,4.83 -0.057,3.011 -0.038,1.667 0,0"
             style="fill:#231f20;fill-opacity:1;fill-rule:nonzero;stroke:none"
             id="path3123"
             inkscape:connector-curvature="0" />
        </g>
        <g
           id="g3125"
           transform="translate(299.376,535.2275)">
          <path
             d="m 0,0 -2.425,0 c 0.095,1.78 0.114,2.86 0.114,4.659 0,1.932 -0.019,2.841 -0.114,4.736 L 0,9.395 C -0.095,7.5 -0.114,6.591 -0.114,4.659 -0.114,2.86 -0.095,1.78 0,0 m -1.212,11.232 c -0.947,0 -1.477,0.606 -1.477,1.325 0,0.682 0.53,1.288 1.477,1.288 0.928,0 1.458,-0.606 1.458,-1.288 0,-0.719 -0.53,-1.325 -1.458,-1.325"
             style="fill:#231f20;fill-opacity:1;fill-rule:nonzero;stroke:none"
             id="path3127"
             inkscape:connector-curvature="0" />
        </g>
        <g
           id="g3129"
           transform="translate(305.2475,543.0687)">
          <path
             d="m 0,0 c -0.985,0 -1.686,-0.474 -2.197,-1.307 -0.038,-0.587 -0.057,-1.364 -0.057,-2.102 0,-1.137 0.019,-2.406 0.057,-2.879 0.454,-0.209 0.966,-0.303 1.667,-0.303 1.685,0 2.841,1.23 2.841,3.409 C 2.311,-0.985 1.42,0 0,0 m -4.584,6.61 2.425,0 C -2.197,5.682 -2.235,4.318 -2.235,3.333 c 0,-1.174 0,-2.197 0.019,-3.314 0.739,1.212 1.913,1.761 3.163,1.761 2.008,0 3.693,-1.515 3.693,-4.451 0,-3.068 -2.026,-5.379 -5.436,-5.379 -1.666,0 -2.879,0.303 -3.769,0.796 0.076,2.424 0.095,3.674 0.095,6.402 0,2.916 -0.019,5.208 -0.114,7.462"
             style="fill:#231f20;fill-opacity:1;fill-rule:nonzero;stroke:none"
             id="path3131"
             inkscape:connector-curvature="0" />
        </g>
        <g
           id="g3133"
           transform="translate(313.1076,541.004)">
          <path
             d="M 0,0 4.508,0 C 4.357,1.686 3.637,2.424 2.292,2.424 0.947,2.424 0.114,1.478 0,0 m 3.22,-4.281 c 1.117,0 2.197,0.361 2.936,0.929 L 6.686,-4.81 C 5.644,-5.606 4.432,-5.985 2.747,-5.985 c -2.823,0 -4.982,1.799 -4.982,5.038 0,2.898 1.913,4.792 4.697,4.792 2.463,0 4.224,-1.553 4.224,-4.432 0,-0.284 0,-0.512 -0.019,-0.796 l -6.648,0 C 0.171,-3.371 1.383,-4.281 3.22,-4.281"
             style="fill:#231f20;fill-opacity:1;fill-rule:nonzero;stroke:none"
             id="path3135"
             inkscape:connector-curvature="0" />
        </g>
        <g
           id="g3137"
           transform="translate(326.3281,544.8489)">
          <path
             d="M 0,0 C 0.493,0 0.796,-0.038 1.099,-0.189 L 0.398,-2.557 c -0.341,0.114 -0.625,0.171 -1.023,0.171 -0.739,0 -1.401,-0.341 -1.951,-1.213 -0.056,-0.662 -0.095,-1.515 -0.095,-2.651 0,-0.985 0.019,-2.178 0.095,-3.371 l -2.424,0 c 0.095,1.761 0.114,2.86 0.114,4.659 0,1.931 -0.019,2.898 -0.114,4.735 l 2.083,0 0.265,-1.951 C -2.026,-0.701 -0.947,0 0,0"
             style="fill:#231f20;fill-opacity:1;fill-rule:nonzero;stroke:none"
             id="path3139"
             inkscape:connector-curvature="0" />
        </g>
        <g
           id="g3141"
           transform="translate(331.7451,536.7803)">
          <path
             d="M 0,0 C 0.833,0 1.572,0.379 2.178,1.345 2.216,1.932 2.235,2.784 2.235,3.542 2.235,4.621 2.216,5.815 2.178,6.288 1.686,6.516 1.212,6.61 0.531,6.61 -1.004,6.61 -2.349,5.455 -2.349,3.353 -2.349,1.023 -1.345,0 0,0 m 4.565,-1.553 -2.197,0 -0.171,1.534 c -0.738,-1.193 -1.951,-1.742 -3.22,-1.742 -1.913,0 -3.655,1.648 -3.655,4.659 0,3.087 2.386,5.171 5.303,5.171 1.004,0 1.667,-0.114 2.368,-0.342 L 4.621,8.22 C 4.47,6.326 4.451,5.303 4.451,3.353 c 0,-2.008 0,-2.86 0.114,-4.906"
             style="fill:#231f20;fill-opacity:1;fill-rule:nonzero;stroke:none"
             id="path3143"
             inkscape:connector-curvature="0" />
        </g>
        <g
           id="g3145"
           transform="translate(340.4764,535.2275)">
          <path
             d="m 0,0 -2.424,0 c 0.094,2.689 0.113,4.261 0.113,6.989 0,2.916 -0.019,4.583 -0.113,7.462 l 2.424,0 C -0.095,11.572 -0.114,9.905 -0.114,6.989 -0.114,4.261 -0.095,2.689 0,0"
             style="fill:#231f20;fill-opacity:1;fill-rule:nonzero;stroke:none"
             id="path3147"
             inkscape:connector-curvature="0" />
        </g>
        <g
           id="g3149"
           transform="translate(290.0196,524.8424)">
          <path
             d="m 0,0 c 0,-1.818 0.019,-3.694 0.057,-5.209 0.265,-0.019 1.174,-0.019 1.78,-0.019 3.713,0 5.758,1.819 5.758,5.209 0,3.371 -2.197,4.963 -5.853,4.963 -0.606,0 -1.174,0 -1.685,-0.019 C 0.019,3.731 0,1.894 0,0 m -2.424,-6.932 c 0.094,2.519 0.113,3.996 0.113,6.553 0,2.765 -0.019,4.319 -0.113,7.027 l 4.564,0 c 4.868,0 7.936,-2.083 7.936,-6.307 0,-4.508 -2.936,-7.273 -8.068,-7.273 l -4.432,0 z"
             style="fill:#231f20;fill-opacity:1;fill-rule:nonzero;stroke:none"
             id="path3151"
             inkscape:connector-curvature="0" />
        </g>
        <g
           id="g3153"
           transform="translate(303.5429,523.6871)">
          <path
             d="M 0,0 4.508,0 C 4.357,1.686 3.637,2.424 2.292,2.424 0.947,2.424 0.114,1.478 0,0 m 3.22,-4.281 c 1.117,0 2.197,0.36 2.935,0.929 L 6.686,-4.811 C 5.645,-5.606 4.432,-5.985 2.747,-5.985 c -2.823,0 -4.982,1.799 -4.982,5.038 0,2.898 1.913,4.792 4.697,4.792 2.463,0 4.224,-1.553 4.224,-4.432 0,-0.284 0,-0.511 -0.019,-0.796 l -6.648,0 C 0.171,-3.371 1.383,-4.281 3.22,-4.281"
             style="fill:#231f20;fill-opacity:1;fill-rule:nonzero;stroke:none"
             id="path3155"
             inkscape:connector-curvature="0" />
        </g>
        <g
           id="g3157"
           transform="translate(326.0255,524.1223)">
          <path
             d="m 0,0 c 0,-1.231 -0.076,-1.969 -0.076,-2.992 0,-1.25 0,-1.951 0.095,-3.22 l -2.368,0 c 0.095,1.193 0.095,1.875 0.095,3.106 0,1.099 -0.019,2.292 -0.057,2.898 -0.076,1.212 -0.663,1.837 -1.667,1.837 -0.795,0 -1.553,-0.416 -2.14,-1.307 -0.075,-0.776 -0.095,-1.95 -0.095,-3.011 0,-1.363 0.02,-2.16 0.095,-3.523 l -2.386,0 c 0.094,1.193 0.094,1.875 0.094,3.106 0,1.099 0,2.273 -0.038,2.898 -0.075,1.231 -0.681,1.837 -1.685,1.837 -0.796,0 -1.553,-0.416 -2.122,-1.307 -0.075,-0.776 -0.094,-1.95 -0.094,-3.011 0,-1.363 0.019,-2.16 0.094,-3.523 l -2.386,0 c 0.095,1.78 0.114,2.86 0.114,4.659 0,1.932 -0.019,2.823 -0.114,4.736 l 2.121,0 0.228,-1.535 c 0.776,1.174 1.704,1.762 3.181,1.762 1.288,0 2.311,-0.739 2.69,-1.951 0.947,1.326 2.027,1.951 3.41,1.951 C -1.231,3.41 0,2.16 0,0"
             style="fill:#231f20;fill-opacity:1;fill-rule:nonzero;stroke:none"
             id="path3159"
             inkscape:connector-curvature="0" />
        </g>
        <g
           id="g3161"
           transform="translate(332.1049,526.0356)">
          <path
             d="m 0,0 c -1.648,0 -2.595,-1.402 -2.595,-3.428 0,-2.008 0.947,-3.428 2.595,-3.428 1.667,0 2.614,1.401 2.614,3.428 C 2.614,-1.402 1.648,0 0,0 m 0,1.497 c 3.049,0 5,-1.989 5,-4.811 0,-2.785 -2.046,-5.02 -5,-5.02 -3.068,0 -4.962,1.951 -4.962,4.792 0,2.822 2.007,5.039 4.962,5.039"
             style="fill:#231f20;fill-opacity:1;fill-rule:nonzero;stroke:none"
             id="path3163"
             inkscape:connector-curvature="0" />
        </g>
        <g
           id="g3165"
           transform="translate(340.4388,522.8918)">
          <path
             d="m 0,0 c 0,-2.406 1.269,-3.485 2.993,-3.485 0.795,0 1.571,0.189 2.234,0.663 L 5.758,-4.224 C 4.792,-4.887 3.712,-5.19 2.31,-5.19 c -2.594,0 -4.659,1.686 -4.659,4.963 0,2.727 2.14,4.868 5.057,4.868 1.212,0 2.084,-0.171 2.936,-0.512 L 5.095,2.595 C 4.489,2.879 3.712,3.068 2.917,3.068 1.079,3.068 0,1.875 0,0"
             style="fill:#231f20;fill-opacity:1;fill-rule:nonzero;stroke:none"
             id="path3167"
             inkscape:connector-curvature="0" />
        </g>
        <g
           id="g3169"
           transform="translate(352.7305,527.5323)">
          <path
             d="M 0,0 C 0.493,0 0.796,-0.038 1.099,-0.189 L 0.398,-2.557 c -0.341,0.114 -0.625,0.17 -1.023,0.17 -0.739,0 -1.402,-0.341 -1.951,-1.212 -0.056,-0.663 -0.094,-1.516 -0.094,-2.652 0,-0.984 0.019,-2.178 0.094,-3.371 l -2.424,0 c 0.095,1.761 0.114,2.86 0.114,4.659 0,1.932 -0.019,2.898 -0.114,4.736 l 2.084,0 0.265,-1.951 C -2.027,-0.701 -0.947,0 0,0"
             style="fill:#231f20;fill-opacity:1;fill-rule:nonzero;stroke:none"
             id="path3171"
             inkscape:connector-curvature="0" />
        </g>
        <g
           id="g3173"
           transform="translate(358.1479,519.4631)">
          <path
             d="m 0,0 c 0.833,0 1.572,0.379 2.178,1.345 0.038,0.587 0.057,1.44 0.057,2.197 0,1.08 -0.019,2.273 -0.057,2.746 C 1.686,6.516 1.212,6.61 0.53,6.61 -1.004,6.61 -2.349,5.455 -2.349,3.353 -2.349,1.023 -1.345,0 0,0 m 4.565,-1.553 -2.198,0 -0.17,1.534 c -0.739,-1.193 -1.951,-1.742 -3.22,-1.742 -1.913,0 -3.655,1.647 -3.655,4.659 0,3.087 2.386,5.171 5.303,5.171 1.004,0 1.667,-0.113 2.368,-0.341 L 4.621,8.22 C 4.47,6.326 4.451,5.304 4.451,3.353 c 0,-2.008 0,-2.86 0.114,-4.906"
             style="fill:#231f20;fill-opacity:1;fill-rule:nonzero;stroke:none"
             id="path3175"
             inkscape:connector-curvature="0" />
        </g>
        <g
           id="g3177"
           transform="translate(367.5228,525.7516)">
          <path
             d="m 0,0 c 0,-1.818 -0.076,-3.731 0.038,-5.019 0.076,-0.909 0.72,-1.326 1.383,-1.326 0.663,0 1.136,0.114 1.61,0.417 l 0.473,-1.326 c -0.7,-0.512 -1.723,-0.796 -2.86,-0.796 -1.648,0 -2.879,1.118 -2.879,3.182 0,1.421 0.076,3.296 0.076,4.868 l -1.553,0 0,1.553 1.572,0 c 0,0.909 0,1.534 -0.038,2.387 L 0.19,4.451 C 0.076,3.447 0.038,2.443 0.038,1.553 l 2.955,0 L 2.993,0 0,0 z"
             style="fill:#231f20;fill-opacity:1;fill-rule:nonzero;stroke:none"
             id="path3179"
             inkscape:connector-curvature="0" />
        </g>
        <g
           id="g3181"
           transform="translate(378.4705,525.5624)">
          <path
             d="m 0,0 c -0.701,0.265 -1.477,0.416 -2.349,0.416 -1.42,0 -1.894,-0.397 -1.894,-0.946 0,-0.455 0.266,-0.758 1.307,-1.156 L -1.78,-2.14 c 1.818,-0.701 2.5,-1.516 2.5,-2.898 0,-1.686 -1.572,-2.822 -3.732,-2.822 -1.685,0 -2.727,0.265 -3.636,0.738 l 0.455,1.515 c 0.852,-0.454 1.912,-0.719 2.935,-0.719 1.307,0 1.837,0.454 1.837,1.079 0,0.569 -0.264,0.909 -1.591,1.402 l -1.155,0.435 c -1.458,0.531 -2.216,1.307 -2.216,2.671 0,1.515 1.421,2.709 3.902,2.709 1.193,0 2.046,-0.114 2.935,-0.436 L 0,0 z"
             style="fill:#231f20;fill-opacity:1;fill-rule:nonzero;stroke:none"
             id="path3183"
             inkscape:connector-curvature="0" />
        </g>
      </g>
    </g>
    <g
       id="g3185"
       transform="matrix(1.25,0,0,-1.25,-46.625485,1204.1051)">
      <g
         id="g3187">
        <g
           id="g3193">
          <g
             id="g3195">
            <path
               d="m 369.438,551.929 c 0,0 -1.228,-1.545 -2.299,-4.13 l 0,0 c 0,0 -1.961,-4.106 -4.604,-5.776 l 0,0 c 0,0 -2.777,-2.142 -6.553,-2.679 l 0,0 c 0,0 -0.997,-0.185 -2.344,-0.185 l 0,0 c -1.045,0 -2.301,0.113 -3.458,0.509 l 0,0 c 0,0 -3.307,0.795 -5.061,2.379 l 0,0 c 0,0 -0.081,-0.386 -0.084,-0.944 l 0,0 0,-0.052 c 0.003,-0.644 0.115,-1.504 0.572,-2.271 l 0,0 c 0,0 0.067,-0.147 0.171,-0.327 l 0,0 c 0.864,-0.753 1.839,-1.021 2.914,-1.021 l 0,0 c 2.511,0 5.425,1.486 7.858,1.631 l 0,0 c 3.494,0 7.387,0.37 10.108,2.308 l 0,0 c 2.034,1.45 3.396,3.901 4.516,6.517 l 0,0 c 1.13,2.829 3.832,4.635 7,5.323 l 0,0 c -0.114,0.047 -0.284,0.091 -0.538,0.091 l 0,0 c -0.145,0 -0.314,-0.016 -0.514,-0.049 l 0,0 c 0,0 -0.187,-0.031 -0.522,-0.031 l 0,0 c -0.418,0 -1.068,0.047 -1.88,0.261 l 0,0 c 0,0 -0.579,0.123 -1.381,0.123 l 0,0 c -1.198,0 -2.893,-0.28 -3.901,-1.677"
               style="fill:url(#linearGradient3197);stroke:none"
               id="path3209"
               inkscape:connector-curvature="0" />
          </g>
        </g>
      </g>
    </g>
    <g
       id="g3211"
       transform="matrix(1.25,0,0,-1.25,-46.625485,1204.1051)">
      <g
         id="g3213">
        <g
           id="g3219">
          <g
             id="g3221">
            <path
               d="m 350.636,566.226 c -1.631,-7.545 7.466,-9.509 12.458,-12.981 l 0,0 c 2.495,-1.661 2.613,-4.509 1.867,-7.226 l 0,0 c 0.208,0.282 2.586,3.597 1.334,6.567 l 0,0 c 0,0 -0.966,2.142 -5.08,4 l 0,0 c 0,0 -4.56,1.956 -6.719,3.757 l 0,0 c 0,0 -3.596,3.148 -3.86,5.887 l 0,0 0,-0.004 z"
               style="fill:url(#linearGradient3223);stroke:none"
               id="path3231"
               inkscape:connector-curvature="0" />
          </g>
        </g>
      </g>
    </g>
    <g
       id="g3233"
       transform="matrix(1.25,0,0,-1.25,-46.625485,1204.1051)">
      <g
         id="g3235">
        <g
           id="g3241">
          <g
             id="g3243">
            <path
               d="m 348.586,557.136 c 0.237,-1.404 0.853,-2.621 1.855,-3.455 l 0,0 c 3.054,-2.838 7.418,-3.491 11.345,-5.453 l 0,0 c 1.414,-0.608 1.707,-2.335 1.569,-3.973 l 0,0 c 0.179,0.41 0.828,2.079 0.224,3.806 l 0,0 c 0,0 -0.306,1.43 -3.872,2.786 l 0,0 c 0,0 -4.985,1.726 -6.628,2.801 l 0,0 c 0,0 -3.409,1.762 -4.482,4.544 l 0,0 c 0,0 -0.04,-0.421 -0.011,-1.056"
               style="fill:url(#linearGradient3245);stroke:none"
               id="path3255"
               inkscape:connector-curvature="0" />
          </g>
        </g>
      </g>
    </g>
    <g
       id="g3257"
       transform="matrix(1.25,0,0,-1.25,-46.625485,1204.1051)">
      <g
         id="g3259">
        <g
           id="g3265">
          <g
             id="g3267">
            <path
               d="m 351.524,548.587 c 0,0 0.017,-0.031 0.052,-0.083 l 0,0 c 1.022,-0.938 2.106,-2.317 3.448,-2.821 l 0,0 c 0.904,-0.576 2.15,-1.024 3.363,-1.084 l 0,0 c 0.302,-0.015 0.602,-0.012 0.895,-0.008 l 0,0 c 0.836,0.009 1.608,0.019 2.18,-0.393 l 0,0 c 0.428,-0.308 0.744,-0.346 0.892,-1.035 l 0,0 c 0.112,0.434 0.335,1.917 -1.29,2.575 l 0,0 c 0,0 -0.488,0.215 -1.843,0.39 l 0,0 c 0,0 -2.719,0.211 -4.171,0.824 l 0,0 c 0,0 -2.844,1.1 -3.526,1.635 z"
               style="fill:url(#linearGradient3269);stroke:none"
               id="path3277"
               inkscape:connector-curvature="0" />
          </g>
        </g>
      </g>
    </g>
    <g
       id="g3279"
       transform="matrix(1.25,0,0,-1.25,-46.625485,1204.1051)">
      <g
         id="g3281">
        <g
           id="g3287">
          <g
             id="g3289">
            <path
               d="m 351.525,548.585 c 0.003,-0.007 0.02,-0.036 0.051,-0.081 l 0,0 c 1.022,-0.938 2.106,-2.317 3.448,-2.821 l 0,0 c 0.904,-0.576 2.15,-1.024 3.363,-1.084 l 0,0 c 0.302,-0.015 0.602,-0.012 0.895,-0.008 l 0,0 c 0.836,0.009 1.608,0.019 2.18,-0.393 l 0,0 c 0.428,-0.308 0.744,-0.346 0.892,-1.035 l 0,0 c 0.028,0.108 0.063,0.28 0.074,0.489 l 0,0 0,0.278 c -0.034,0.609 -0.311,1.382 -1.364,1.808 l 0,0 c 0,0 -0.488,0.215 -1.843,0.39 l 0,0 c 0,0 -2.719,0.211 -4.171,0.824 l 0,0 c 0,0 -2.84,1.098 -3.524,1.634 l 0,0 -0.001,-10e-4 z"
               style="fill:url(#linearGradient3291);stroke:none"
               id="path3297"
               inkscape:connector-curvature="0" />
          </g>
        </g>
      </g>
    </g>
    <g
       id="g3299"
       transform="matrix(1.25,0,0,-1.25,-46.625485,1204.1051)">
      <g
         id="g3301">
        <g
           id="g3307">
          <g
             id="g3309">
            <path
               d="m 353.521,536.316 c -1.55,-1.012 -2.876,-1.406 -2.876,-1.406 l 0,0 c -0.416,-0.108 -0.802,-0.152 -1.157,-0.152 l 0,0 c -1.117,0 -1.886,0.44 -2.185,0.645 l 0,0 c 0.895,-1.119 2.07,-1.838 3.262,-1.838 l 0,0 c 0.544,0 1.091,0.149 1.623,0.48 l 0,0 c 2.062,1.03 3.542,3.43 5.913,4.055 l 0,0 c -0.123,0.02 -0.249,0.031 -0.381,0.031 l 0,0 c -1.785,0 -4.199,-1.815 -4.199,-1.815"
               style="fill:url(#linearGradient3311);stroke:none"
               id="path3319"
               inkscape:connector-curvature="0" />
          </g>
        </g>
      </g>
    </g>
    <g
       id="g3321"
       transform="matrix(1.25,0,0,-1.25,-46.625485,1204.1051)">
      <g
         id="g3323">
        <g
           id="g3329">
          <g
             id="g3331">
            <path
               d="m 360.605,538.177 c -0.601,0 -2.161,-0.222 -3.201,-2.363 l 0,0 c 0,0 -1.155,-3.071 -2.343,-3.847 l 0,0 c 0,0 -0.763,-0.634 -1.959,-0.634 l 0,0 c -0.067,0 -0.468,0.035 -0.537,0.04 l 0,0 c 0.468,-0.139 1.241,-0.285 1.649,-0.321 l 0,0 c 4.254,-0.389 4.691,4.076 5.826,6.921 l 0,0 c 0.136,0.133 0.354,0.186 0.607,0.204 l 0,0 -0.042,0 z"
               style="fill:url(#linearGradient3333);stroke:none"
               id="path3341"
               inkscape:connector-curvature="0" />
          </g>
        </g>
      </g>
    </g>
    <g
       id="g3343"
       transform="matrix(1.25,0,0,-1.25,-46.625485,1204.1051)">
      <g
         id="g3345">
        <g
           id="g3351">
          <g
             id="g3353">
            <path
               d="m 387.194,550.633 c -1.233,-0.923 -2.725,-1.425 -4.228,-1.692 l 0,0 c -0.903,-0.161 -1.838,-0.129 -2.772,-0.098 l 0,0 c -1.226,0.043 -2.451,0.084 -3.607,-0.309 l 0,0 c -3.047,-1.012 -5.036,-4.309 -5.036,-4.309 l 0,0 c 0.065,0.043 0.133,0.083 0.198,0.126 l 0,0 c 2.536,3.039 7.453,1.31 10.983,2.348 l 0,0 c 3.16,0.79 6.143,3.009 7.326,6.175 l 0,0 c -0.973,-1.011 -2.864,-2.241 -2.864,-2.241"
               style="fill:url(#linearGradient3355);stroke:none"
               id="path3363"
               inkscape:connector-curvature="0" />
          </g>
        </g>
      </g>
    </g>
    <g
       id="g3365"
       transform="matrix(1.25,0,0,-1.25,-46.625485,1204.1051)">
      <g
         id="g3367">
        <g
           id="g3373">
          <g
             id="g3375">
            <path
               d="m 382.929,543.529 c -1.185,-0.527 -2.446,-0.672 -3.489,-0.672 l 0,0 c -0.685,0 -1.373,0.054 -2.044,0.19 l 0,0 c -0.451,0.093 -0.893,0.226 -1.345,0.313 l 0,0 c -0.391,0.073 -0.787,0.125 -1.185,0.151 l 0,0 c -0.182,0.012 -0.368,0.018 -0.552,0.018 l 0,0 c -0.767,0 -1.207,-0.11 -1.207,-0.11 l 0,0 c -1.624,-0.423 -2.769,-1.188 -3.203,-1.507 l 0,0 c 0.609,0.184 1.245,0.152 1.845,0.152 l 0,0 c 1.1,0 2.137,-0.509 3.223,-0.752 l 0,0 c 1.084,-0.246 2.195,-0.346 3.294,-0.346 l 0,0 c 0.616,0 1.3,0.106 1.924,0.301 l 0,0 c 2.751,1.059 5.423,2.314 7.577,4.567 l 0,0 0.003,0.006 0,10e-4 c -1.601,-1.226 -4.841,-2.312 -4.841,-2.312"
               style="fill:url(#linearGradient3377);stroke:none"
               id="path3385"
               inkscape:connector-curvature="0" />
          </g>
        </g>
      </g>
    </g>
    <g
       id="g3387"
       transform="matrix(1.25,0,0,-1.25,-46.625485,1204.1051)">
      <g
         id="g3389">
        <g
           id="g3395">
          <g
             id="g3397">
            <path
               d="m 370.951,548.008 c -1.105,-2.577 -2.297,-4.821 -4.293,-6.266 l 0,0 c -2.735,-1.98 -6.576,-2.679 -10.108,-2.679 l 0,0 c -2.475,-0.147 -5.435,-1.352 -7.975,-1.3 l 0,0 c -1.026,0.021 -2.353,0.715 -3.182,1.438 l 0,0 c 0.094,-0.161 0.202,-0.516 0.441,-0.826 l 0,0 c 0.536,-0.693 1.461,-1.474 2.466,-1.55 l 0,0 c 0,0 1.427,-0.259 3.653,0.686 l 0,0 c 0,0 3.732,1.353 6.005,1.404 l 0,0 c 0,0 4.982,-0.046 7.1,0.708 l 0,0 c 1.6,0.571 2.917,1.285 4.279,2.998 l 0,0 c 1.365,1.713 1.719,3.148 2.158,4.066 l 0,0 c 0,0 1.324,2.755 2.94,4.061 l 0,0 c 0,0 2.058,1.766 3.93,2.334 l 0,0 c 0,0 -0.048,0.069 -0.191,0.129 l 0,0 c -3.168,-0.688 -6.092,-2.374 -7.223,-5.203"
               style="fill:url(#linearGradient3399);stroke:none"
               id="path3409"
               inkscape:connector-curvature="0" />
          </g>
        </g>
      </g>
    </g>
    <g
       id="g3411"
       transform="matrix(1.25,0,0,-1.25,-46.625485,1204.1051)">
      <g
         id="g3413">
        <g
           id="g3419">
          <g
             id="g3421">
            <path
               d="m 350.671,560.879 c 0,0 0.952,-2.681 4.268,-4.717 l 0,0 c 0,0 2.755,-1.573 4.773,-2.355 l 0,0 c 0,0 5.204,-1.846 5.204,-5.22 l 0,0 c 0,0 0.195,-1.856 0.029,-2.589 l 0,0 0.016,0.021 c 0.746,2.717 0.628,5.565 -1.864,7.226 l 0,0 c -4.995,3.472 -14.092,5.436 -12.461,12.981 l 0,0 c -0.057,-0.102 -1.272,-2.312 0.035,-5.347"
               style="fill:url(#linearGradient3423);stroke:none"
               id="path3431"
               inkscape:connector-curvature="0" />
          </g>
        </g>
      </g>
    </g>
    <g
       id="g3433"
       transform="matrix(1.25,0,0,-1.25,-46.625485,1204.1051)">
      <g
         id="g3435">
        <g
           id="g3441">
          <g
             id="g3443">
            <path
               d="m 348.588,557.136 c 0.062,-1.274 0.408,-3.414 1.924,-4.768 l 0,0 c 0,0 1.388,-1.303 2.873,-1.915 l 0,0 c 0,0 2.383,-1.02 4.506,-1.609 l 0,0 c 0,0 4.232,-0.851 4.932,-2.62 l 0,0 c 0,0 0.67,-1.055 0.485,-2.064 l 0,0 c 0,0 0.018,0.033 0.045,0.095 l 0,0 c 0.14,1.638 -0.153,3.365 -1.567,3.973 l 0,0 c -3.927,1.962 -8.291,2.615 -11.345,5.453 l 0,0 c -1.002,0.834 -1.618,2.051 -1.853,3.455 z"
               style="fill:url(#linearGradient3445);stroke:none"
               id="path3451"
               inkscape:connector-curvature="0" />
          </g>
        </g>
      </g>
    </g>
    <g
       id="g3453"
       transform="matrix(1.25,0,0,-1.25,-46.625485,1204.1051)">
      <g
         id="g3455">
        <g
           id="g3461">
          <g
             id="g3463">
            <path
               d="m 351.576,548.504 c 0.315,-0.496 2.098,-3.138 4.797,-4.092 l 0,0 c 0,0 1.521,-0.631 3.467,-0.552 l 0,0 c 0,0 0.135,0.02 0.344,0.03 l 0,0 c 0.583,0.028 1.74,-0.022 2.133,-0.794 l 0,0 c 0,0 0.015,-0.014 0.037,0.067 l 0,0 c -0.116,0.54 -0.337,0.996 -0.625,1.212 l 0,0 c -0.56,0.418 -1.392,0.257 -2.339,0.341 l 0,0 c -1.481,0.131 -3.22,0.598 -4.367,1.328 l 0,0 c -0.318,0.193 -2.425,1.522 -3.447,2.46 z"
               style="fill:url(#linearGradient3465);stroke:none"
               id="path3475"
               inkscape:connector-curvature="0" />
          </g>
        </g>
      </g>
    </g>
    <g
       id="g3477"
       transform="matrix(1.25,0,0,-1.25,-46.625485,1204.1051)">
      <g
         id="g3479">
        <g
           id="g3485">
          <g
             id="g3487">
            <path
               d="m 352.186,534.045 c -1.686,-1.055 -3.575,-0.271 -4.883,1.358 l 0,0 c -0.094,0.061 -0.142,0.104 -0.142,0.104 l 0,0 c 0.424,-0.668 0.909,-1.163 0.909,-1.163 l 0,0 c 1.742,-1.935 3.739,-1.406 3.739,-1.406 l 0,0 c 1.385,0.39 3.74,3.16 3.74,3.16 l 0,0 c 1.622,1.928 2.584,1.998 2.584,1.998 l 0,0 -0.032,0.004 c -2.371,-0.625 -3.851,-3.025 -5.915,-4.055"
               style="fill:url(#linearGradient3489);stroke:none"
               id="path3495"
               inkscape:connector-curvature="0" />
          </g>
        </g>
      </g>
    </g>
    <g
       id="g3497"
       transform="matrix(1.25,0,0,-1.25,-46.625485,1204.1051)">
      <g
         id="g3499">
        <g
           id="g3505">
          <g
             id="g3507">
            <path
               d="m 360.04,537.973 c -0.541,-0.497 -0.77,-1.19 -0.997,-1.866 l 0,0 c -0.398,-1.194 -0.749,-2.634 -1.519,-3.653 l 0,0 c -0.513,-0.677 -1.233,-1.064 -2.062,-1.21 l 0,0 c -0.459,-0.081 -0.986,-0.151 -1.452,-0.116 l 0,0 c -0.487,0.036 -0.968,0.138 -1.445,0.245 l 0,0 c 0.465,-0.192 0.902,-0.357 1.408,-0.441 l 0,0 c 0.662,-0.107 1.536,-0.273 2.206,-0.12 l 0,0 c 1.313,0.298 2.14,1.162 2.597,2.413 l 0,0 c 0.13,0.354 0.177,0.726 0.253,1.095 l 0,0 c 0.159,0.768 0.408,1.526 0.709,2.249 l 0,0 c 0.235,0.562 0.55,1.293 1.118,1.595 l 0,0 c 0,0 -0.077,0.012 -0.209,0.013 l 0,0 c -0.253,-0.018 -0.471,-0.07 -0.607,-0.204"
               style="fill:url(#linearGradient3509);stroke:none"
               id="path3519"
               inkscape:connector-curvature="0" />
          </g>
        </g>
      </g>
    </g>
    <g
       id="g3521"
       transform="matrix(1.25,0,0,-1.25,-46.625485,1204.1051)">
      <g
         id="g3523">
        <g
           id="g3529">
          <g
             id="g3531">
            <path
               d="m 390.37,553.233 -0.009,-0.012 c -0.084,-0.113 -0.188,-0.228 -0.303,-0.349 l 0,0 c -0.54,-1.441 -1.448,-2.701 -2.633,-3.676 l 0,0 c -1.151,-0.947 -2.46,-1.751 -3.895,-2.186 l 0,0 c -0.457,-0.139 -0.922,-0.244 -1.391,-0.334 l 0,0 c -1.185,-0.224 -2.343,-0.264 -3.541,-0.147 l 0,0 c -1.249,0.122 -2.576,0.182 -3.807,-0.107 l 0,0 c -0.954,-0.223 -1.708,-0.826 -2.44,-1.449 l 0,0 c -0.217,-0.184 -0.473,-0.454 -0.667,-0.664 l 0,0 c 0.895,0.543 1.919,1.005 2.944,1.23 l 0,0 c 0.541,0.117 1.209,0.168 1.666,0.133 l 0,0 c 1.228,-0.096 2.443,-0.22 3.675,-0.2 l 0,0 c 0.084,0.003 0.167,0.004 0.25,0.005 l 0,0 c 3.842,0.278 6.254,2.012 6.254,2.012 l 0,0 c 4.02,2.539 3.961,5.833 3.961,5.833 l 0,0 c -0.019,-0.029 -0.042,-0.058 -0.064,-0.089"
               style="fill:url(#linearGradient3533);stroke:none"
               id="path3539"
               inkscape:connector-curvature="0" />
          </g>
        </g>
      </g>
    </g>
    <g
       id="g3541"
       transform="matrix(1.25,0,0,-1.25,-46.625485,1204.1051)">
      <g
         id="g3543">
        <g
           id="g3549">
          <g
             id="g3551">
            <path
               d="m 380.271,541.522 c -2.672,-0.853 -4.416,0.098 -6.113,0.565 l 0,0 c -1.355,0.374 -2.713,0.293 -4.254,-0.175 l 0,0 c -0.125,-0.093 -0.194,-0.151 -0.194,-0.151 l 0,0 c 2.253,0.523 4.7,-0.899 4.7,-0.899 l 0,0 c 2.037,-0.969 4.463,-0.6 4.463,-0.6 l 0,0 c 5.837,1.074 8.784,5.408 8.895,5.569 l 0,0 c -2.114,-2.209 -4.743,-3.429 -7.497,-4.309"
               style="fill:url(#linearGradient3553);stroke:none"
               id="path3559"
               inkscape:connector-curvature="0" />
          </g>
        </g>
      </g>
    </g>
  </g>
</svg>
