<?xml version="1.0" encoding="UTF-8" standalone="no"?>
<svg
   xmlns:dc="http://purl.org/dc/elements/1.1/"
   xmlns:cc="http://creativecommons.org/ns#"
   xmlns:rdf="http://www.w3.org/1999/02/22-rdf-syntax-ns#"
   xmlns:svg="http://www.w3.org/2000/svg"
   xmlns="http://www.w3.org/2000/svg"
   id="svg8"
   version="1.1"
   viewBox="0 0 89.999999 37.583225"
   height="37.583225mm"
   width="90mm">
  <defs
     id="defs2" />
  <metadata
     id="metadata5">
    <rdf:RDF>
      <cc:Work
         rdf:about="">
        <dc:format>image/svg+xml</dc:format>
        <dc:type
           rdf:resource="http://purl.org/dc/dcmitype/StillImage" />
        <dc:title></dc:title>
      </cc:Work>
    </rdf:RDF>
  </metadata>
  <g
     transform="translate(-94.314717,-82.091053)"
     id="layer1">
    <path
       id="path4535"
       d="m 113.10561,91.000431 c -0.0862,0.08329 -0.17216,0.166124 -0.2527,0.250629 -1.22037,1.280514 -1.86981,2.769674 -1.96422,4.27881 -1.1339,-1.00052 -2.64669,-1.593543 -4.41523,-1.636078 -0.11657,-0.0028 -0.23632,-9.66e-4 -0.35605,10e-4 -0.002,0.119734 -0.004,0.239477 -0.001,0.35605 0.0425,1.768392 0.63674,3.281362 1.63711,4.415234 0.10525,-0.0066 0.21088,-0.01072 0.31626,-0.01189 0.0205,-2.28e-4 0.041,0.0011 0.0615,0.001 0.0823,-9.2e-5 0.16469,4.24e-4 0.24701,0.0036 0.0377,0.0015 0.0754,0.0051 0.11317,0.0072 0.0666,0.0038 0.13297,0.0075 0.19947,0.01344 0.0381,0.0034 0.0761,0.0083 0.11421,0.0124 0.0672,0.0073 0.13446,0.01432 0.20153,0.02377 0.0386,0.0054 0.0772,0.01244 0.11576,0.01861 0.064,0.01022 0.12791,0.02034 0.19172,0.03255 0.0399,0.0076 0.0796,0.01641 0.11937,0.02481 0.068,0.01436 0.13586,0.02937 0.20361,0.04599 0.0321,0.0079 0.0641,0.01643 0.0961,0.02481 0.0701,0.01833 0.14004,0.03764 0.2098,0.05839 0.0347,0.01032 0.0692,0.02112 0.10387,0.03204 0.0689,0.02174 0.13763,0.04462 0.20619,0.06873 0.0333,0.01169 0.0666,0.02341 0.0997,0.03566 0.0661,0.02441 0.13168,0.05037 0.1974,0.077 0.041,0.01661 0.0821,0.03317 0.12299,0.05064 0.0546,0.02336 0.10899,0.04796 0.1633,0.07286 0.0447,0.02047 0.0894,0.04051 0.13384,0.06201 0.0611,0.02956 0.12176,0.06098 0.18242,0.0925 0.0369,0.01916 0.0739,0.03799 0.11058,0.05788 0.0606,0.03284 0.12073,0.06751 0.18087,0.10232 0.0385,0.02227 0.077,0.0441 0.11524,0.06718 0.0602,0.03632 0.12014,0.07434 0.17983,0.112655 0.0361,0.02315 0.0721,0.04589 0.10801,0.06976 0.0559,0.03722 0.11101,0.07626 0.1664,0.11524 0.041,0.02887 0.0823,0.05698 0.12299,0.08682 0.0662,0.0485 0.13204,0.0993 0.1974,0.15038 0.0233,0.0182 0.047,0.0352 0.0703,0.0537 0.002,0.001 0.003,0.003 0.005,0.004 0.0932,0.0745 0.18512,0.15124 0.27647,0.23099 -0.0798,-0.0914 -0.15648,-0.18331 -0.231,-0.27647 -0.0199,-0.0249 -0.0383,-0.0504 -0.0579,-0.0754 -0.0511,-0.0654 -0.10189,-0.131219 -0.15038,-0.197394 -0.0298,-0.04072 -0.058,-0.08197 -0.0868,-0.122988 -0.039,-0.05539 -0.078,-0.110498 -0.11524,-0.1664 -0.0239,-0.03586 -0.0466,-0.07193 -0.0698,-0.108002 -0.0383,-0.05969 -0.0763,-0.119608 -0.11266,-0.179835 -0.0231,-0.03827 -0.0449,-0.07676 -0.0672,-0.115239 -0.0348,-0.06014 -0.0695,-0.120246 -0.10232,-0.180867 -0.0199,-0.03671 -0.0387,-0.07371 -0.0579,-0.110588 -0.0315,-0.06065 -0.0629,-0.121332 -0.0925,-0.182417 -0.0215,-0.04444 -0.0416,-0.08919 -0.062,-0.133842 -0.0249,-0.05431 -0.0495,-0.108685 -0.0729,-0.163298 -0.0175,-0.04086 -0.034,-0.08197 -0.0506,-0.122989 -0.0266,-0.06572 -0.0526,-0.131305 -0.077,-0.197406 -0.0123,-0.03316 -0.024,-0.06648 -0.0357,-0.09973 -0.0241,-0.06856 -0.047,-0.137279 -0.0687,-0.20619 -0.0112,-0.0355 -0.0225,-0.07087 -0.0331,-0.106453 -0.0186,-0.06252 -0.0356,-0.125341 -0.0522,-0.188102 -0.0114,-0.04292 -0.0231,-0.08565 -0.0336,-0.128675 -0.0148,-0.06085 -0.0279,-0.121899 -0.0408,-0.182933 -0.009,-0.0422 -0.0183,-0.08433 -0.0264,-0.126609 -0.0122,-0.06381 -0.0223,-0.127762 -0.0326,-0.191719 -0.006,-0.03859 -0.0132,-0.07712 -0.0186,-0.115755 -0.009,-0.06708 -0.0165,-0.134348 -0.0238,-0.201539 -0.004,-0.03806 -0.009,-0.07611 -0.0124,-0.114205 -0.006,-0.06651 -0.01,-0.132902 -0.0134,-0.199469 -0.002,-0.03773 -0.006,-0.07543 -0.007,-0.113173 -0.003,-0.08232 -0.004,-0.164687 -0.004,-0.247012 2e-5,-0.02051 -0.001,-0.04099 -0.001,-0.0615 0.001,-0.105383 0.005,-0.211008 0.0119,-0.316261 1e-5,-1.7e-4 -10e-6,-3.44e-4 0,-5.16e-4 0.0792,0.06993 0.15653,0.142155 0.23203,0.216008 0.001,0.001 0.002,0.0021 0.003,0.0031 0.0131,0.01279 0.0253,0.02637 0.0382,0.03927 0.0585,0.05832 0.11646,0.117115 0.1726,0.177768 0.025,0.02703 0.0488,0.0552 0.0734,0.08268 0.0467,0.05232 0.0935,0.104695 0.13849,0.158646 0.0194,0.02331 0.0377,0.0477 0.0568,0.07131 0.0467,0.05771 0.0932,0.115694 0.13797,0.175183 0.0215,0.02853 0.042,0.05788 0.0631,0.08681 0.0396,0.05459 0.0788,0.10936 0.11679,0.165365 0.0259,0.03815 0.0508,0.07696 0.076,0.115755 0.0305,0.04717 0.061,0.09451 0.0904,0.142629 0.0266,0.04362 0.0523,0.08791 0.078,0.132291 0.0288,0.04974 0.0572,0.09969 0.0847,0.150379 0.0206,0.03779 0.0406,0.07589 0.0605,0.114205 0.0318,0.06126 0.063,0.122946 0.093,0.185518 0.0169,0.03511 0.0333,0.07042 0.0496,0.105936 0.0263,0.0574 0.0521,0.115186 0.077,0.173633 0.0197,0.04622 0.0391,0.09266 0.0579,0.139525 0.0214,0.05341 0.0419,0.107519 0.062,0.161748 0.0175,0.04717 0.0351,0.09433 0.0517,0.14211 0.0215,0.06187 0.0416,0.124706 0.0615,0.187585 0.013,0.04107 0.0259,0.08201 0.0382,0.123507 0.0195,0.06552 0.0375,0.131882 0.0553,0.198438 0.0118,0.04435 0.0241,0.08852 0.0351,0.133326 0.0162,0.06571 0.0309,0.132281 0.0455,0.198953 0.009,0.04309 0.0197,0.08571 0.0284,0.129191 0.0162,0.08078 0.0301,0.162846 0.0439,0.244946 0.005,0.03162 0.0116,0.06276 0.0165,0.09457 0.0112,0.07185 0.0202,0.144749 0.0295,0.217559 0.006,0.04772 0.0133,0.09501 0.0186,0.143145 1.6e-4,0.0014 3.7e-4,0.0027 5.2e-4,0.0041 0.0124,0.113717 0.0226,0.228227 0.0305,0.344157 0.008,-0.11593 0.0181,-0.23044 0.0305,-0.344157 1.5e-4,-0.0014 3.6e-4,-0.0027 5.2e-4,-0.0041 0.005,-0.04813 0.0125,-0.09542 0.0186,-0.143145 0.009,-0.07281 0.0183,-0.145714 0.0294,-0.217559 0.005,-0.03181 0.0112,-0.06295 0.0165,-0.09457 0.0138,-0.0821 0.0277,-0.164171 0.0439,-0.244946 0.009,-0.04348 0.019,-0.0861 0.0284,-0.129191 0.0146,-0.06667 0.0292,-0.133239 0.0455,-0.198953 0.0111,-0.04481 0.0233,-0.08897 0.0351,-0.133326 0.0175,-0.06564 0.0351,-0.131218 0.0543,-0.195853 0.0147,-0.04939 0.0304,-0.09797 0.046,-0.146762 0.0164,-0.0514 0.0331,-0.102756 0.0506,-0.153479 0.0196,-0.05682 0.04,-0.113022 0.061,-0.168982 0.0179,-0.04781 0.0359,-0.09546 0.0548,-0.142626 0.0198,-0.04948 0.0402,-0.09852 0.061,-0.147277 0.0235,-0.05521 0.0475,-0.110057 0.0724,-0.164333 0.0202,-0.04412 0.041,-0.08776 0.062,-0.131257 0.0242,-0.04993 0.0491,-0.09922 0.0744,-0.148313 0.0239,-0.04648 0.0479,-0.09277 0.0729,-0.138493 0.0267,-0.04895 0.0543,-0.09714 0.0822,-0.145209 0.0257,-0.04439 0.0514,-0.08867 0.078,-0.132291 0.0283,-0.04636 0.0574,-0.09198 0.0868,-0.137459 0.0275,-0.04248 0.0548,-0.0849 0.0832,-0.126609 0.0344,-0.05058 0.0702,-0.09992 0.10594,-0.149344 0.0237,-0.03277 0.047,-0.06593 0.0713,-0.09819 0.0445,-0.05907 0.0905,-0.116826 0.13694,-0.174148 0.0191,-0.02361 0.0374,-0.04801 0.0568,-0.07131 0.045,-0.05395 0.0918,-0.10633 0.13849,-0.158646 0.0246,-0.02748 0.0484,-0.05566 0.0734,-0.08268 0.0561,-0.06065 0.11412,-0.119451 0.1726,-0.177768 0.014,-0.01393 0.0272,-0.02858 0.0413,-0.04237 0.0755,-0.07385 0.15279,-0.145566 0.23203,-0.215492 -0.0942,-1.509488 -0.74357,-2.999037 -1.96422,-4.279842 -0.0804,-0.08441 -0.16657,-0.167434 -0.2527,-0.250629 z m 2.21692,4.530471 c 0.007,0.105253 0.0107,0.210878 0.0119,0.316261 2e-5,0.0015 -1e-5,0.0031 0,0.0047 2e-4,0.01894 -10e-4,0.0379 -10e-4,0.05684 9e-5,0.08232 -4.2e-4,0.164695 -0.004,0.247012 -0.001,0.03775 -0.005,0.07544 -0.007,0.113173 -0.004,0.06657 -0.007,0.132961 -0.0134,0.199469 -0.003,0.03809 -0.008,0.07614 -0.0124,0.114205 -0.007,0.06719 -0.0143,0.134461 -0.0238,0.201539 -0.005,0.03864 -0.0124,0.07716 -0.0186,0.115755 -0.0102,0.06396 -0.0204,0.12791 -0.0326,0.191719 -0.008,0.03985 -0.0164,0.07959 -0.0248,0.119373 -0.0144,0.06797 -0.0294,0.135863 -0.046,0.203604 -0.008,0.03211 -0.0164,0.06407 -0.0248,0.09612 -0.0183,0.07006 -0.0376,0.140041 -0.0584,0.209806 -0.0103,0.0347 -0.0211,0.06925 -0.032,0.103868 -0.0217,0.06891 -0.0446,0.137628 -0.0687,0.20619 -0.0117,0.03325 -0.0234,0.06657 -0.0357,0.09973 -0.0244,0.0661 -0.0504,0.131684 -0.077,0.197406 -0.0166,0.04102 -0.0332,0.08213 -0.0506,0.122989 -0.0234,0.05461 -0.048,0.108984 -0.0729,0.163298 -0.0205,0.04465 -0.0405,0.0894 -0.062,0.133842 -0.0296,0.06109 -0.061,0.121762 -0.0925,0.182417 -0.0192,0.03688 -0.038,0.07388 -0.0579,0.110588 -0.0328,0.06062 -0.0675,0.120727 -0.10232,0.180867 -0.0223,0.03848 -0.0441,0.07697 -0.0672,0.115239 -0.0363,0.06023 -0.0743,0.120142 -0.11265,0.179835 -0.0232,0.03607 -0.0459,0.07214 -0.0698,0.108002 -0.0372,0.0559 -0.0763,0.111014 -0.11524,0.1664 -0.0289,0.04101 -0.057,0.08227 -0.0868,0.122988 -0.0485,0.06618 -0.0993,0.132043 -0.15038,0.197403 -0.0182,0.0233 -0.0352,0.047 -0.0537,0.0703 -10e-4,0.002 -0.003,0.003 -0.004,0.005 -0.0745,0.0932 -0.15125,0.18512 -0.231,0.27647 0.0913,-0.0798 0.18331,-0.15648 0.27647,-0.23099 0.0249,-0.02 0.0504,-0.0383 0.0755,-0.0579 0.0654,-0.051 0.13123,-0.10189 0.1974,-0.15038 0.0407,-0.02983 0.082,-0.05795 0.12299,-0.08682 0.0554,-0.03898 0.1105,-0.07802 0.1664,-0.11524 0.0359,-0.02388 0.0719,-0.04661 0.10801,-0.06976 0.0597,-0.03831 0.1196,-0.07634 0.17983,-0.112655 0.0383,-0.02308 0.0768,-0.04491 0.11524,-0.06718 0.0601,-0.03481 0.12024,-0.06948 0.18086,-0.10232 0.0367,-0.01989 0.0737,-0.03871 0.11059,-0.05788 0.0607,-0.03152 0.12133,-0.06294 0.18242,-0.0925 0.0444,-0.0215 0.0892,-0.04155 0.13384,-0.06201 0.0543,-0.0249 0.10869,-0.0495 0.1633,-0.07286 0.0409,-0.01747 0.082,-0.03403 0.12299,-0.05064 0.0657,-0.02662 0.1313,-0.05258 0.1974,-0.077 0.0332,-0.01225 0.0665,-0.02397 0.0997,-0.03566 0.0686,-0.02411 0.13728,-0.04699 0.20619,-0.06873 0.0346,-0.01092 0.0692,-0.02172 0.10387,-0.03204 0.0698,-0.02075 0.13974,-0.04006 0.2098,-0.05839 0.032,-0.0084 0.064,-0.01693 0.0961,-0.02481 0.0678,-0.01662 0.13564,-0.03164 0.20361,-0.04599 0.0398,-0.0084 0.0795,-0.01718 0.11937,-0.02481 0.0638,-0.01221 0.12776,-0.02234 0.19172,-0.03255 0.0386,-0.0062 0.0771,-0.01317 0.11575,-0.01861 0.0671,-0.0094 0.13435,-0.01651 0.20154,-0.02377 0.0381,-0.0041 0.0761,-0.009 0.11421,-0.0124 0.0665,-0.0059 0.1329,-0.0096 0.19947,-0.01344 0.0377,-0.0022 0.0754,-0.0058 0.11317,-0.0072 0.0823,-0.0032 0.16469,-0.0037 0.24701,-0.0036 0.0205,2.1e-5 0.041,-0.0013 0.0615,-0.001 0.10538,0.0012 0.211,0.0053 0.31626,0.01189 1.7e-4,1e-5 3.4e-4,-1.1e-5 5.1e-4,0 -0.0699,0.07924 -0.14215,0.15653 -0.216,0.232029 -0.001,0.001 -0.002,0.0021 -0.003,0.0031 -0.0128,0.01305 -0.0264,0.0253 -0.0393,0.03824 -0.0583,0.05848 -0.11711,0.116456 -0.17777,0.172598 -0.027,0.02502 -0.0552,0.04883 -0.0827,0.07338 -0.0523,0.04673 -0.10469,0.0935 -0.15864,0.138493 -0.0233,0.01944 -0.0477,0.03773 -0.0713,0.05685 -0.0577,0.04672 -0.11569,0.09321 -0.17518,0.137975 -0.0285,0.02147 -0.0579,0.04203 -0.0868,0.06305 -0.0546,0.03964 -0.10935,0.07879 -0.16536,0.11679 -0.0382,0.02589 -0.077,0.05084 -0.11576,0.07596 -0.0472,0.03054 -0.0945,0.06104 -0.14262,0.09043 -0.0436,0.02665 -0.0879,0.05234 -0.13229,0.07803 -0.0497,0.02879 -0.0997,0.05717 -0.15038,0.08475 -0.0378,0.0206 -0.0759,0.0406 -0.11421,0.0605 -0.0613,0.0318 -0.12295,0.063 -0.18552,0.093 -0.0351,0.0169 -0.0704,0.0333 -0.10593,0.0496 -0.0574,0.0263 -0.11519,0.0521 -0.17364,0.077 -0.0462,0.0197 -0.0927,0.0391 -0.13952,0.0579 -0.0509,0.0203 -0.10239,0.0397 -0.154,0.0589 -0.0538,0.0201 -0.10767,0.0401 -0.16226,0.0589 -0.051,0.0176 -0.10283,0.0341 -0.15452,0.0506 -0.0488,0.0156 -0.0974,0.0313 -0.14675,0.046 -0.0646,0.0192 -0.13022,0.0367 -0.19586,0.0543 -0.0443,0.0118 -0.0885,0.0241 -0.13333,0.0351 -0.0657,0.0162 -0.13228,0.0309 -0.19895,0.0455 -0.0431,0.009 -0.0857,0.0197 -0.12919,0.0284 -0.0808,0.0162 -0.16285,0.0301 -0.24495,0.0439 -0.0316,0.005 -0.0627,0.0116 -0.0946,0.0165 -0.0718,0.0112 -0.14475,0.0201 -0.21756,0.0294 -0.0477,0.006 -0.095,0.0133 -0.14314,0.0186 -0.001,1.6e-4 -0.003,3.7e-4 -0.004,5.2e-4 -0.11372,0.0124 -0.22823,0.0226 -0.34416,0.0305 0.11585,0.008 0.23052,0.0181 0.34416,0.0305 0.001,1.5e-4 0.003,3.7e-4 0.004,5.2e-4 0.0481,0.005 0.0954,0.0125 0.14314,0.0186 0.0728,0.009 0.14571,0.0183 0.21756,0.0295 0.0318,0.005 0.0629,0.0112 0.0946,0.0165 0.0821,0.0138 0.16418,0.0277 0.24495,0.0439 0.0435,0.009 0.0861,0.019 0.12919,0.0284 0.0667,0.0146 0.13324,0.0292 0.19895,0.0455 0.0448,0.0111 0.089,0.0233 0.13333,0.0351 0.0656,0.0175 0.13122,0.0351 0.19586,0.0543 0.0494,0.0147 0.098,0.0304 0.14675,0.046 0.0514,0.0165 0.10276,0.0331 0.15348,0.0506 0.0568,0.0196 0.11303,0.0401 0.16899,0.061 0.0478,0.0179 0.0954,0.0359 0.14262,0.0548 0.0495,0.0197 0.0985,0.0402 0.14728,0.061 0.0552,0.0235 0.11006,0.0475 0.16433,0.0724 0.0441,0.0202 0.0878,0.041 0.13126,0.062 0.0499,0.0242 0.0992,0.0491 0.14831,0.0744 0.0465,0.0239 0.0928,0.0479 0.13849,0.0729 0.049,0.0267 0.0971,0.0543 0.14522,0.0822 0.0444,0.0257 0.0887,0.0514 0.13229,0.078 0.0464,0.0283 0.092,0.0574 0.13746,0.0868 0.0425,0.0275 0.0849,0.0548 0.1266,0.0832 0.0506,0.0344 0.0999,0.0702 0.14935,0.10594 0.0328,0.0237 0.0659,0.047 0.0982,0.0713 0.0591,0.0445 0.11683,0.0905 0.17415,0.13694 0.0236,0.0191 0.048,0.0374 0.0713,0.0568 0.054,0.045 0.10633,0.0918 0.15864,0.13849 0.0275,0.0245 0.0557,0.0484 0.0827,0.0734 0.0607,0.0561 0.11946,0.11412 0.17777,0.1726 0.0129,0.0129 0.0265,0.0252 0.0393,0.0382 0.001,0.001 0.002,0.002 0.003,0.003 0.0739,0.0755 0.14556,0.15279 0.21549,0.23203 1.50949,-0.0942 2.99904,-0.74358 4.27984,-1.96422 0.0845,-0.0805 0.16734,-0.16646 0.25063,-0.2527 -0.0833,-0.0862 -0.16612,-0.17216 -0.25063,-0.2527 -1.28051,-1.220367 -2.76967,-1.869813 -4.27881,-1.964219 1.00052,-1.133904 1.59355,-2.646693 1.63608,-4.415234 0.003,-0.116573 9.6e-4,-0.236316 -10e-4,-0.35605 -0.11988,-0.0021 -0.23935,-0.0038 -0.35605,-0.001 -1.76839,0.04253 -3.28136,0.636744 -4.41523,1.63711 z m 3.13521,7.569048 c -0.10526,0.007 -0.21088,0.0107 -0.31626,0.0119 -0.0205,2.2e-4 -0.041,-0.001 -0.0615,-0.001 -0.0823,9e-5 -0.16469,-4.2e-4 -0.24701,-0.004 -0.0378,-10e-4 -0.0754,-0.005 -0.11317,-0.007 -0.0666,-0.004 -0.13296,-0.007 -0.19947,-0.0134 -0.0381,-0.003 -0.0761,-0.008 -0.11421,-0.0124 -0.0672,-0.007 -0.13446,-0.0143 -0.20154,-0.0238 -0.0386,-0.005 -0.0772,-0.0124 -0.11575,-0.0186 -0.064,-0.0102 -0.12791,-0.0203 -0.19172,-0.0326 -0.0399,-0.008 -0.0796,-0.0164 -0.11937,-0.0248 -0.068,-0.0144 -0.13586,-0.0294 -0.20361,-0.046 -0.0321,-0.008 -0.0641,-0.0164 -0.0961,-0.0248 -0.0701,-0.0183 -0.14004,-0.0376 -0.2098,-0.0584 -0.0347,-0.0103 -0.0692,-0.0211 -0.10387,-0.032 -0.0689,-0.0217 -0.13763,-0.0446 -0.20619,-0.0687 -0.0333,-0.0117 -0.0666,-0.0234 -0.0997,-0.0357 -0.0661,-0.0244 -0.13168,-0.0504 -0.1974,-0.077 -0.041,-0.0166 -0.0821,-0.0332 -0.12299,-0.0506 -0.0546,-0.0234 -0.10899,-0.048 -0.1633,-0.0729 -0.0446,-0.0205 -0.0894,-0.0405 -0.13384,-0.062 -0.0611,-0.0296 -0.12176,-0.061 -0.18242,-0.0925 -0.0369,-0.0192 -0.0739,-0.038 -0.11059,-0.0579 -0.0606,-0.0328 -0.12072,-0.0675 -0.18086,-0.10232 -0.0385,-0.0223 -0.077,-0.0441 -0.11524,-0.0672 -0.0602,-0.0363 -0.12014,-0.0743 -0.17983,-0.11266 -0.0361,-0.0232 -0.0722,-0.0459 -0.10801,-0.0698 -0.0559,-0.0372 -0.11101,-0.0763 -0.1664,-0.11524 -0.041,-0.0289 -0.0823,-0.057 -0.12299,-0.0868 -0.0662,-0.0485 -0.13204,-0.0993 -0.1974,-0.15038 -0.0251,-0.0196 -0.0505,-0.0379 -0.0755,-0.0579 -0.0932,-0.0745 -0.18512,-0.15125 -0.27647,-0.231 0.0797,0.0914 0.15648,0.18331 0.231,0.27647 0.001,0.002 0.003,0.003 0.004,0.005 0.0185,0.0232 0.0356,0.047 0.0537,0.0703 0.0511,0.0654 0.10189,0.13123 0.15038,0.1974 0.0298,0.0407 0.0579,0.082 0.0868,0.12299 0.039,0.0554 0.078,0.1105 0.11524,0.1664 0.0239,0.0359 0.0466,0.0719 0.0698,0.108 0.0383,0.0597 0.0763,0.11961 0.11265,0.17984 0.0231,0.0383 0.0449,0.0768 0.0672,0.11524 0.0348,0.0601 0.0695,0.12024 0.10232,0.18087 0.0199,0.0367 0.0387,0.0737 0.0579,0.11058 0.0315,0.0607 0.0629,0.12134 0.0925,0.18242 0.0215,0.0444 0.0416,0.0892 0.062,0.13384 0.0249,0.0543 0.0495,0.10869 0.0729,0.1633 0.0175,0.0409 0.034,0.082 0.0506,0.12299 0.0266,0.0657 0.0526,0.1313 0.077,0.19741 0.0122,0.0332 0.024,0.0665 0.0357,0.0997 0.0241,0.0686 0.047,0.13728 0.0687,0.20619 0.0109,0.0346 0.0217,0.0692 0.032,0.10387 0.0208,0.0698 0.0401,0.13974 0.0584,0.2098 0.008,0.0321 0.0169,0.064 0.0248,0.0961 0.0166,0.0678 0.0316,0.13564 0.046,0.20361 0.008,0.0398 0.0172,0.0795 0.0248,0.11937 0.0122,0.0638 0.0223,0.12776 0.0326,0.19172 0.006,0.0386 0.0132,0.0771 0.0186,0.11576 0.009,0.0671 0.0165,0.13434 0.0238,0.20153 0.004,0.0381 0.009,0.0761 0.0124,0.11421 0.006,0.0665 0.01,0.1329 0.0134,0.19947 0.002,0.0377 0.006,0.0754 0.007,0.11317 0.003,0.0823 0.004,0.16469 0.004,0.24701 -2e-5,0.019 10e-4,0.0379 10e-4,0.0568 -10e-6,0.002 2e-5,0.003 0,0.005 -10e-4,0.10538 -0.005,0.21101 -0.0119,0.31626 1.13393,1.00066 2.64655,1.59457 4.41523,1.63711 0.1167,0.003 0.23617,0.001 0.35605,-0.001 0.002,-0.11987 0.004,-0.23934 0.001,-0.35605 -0.0425,-1.76839 -0.63674,-3.28136 -1.63711,-4.41523 z m -3.13521,3.13521 c -0.0792,-0.0699 -0.15653,-0.14164 -0.23203,-0.21549 -0.0141,-0.0138 -0.0274,-0.0285 -0.0413,-0.0424 -0.0585,-0.0583 -0.11646,-0.11711 -0.1726,-0.17776 -0.025,-0.027 -0.0488,-0.0552 -0.0734,-0.0827 -0.0467,-0.0523 -0.0935,-0.10469 -0.13849,-0.15864 -0.0194,-0.0233 -0.0377,-0.0477 -0.0568,-0.0713 -0.0467,-0.0577 -0.0932,-0.11569 -0.13797,-0.17518 -0.0215,-0.0285 -0.042,-0.0579 -0.0631,-0.0868 -0.0396,-0.0546 -0.0788,-0.10936 -0.11679,-0.16537 -0.0259,-0.0382 -0.0508,-0.077 -0.076,-0.11575 -0.0305,-0.0472 -0.0611,-0.0945 -0.0904,-0.14263 -0.0266,-0.0436 -0.0523,-0.0879 -0.078,-0.13229 -0.0285,-0.0492 -0.0564,-0.0987 -0.0837,-0.14883 -0.022,-0.0404 -0.0434,-0.081 -0.0646,-0.12196 -0.0298,-0.0576 -0.0591,-0.11545 -0.0873,-0.17415 -0.0181,-0.0376 -0.0358,-0.0756 -0.0532,-0.11368 -0.0256,-0.0559 -0.0507,-0.11212 -0.0749,-0.16899 -0.0208,-0.0488 -0.0412,-0.0978 -0.061,-0.14728 -0.0197,-0.0495 -0.0386,-0.0996 -0.0574,-0.14986 -0.0185,-0.0495 -0.0368,-0.0991 -0.0543,-0.14934 -0.0214,-0.0616 -0.0417,-0.12396 -0.0615,-0.18655 -0.013,-0.0411 -0.0259,-0.082 -0.0382,-0.12351 -0.0195,-0.0655 -0.0375,-0.13188 -0.0553,-0.19844 -0.0118,-0.0444 -0.0241,-0.0885 -0.0351,-0.13332 -0.0162,-0.0657 -0.0309,-0.13229 -0.0455,-0.19896 -0.009,-0.0431 -0.0197,-0.0857 -0.0284,-0.12919 -0.0162,-0.0808 -0.0301,-0.16284 -0.0439,-0.24494 -0.005,-0.0316 -0.0116,-0.0628 -0.0165,-0.0946 -0.0112,-0.0719 -0.0202,-0.14475 -0.0294,-0.21756 -0.006,-0.0477 -0.0133,-0.095 -0.0186,-0.14315 -0.0126,-0.115 -0.023,-0.23102 -0.031,-0.34829 -0.008,0.11585 -0.0181,0.23052 -0.0305,0.34416 -1.5e-4,0.001 -3.7e-4,0.003 -5.2e-4,0.004 -0.005,0.0481 -0.0125,0.0954 -0.0186,0.14315 -0.009,0.0728 -0.0183,0.14571 -0.0295,0.21756 -0.005,0.0318 -0.0112,0.063 -0.0165,0.0946 -0.0138,0.0821 -0.0277,0.16417 -0.0439,0.24494 -0.009,0.0435 -0.019,0.0861 -0.0284,0.12919 -0.0146,0.0667 -0.0292,0.13324 -0.0455,0.19896 -0.0111,0.0448 -0.0233,0.089 -0.0351,0.13332 -0.0175,0.0656 -0.0351,0.13122 -0.0543,0.19585 -0.0147,0.0494 -0.0304,0.098 -0.046,0.14677 -0.0164,0.0514 -0.0331,0.10275 -0.0506,0.15348 -0.0196,0.0568 -0.04,0.11302 -0.061,0.16898 -0.0179,0.0478 -0.0359,0.0955 -0.0548,0.14262 -0.0198,0.0495 -0.0402,0.0985 -0.061,0.14728 -0.0235,0.0552 -0.0475,0.11006 -0.0724,0.16433 -0.0202,0.0441 -0.041,0.0878 -0.062,0.13126 -0.0242,0.0499 -0.0491,0.0992 -0.0744,0.14831 -0.0239,0.0465 -0.0479,0.0928 -0.0729,0.1385 -0.0267,0.0489 -0.0543,0.0971 -0.0822,0.14521 -0.0257,0.0444 -0.0514,0.0887 -0.078,0.13229 -0.0283,0.0464 -0.0574,0.092 -0.0868,0.13746 -0.0275,0.0425 -0.0548,0.0849 -0.0832,0.1266 -0.0344,0.0506 -0.0702,0.0999 -0.10594,0.14935 -0.0237,0.0328 -0.047,0.0659 -0.0713,0.0982 -0.0445,0.0591 -0.0905,0.11682 -0.13694,0.17414 -0.0191,0.0236 -0.0374,0.048 -0.0568,0.0713 -0.045,0.054 -0.0918,0.10633 -0.13849,0.15864 -0.0246,0.0275 -0.0484,0.0557 -0.0734,0.0827 -0.0561,0.0606 -0.11412,0.11945 -0.1726,0.17776 -0.0129,0.0129 -0.0252,0.0265 -0.0382,0.0393 -0.001,0.001 -0.002,0.002 -0.003,0.003 -0.0755,0.0738 -0.15279,0.14556 -0.23203,0.21549 0.0942,1.50949 0.74357,2.99904 1.96422,4.27984 0.0805,0.0845 0.16646,0.16734 0.2527,0.25063 0.0861,-0.0832 0.17226,-0.16622 0.2527,-0.25063 1.22065,-1.2808 1.87005,-2.77035 1.96422,-4.27984 z m -4.43384,0 c -0.007,-0.10525 -0.0107,-0.21088 -0.0119,-0.31626 -2.2e-4,-0.0205 0.001,-0.041 0.001,-0.0615 -9e-5,-0.0823 4.2e-4,-0.16469 0.004,-0.24701 0.001,-0.0377 0.005,-0.0754 0.007,-0.11317 0.004,-0.0666 0.007,-0.13296 0.0134,-0.19947 0.003,-0.0381 0.008,-0.0761 0.0124,-0.11421 0.007,-0.0672 0.0143,-0.13446 0.0238,-0.20153 0.005,-0.0386 0.0124,-0.0772 0.0186,-0.11576 0.0102,-0.064 0.0203,-0.12791 0.0326,-0.19172 0.008,-0.0423 0.0174,-0.0844 0.0264,-0.12661 0.013,-0.061 0.026,-0.12208 0.0408,-0.18293 0.0104,-0.043 0.0222,-0.0858 0.0336,-0.12868 0.0166,-0.0628 0.0336,-0.12558 0.0522,-0.1881 0.0106,-0.0356 0.0219,-0.0709 0.0331,-0.10645 0.0217,-0.0689 0.0446,-0.13763 0.0687,-0.20619 0.0117,-0.0332 0.0234,-0.0666 0.0357,-0.0997 0.0244,-0.0661 0.0504,-0.13169 0.077,-0.19741 0.0166,-0.041 0.0332,-0.0821 0.0506,-0.12299 0.0234,-0.0546 0.048,-0.10898 0.0729,-0.1633 0.0205,-0.0447 0.0405,-0.0894 0.062,-0.13384 0.0296,-0.0611 0.061,-0.12176 0.0925,-0.18242 0.0192,-0.0369 0.038,-0.0739 0.0579,-0.11058 0.0328,-0.0606 0.0675,-0.12073 0.10232,-0.18087 0.0223,-0.0385 0.0441,-0.077 0.0672,-0.11524 0.0363,-0.0602 0.0744,-0.12014 0.11266,-0.17984 0.0232,-0.0361 0.0459,-0.0721 0.0698,-0.108 0.0372,-0.0559 0.0763,-0.11101 0.11524,-0.1664 0.0289,-0.041 0.057,-0.0823 0.0868,-0.12299 0.0485,-0.0662 0.0993,-0.13204 0.15038,-0.1974 0.0196,-0.0251 0.0379,-0.0505 0.0579,-0.0755 0.0745,-0.0932 0.15125,-0.18512 0.231,-0.27647 -0.0914,0.0798 -0.18331,0.15648 -0.27647,0.231 -0.002,0.001 -0.003,0.003 -0.005,0.004 -0.0232,0.0185 -0.047,0.0356 -0.0703,0.0537 -0.0654,0.0511 -0.13123,0.10189 -0.1974,0.15038 -0.0407,0.0298 -0.082,0.058 -0.12299,0.0868 -0.0554,0.039 -0.1105,0.078 -0.1664,0.11524 -0.0359,0.0239 -0.0719,0.0466 -0.10801,0.0698 -0.0597,0.0383 -0.1196,0.0763 -0.17983,0.11266 -0.0383,0.0231 -0.0768,0.0449 -0.11524,0.0672 -0.0601,0.0348 -0.12024,0.0695 -0.18087,0.10232 -0.0367,0.0199 -0.0737,0.0387 -0.11058,0.0579 -0.0607,0.0315 -0.12133,0.0629 -0.18242,0.0925 -0.0444,0.0215 -0.0892,0.0416 -0.13384,0.062 -0.0543,0.0249 -0.10869,0.0495 -0.1633,0.0729 -0.0409,0.0175 -0.082,0.034 -0.12299,0.0506 -0.0657,0.0266 -0.1313,0.0526 -0.1974,0.077 -0.0332,0.0123 -0.0665,0.024 -0.0997,0.0357 -0.0686,0.0241 -0.13728,0.047 -0.20619,0.0687 -0.0346,0.0109 -0.0692,0.0217 -0.10387,0.032 -0.0698,0.0207 -0.13974,0.0401 -0.2098,0.0584 -0.0321,0.008 -0.064,0.0169 -0.0961,0.0248 -0.0678,0.0166 -0.13564,0.0316 -0.20361,0.046 -0.0398,0.008 -0.0795,0.0172 -0.11937,0.0248 -0.0638,0.0122 -0.12776,0.0223 -0.19172,0.0326 -0.0386,0.006 -0.0771,0.0132 -0.11576,0.0186 -0.0671,0.009 -0.13434,0.0165 -0.20153,0.0238 -0.0381,0.004 -0.0761,0.009 -0.11421,0.0124 -0.0665,0.006 -0.1329,0.01 -0.19947,0.0134 -0.0377,0.002 -0.0754,0.006 -0.11317,0.007 -0.0823,0.003 -0.16469,0.004 -0.24701,0.004 -0.019,-2e-5 -0.0379,10e-4 -0.0569,10e-4 -0.002,-2e-5 -0.003,1e-5 -0.005,0 -0.10538,-10e-4 -0.21101,-0.005 -0.31626,-0.0119 -1.7e-4,-1e-5 -3.4e-4,1e-5 -5.2e-4,0 0.0699,-0.0792 0.14216,-0.15653 0.21601,-0.23203 0.0138,-0.0141 0.0285,-0.0274 0.0424,-0.0413 0.0583,-0.0585 0.11711,-0.11646 0.17776,-0.1726 0.027,-0.025 0.0552,-0.0488 0.0827,-0.0734 0.0523,-0.0467 0.10469,-0.0935 0.15864,-0.13849 0.0233,-0.0195 0.0477,-0.0377 0.0713,-0.0568 0.0577,-0.0467 0.11569,-0.0932 0.17518,-0.13797 0.0285,-0.0215 0.0579,-0.042 0.0868,-0.0631 0.0546,-0.0396 0.10935,-0.0788 0.16536,-0.11679 0.0382,-0.0259 0.077,-0.0508 0.11576,-0.076 0.0472,-0.0305 0.0945,-0.061 0.14262,-0.0904 0.0436,-0.0267 0.0879,-0.0523 0.13229,-0.078 0.0497,-0.0288 0.0997,-0.0572 0.15038,-0.0847 0.0378,-0.0206 0.0759,-0.0406 0.11421,-0.0605 0.0613,-0.0318 0.12294,-0.063 0.18552,-0.093 0.0351,-0.0169 0.0704,-0.0333 0.10593,-0.0496 0.0567,-0.026 0.11389,-0.0514 0.17157,-0.076 0.0488,-0.0208 0.0978,-0.0412 0.14728,-0.061 0.0472,-0.0188 0.0948,-0.0369 0.14262,-0.0548 0.056,-0.0209 0.11217,-0.0414 0.16898,-0.061 0.0507,-0.0175 0.10209,-0.0342 0.15348,-0.0506 0.0488,-0.0156 0.0974,-0.0313 0.14677,-0.046 0.0646,-0.0192 0.1302,-0.0367 0.19585,-0.0543 0.0443,-0.0118 0.0885,-0.0241 0.13332,-0.0351 0.0657,-0.0162 0.13229,-0.0309 0.19896,-0.0455 0.0431,-0.009 0.0857,-0.0197 0.12919,-0.0284 0.0808,-0.0162 0.16285,-0.0301 0.24495,-0.0439 0.0316,-0.005 0.0628,-0.0116 0.0946,-0.0165 0.0718,-0.0112 0.14475,-0.0202 0.21756,-0.0295 0.0477,-0.006 0.095,-0.0133 0.14315,-0.0186 0.115,-0.0126 0.23102,-0.023 0.34829,-0.031 -0.11727,-0.008 -0.23329,-0.0184 -0.34829,-0.031 -0.0481,-0.005 -0.0954,-0.0125 -0.14315,-0.0186 -0.0728,-0.009 -0.14571,-0.0183 -0.21756,-0.0294 -0.0318,-0.005 -0.063,-0.0112 -0.0946,-0.0165 -0.0821,-0.0138 -0.16418,-0.0277 -0.24495,-0.0439 -0.0435,-0.009 -0.0861,-0.019 -0.12919,-0.0284 -0.0667,-0.0146 -0.13324,-0.0292 -0.19896,-0.0455 -0.0448,-0.0111 -0.089,-0.0233 -0.13332,-0.0351 -0.0657,-0.0175 -0.13122,-0.0351 -0.19585,-0.0543 -0.0494,-0.0147 -0.098,-0.0304 -0.14677,-0.046 -0.0514,-0.0164 -0.10275,-0.0331 -0.15348,-0.0506 -0.0568,-0.0196 -0.11302,-0.04 -0.16898,-0.061 -0.0478,-0.0179 -0.0954,-0.0359 -0.14262,-0.0548 -0.0495,-0.0197 -0.0985,-0.0402 -0.14728,-0.061 -0.0552,-0.0235 -0.11006,-0.0475 -0.16433,-0.0724 -0.0441,-0.0202 -0.0878,-0.041 -0.13126,-0.062 -0.0499,-0.0242 -0.0992,-0.0491 -0.14831,-0.0744 -0.0465,-0.0239 -0.0928,-0.0479 -0.13849,-0.0729 -0.049,-0.02669 -0.0972,-0.05434 -0.14522,-0.08216 -0.0444,-0.0257 -0.0887,-0.05138 -0.13229,-0.07803 -0.0464,-0.02832 -0.092,-0.05743 -0.13746,-0.08682 -0.0425,-0.02745 -0.0849,-0.05483 -0.1266,-0.0832 -0.0506,-0.0344 -0.0999,-0.0702 -0.14935,-0.105937 -0.0328,-0.02371 -0.0659,-0.04702 -0.0982,-0.07132 -0.0591,-0.04447 -0.11682,-0.09053 -0.17414,-0.13694 -0.0236,-0.01912 -0.048,-0.0374 -0.0713,-0.05685 -0.054,-0.045 -0.10633,-0.09177 -0.15864,-0.138493 -0.0275,-0.02455 -0.0557,-0.04836 -0.0827,-0.07338 -0.0606,-0.05614 -0.11944,-0.114115 -0.17776,-0.172598 -0.0139,-0.01397 -0.0286,-0.02724 -0.0424,-0.04134 -0.0738,-0.0755 -0.14556,-0.152789 -0.21549,-0.232029 -1.50949,0.09417 -2.99904,0.743577 -4.27984,1.964217 -0.0844,0.0804 -0.16743,0.16657 -0.25063,0.2527 0.0832,0.0861 0.16622,0.17225 0.25063,0.2527 1.28051,1.22037 2.76967,1.86981 4.27881,1.96422 -1.00052,1.1339 -1.59355,2.64669 -1.63608,4.41523 -0.003,0.11671 -9.7e-4,0.23618 0.001,0.35605 0.11973,0.002 0.23948,0.004 0.35605,10e-4 1.76839,-0.0425 3.28136,-0.63674 4.41523,-1.63711 z m 1.62367,-5.35213 c 0.17913,0.0121 0.36059,0.019 0.54467,0.0202 0.007,-0.007 0.0121,-0.0136 0.0186,-0.0202 -0.007,-0.007 -0.0121,-0.0136 -0.0186,-0.0202 -0.18408,10e-4 -0.36554,0.008 -0.54467,0.0202 z m 0.54467,-0.0202 c 0.009,-6e-5 0.0181,-0.001 0.0274,-0.001 3e-5,-0.009 9.8e-4,-0.0181 0.001,-0.0274 -0.13096,-0.12938 -0.26422,-0.25298 -0.39946,-0.37104 0.11806,0.13525 0.24166,0.2685 0.37103,0.39946 z m 0.0284,-0.0284 c 0.007,0.006 0.0136,0.0121 0.0202,0.0186 0.007,-0.007 0.0136,-0.0121 0.0202,-0.0186 -10e-4,-0.18409 -0.008,-0.36555 -0.0202,-0.54468 -0.0122,0.17913 -0.019,0.36059 -0.0202,0.54468 z m 0.0403,0 c 6e-5,0.009 10e-4,0.0181 10e-4,0.0274 0.009,2e-5 0.0181,9.8e-4 0.0274,0.001 0.12937,-0.13096 0.25297,-0.26421 0.37103,-0.39946 -0.13524,0.11806 -0.26851,0.24166 -0.39946,0.37104 z m 0.0284,0.0284 c -0.007,0.007 -0.0121,0.0136 -0.0186,0.0202 0.007,0.007 0.0121,0.0136 0.0186,0.0202 0.18408,-10e-4 0.36554,-0.008 0.54467,-0.0202 -0.17913,-0.0122 -0.36059,-0.019 -0.54467,-0.0202 z m 0,0.0403 c -0.009,6e-5 -0.0181,10e-4 -0.0274,10e-4 -2e-5,0.009 -9.8e-4,0.0181 -10e-4,0.0274 0.13095,0.12937 0.26422,0.25297 0.39946,0.37103 -0.11806,-0.13525 -0.24166,-0.2685 -0.37103,-0.39946 z m -0.0284,0.0284 c -0.007,-0.007 -0.0136,-0.0121 -0.0202,-0.0186 -0.007,0.007 -0.0136,0.0121 -0.0202,0.0186 0.001,0.18408 0.008,0.36554 0.0202,0.54467 0.0122,-0.17913 0.019,-0.36059 0.0202,-0.54467 z m -0.0403,0 c -6e-5,-0.009 -0.001,-0.0181 -0.001,-0.0274 -0.009,-2e-5 -0.0181,-9.8e-4 -0.0274,-10e-4 -0.12937,0.13096 -0.25297,0.26421 -0.37103,0.39946 0.13524,-0.11806 0.2685,-0.24166 0.39946,-0.37103 z"
       style="opacity:1;fill:#f9a81c;fill-opacity:1;fill-rule:evenodd;stroke:none;stroke-width:0.26458332px;stroke-linecap:butt;stroke-linejoin:miter;stroke-opacity:1" />
    <path
       id="path4537"
       d="m 110.88817,95.530385 c -0.10684,1.710188 0.49979,3.446071 1.79782,4.933035 0.13525,0.11806 0.26851,0.24166 0.39946,0.37104 0.001,-0.18409 0.008,-0.36555 0.0202,-0.54468 -0.13361,-1.96948 -0.93238,-3.625647 -2.21744,-4.759395 z m 2.21744,4.759395 c 0.0122,0.17913 0.019,0.36059 0.0202,0.54468 0.13095,-0.12938 0.26421,-0.25298 0.39946,-0.37104 1.2979,-1.486816 1.90399,-3.222498 1.7973,-4.932519 -1.28473,1.133737 -2.08333,2.789677 -2.21691,4.758879 z m 0.41961,0.17364 c -0.11806,0.13525 -0.24166,0.2685 -0.37104,0.39946 0.18408,10e-4 0.36555,0.008 0.54467,0.0202 1.96921,-0.13359 3.62515,-0.932185 4.75888,-2.216922 -1.71002,-0.106683 -3.4457,0.499406 -4.93251,1.797302 z m 0.17363,0.41961 c -0.17912,0.0121 -0.36059,0.019 -0.54467,0.0202 0.12938,0.13096 0.25298,0.26421 0.37104,0.39946 1.48696,1.29803 3.22285,1.90466 4.93303,1.79782 -1.13375,-1.28505 -2.78991,-2.08383 -4.7594,-2.21743 z m -0.17363,0.41961 c -0.13525,-0.11806 -0.26851,-0.24166 -0.39946,-0.37103 -0.001,0.18408 -0.008,0.36554 -0.0202,0.54467 0.13358,1.9692 0.93218,3.62566 2.21691,4.7594 0.10684,-1.71019 -0.49927,-3.44607 -1.7973,-4.93304 z m -0.41961,0.17364 c -0.0122,-0.17913 -0.019,-0.36059 -0.0202,-0.54467 -0.13095,0.12937 -0.26421,0.25297 -0.39946,0.37103 -1.29803,1.48697 -1.90465,3.22285 -1.79782,4.93304 1.28506,-1.13375 2.08383,-2.78992 2.21744,-4.7594 z m -0.41962,-0.17364 c 0.11806,-0.13525 0.24166,-0.2685 0.37104,-0.39946 -0.18408,-0.001 -0.36555,-0.008 -0.54467,-0.0202 -1.96948,0.13361 -3.62617,0.93238 -4.75991,2.21744 1.71035,0.10699 3.44643,-0.49966 4.93354,-1.79782 z m -0.17363,-0.41961 c 0.17912,-0.0122 0.36059,-0.019 0.54467,-0.0202 -0.12938,-0.13095 -0.25298,-0.26421 -0.37104,-0.39946 -1.48696,-1.298032 -3.22284,-1.904143 -4.93303,-1.797306 1.13374,1.284737 2.7902,2.083336 4.7594,2.216916 z"
       style="opacity:1;fill:#f78d1f;fill-opacity:1;fill-rule:evenodd;stroke:none;stroke-width:0.26458332px;stroke-linecap:butt;stroke-linejoin:miter;stroke-opacity:1" />
    <path
       id="path4572"
       d="m 123.36657,86.74719 c -1.44597,0.03594 -3.16354,0.423447 -4.83795,1.047999 0.91994,2.013802 1.53245,4.237455 1.56528,6.099368 1.86191,0.03265 4.08689,0.646861 6.10092,1.566831 1.19114,-3.193984 1.51651,-6.546051 0.19844,-7.864121 -0.62705,-0.627052 -1.71463,-0.882684 -3.02669,-0.850077 z M 113.115,100.86312 c 0.002,0.002 0.004,0.004 0.006,0.006 0.002,0.002 0.004,0.004 0.006,0.006 0,-0.004 -4e-4,-0.008 -5.2e-4,-0.0119 -0.004,-1e-5 -0.008,-5.1e-4 -0.0119,-5.2e-4 z m -0.0315,0.0305 c 0,0.004 3.8e-4,0.009 5.1e-4,0.0129 0.004,1e-5 0.009,5.1e-4 0.0129,5.2e-4 -0.002,-0.002 -0.004,-0.004 -0.007,-0.007 -0.002,-0.002 -0.005,-0.004 -0.007,-0.007 z m -13.06742,5.41466 c -1.191141,3.19398 -1.516515,6.54605 -0.19844,7.86412 1.31809,1.3181 4.67016,0.9932 7.86412,-0.19792 -0.91986,-2.01379 -1.53151,-4.23756 -1.56425,-6.09937 -1.86201,-0.0326 -4.08721,-0.64678 -6.10143,-1.56683 z"
       style="fill:#ffde79;fill-opacity:1;fill-rule:evenodd;stroke:none;stroke-width:0.26458332px;stroke-linecap:butt;stroke-linejoin:miter;stroke-opacity:1" />
    <path
       style="fill:#ffde79;fill-opacity:1;fill-rule:evenodd;stroke:none;stroke-width:0.26458332px;stroke-linecap:butt;stroke-linejoin:miter;stroke-opacity:1"
       d="m 98.968168,90.623349 c 0.03594,1.44597 0.423447,3.16354 1.048002,4.83795 2.0138,-0.91994 4.23745,-1.53245 6.09937,-1.56528 0.0327,-1.86191 0.64686,-4.08689 1.56683,-6.10092 -3.19399,-1.19114 -6.54605,-1.51651 -7.864125,-0.19844 -0.627052,0.62705 -0.882684,1.71463 -0.850077,3.02669 z M 113.0841,100.87492 c 0.002,-0.002 0.004,-0.004 0.006,-0.006 0.002,-0.002 0.004,-0.004 0.006,-0.006 -0.004,0 -0.008,4e-4 -0.0119,5.2e-4 -10e-6,0.004 -5.1e-4,0.008 -5.2e-4,0.0119 z m 0.0305,0.0315 c 0.004,0 0.009,-3.8e-4 0.0129,-5.1e-4 1e-5,-0.004 5.1e-4,-0.009 5.2e-4,-0.0129 -0.002,0.002 -0.004,0.004 -0.007,0.007 -0.002,0.002 -0.004,0.005 -0.007,0.007 z m 5.41466,13.06742 c 3.19398,1.19114 6.54605,1.51651 7.86412,0.19844 1.3181,-1.31809 0.9932,-4.67016 -0.19792,-7.86412 -2.01379,0.91986 -4.23756,1.53151 -6.09937,1.56425 -0.0326,1.86201 -0.64678,4.08721 -1.56683,6.10143 z"
       id="path4583" />
    <path
       id="path4585"
       d="m 113.10684,82.091053 c -1.86458,0 -4.00772,2.601754 -5.42447,5.704046 2.07512,0.773986 4.08386,1.910659 5.42396,3.204972 1.33991,-1.294244 3.34871,-2.432587 5.42396,-3.206522 -1.41676,-3.101634 -3.55916,-5.702496 -5.42345,-5.702496 z m 0,18.761127 c -0.003,0.003 -0.006,0.006 -0.009,0.009 0.003,-1e-5 0.006,0 0.009,0 0.003,0 0.006,-1e-5 0.009,0 -0.003,-0.003 -0.006,-0.006 -0.009,-0.009 z m -0.009,0.0527 c 0.003,0.003 0.006,0.005 0.009,0.008 0.003,-0.003 0.006,-0.005 0.009,-0.008 -0.003,10e-6 -0.006,0 -0.009,0 -0.003,0 -0.006,10e-6 -0.009,0 z m 0.008,9.8609 c -1.3399,1.2941 -3.34842,2.43269 -5.42344,3.20652 1.41676,3.10164 3.55967,5.70198 5.42395,5.70198 1.86429,0 4.00669,-2.60034 5.42345,-5.70198 -2.07525,-0.77384 -4.08404,-1.91229 -5.42396,-3.20652 z"
       style="fill:#fecb34;fill-opacity:1;fill-rule:evenodd;stroke:none;stroke-width:0.26458332px;stroke-linecap:butt;stroke-linejoin:miter;stroke-opacity:1" />
    <path
       style="fill:#fecb34;fill-opacity:1;fill-rule:evenodd;stroke:none;stroke-width:0.26458332px;stroke-linecap:butt;stroke-linejoin:miter;stroke-opacity:1"
       d="m 131.89794,100.88318 c 0,-1.864583 -2.60175,-4.007723 -5.70404,-5.424473 -0.77399,2.07512 -1.91066,4.08386 -3.20497,5.423963 1.29424,1.33991 2.43258,3.34871 3.20652,5.42396 3.10163,-1.41676 5.70249,-3.55916 5.70249,-5.42345 z m -18.76112,0 c -0.003,-0.003 -0.006,-0.006 -0.009,-0.009 1e-5,0.003 0,0.006 0,0.009 0,0.003 1e-5,0.006 0,0.009 0.003,-0.003 0.006,-0.006 0.009,-0.009 z m -0.0527,-0.009 c -0.003,0.003 -0.005,0.006 -0.008,0.009 0.003,0.003 0.005,0.006 0.008,0.009 -1e-5,-0.003 0,-0.006 0,-0.009 0,-0.003 -1e-5,-0.006 0,-0.009 z m -9.8609,0.008 c -1.2941,-1.339903 -2.43269,-3.348423 -3.20652,-5.423443 -3.101643,1.41676 -5.701983,3.55967 -5.701983,5.423953 0,1.86429 2.60034,4.00669 5.701983,5.42345 0.77384,-2.07525 1.91229,-4.08404 3.20652,-5.42396 z"
       id="path4596" />
    <path
       id="path4558"
       d="m 118.52712,87.792033 c -0.25941,0.09674 -0.51796,0.199237 -0.77411,0.306959 -1.79225,0.754005 -3.47583,1.767036 -4.64778,2.899048 -1.7e-4,-1.67e-4 -3.5e-4,-3.52e-4 -5.2e-4,-5.19e-4 -4.3e-4,4.18e-4 -10e-4,6.17e-4 -0.002,10e-4 -1.33931,-1.293548 -3.34652,-2.429465 -5.42034,-3.203422 -0.91879,2.013223 -1.53298,4.236305 -1.56528,6.097302 -1.86212,0.03229 -4.08673,0.647113 -6.10092,1.566831 0.77372,2.074026 1.91156,4.081364 3.20498,5.420868 0.0827,-0.0856 0.1652,-0.17125 0.24908,-0.25115 1.28065,-1.220514 2.77001,-1.869954 4.27932,-1.964234 h 5.2e-4 c -1.00037,-1.133868 -1.59461,-2.646838 -1.63711,-4.415231 -0.003,-0.116572 -9.7e-4,-0.236318 0.001,-0.356049 0.11973,-0.0022 0.23948,-0.0038 0.35605,-10e-4 1.76854,0.04253 3.28134,0.635558 4.41524,1.636075 0.0944,-1.509136 0.74385,-2.998293 1.96422,-4.278807 0.0804,-0.08433 0.16618,-0.166995 0.25218,-0.250114 l -5.2e-4,-5.18e-4 h 0.001 v 5.18e-4 c 0.0859,0.08302 0.17198,0.165873 0.25218,0.250114 1.22065,1.280805 1.87002,2.770354 1.96422,4.279841 0,0 5.1e-4,0 5.1e-4,0 1.13387,-1.000365 2.64685,-1.59458 4.41524,-1.637109 0.1167,-0.0027 0.23617,-0.0011 0.35605,10e-4 0.002,0.119731 0.004,0.239477 0.001,0.356049 -0.0425,1.768541 -0.63555,3.281331 -1.63607,4.415231 1.50914,0.0944 2.99831,0.74386 4.27881,1.964234 0.0845,0.0805 0.16733,0.16649 0.25063,0.2527 -0.0833,0.0862 -0.16613,0.17219 -0.25063,0.25269 -1.2808,1.22064 -2.77036,1.87002 -4.27985,1.96422 l 5.2e-4,5.2e-4 c 1.00008,1.13381 1.59409,2.64661 1.63659,4.41472 0.003,0.11671 9.7e-4,0.23617 -0.001,0.35604 -0.11988,0.002 -0.23935,0.004 -0.35605,0.001 -1.76868,-0.0425 -3.2813,-0.63644 -4.41524,-1.6371 -0.0943,1.50931 -0.74371,2.99918 -1.96422,4.27983 -0.0804,0.0844 -0.16659,0.16743 -0.25269,0.25064 1.7e-4,1.6e-4 3.4e-4,3.5e-4 5.1e-4,5.1e-4 6.1e-4,-5.8e-4 0.001,-9.7e-4 0.002,-0.002 1.33948,1.29383 3.34734,2.43209 5.42189,3.20601 0.91959,-2.01406 1.53443,-4.23844 1.56683,-6.1004 1.86197,-0.0324 4.08635,-0.64723 6.1004,-1.56683 -0.77382,-2.07429 -1.91187,-4.08187 -3.20549,-5.42137 1.29363,-1.339494 2.43167,-3.347087 3.20549,-5.421378 -2.01405,-0.919591 -4.23843,-1.53443 -6.1004,-1.566831 -0.0323,-1.861968 -0.64724,-4.086349 -1.56683,-6.100403 z m -5.42447,22.972237 c -0.0862,-0.0833 -0.1722,-0.16614 -0.2527,-0.25064 -1.22065,-1.2808 -1.87002,-2.77035 -1.96422,-4.27983 -1.13381,1.00008 -2.64713,1.59461 -4.41524,1.6371 -0.11555,0.003 -0.23426,10e-4 -0.35295,-0.001 0.0326,1.86163 0.64752,4.08527 1.56683,6.09885 0.25768,-0.0961 0.51448,-0.1979 0.76895,-0.30489 0.002,-6.6e-4 0.003,-0.001 0.005,-0.002 0.25444,-0.10705 0.5066,-0.21932 0.75551,-0.33641 0.002,-7.2e-4 0.003,-0.001 0.005,-0.002 0.24899,-0.1172 0.49473,-0.23942 0.73587,-0.36587 10e-4,-7.2e-4 0.003,-10e-4 0.004,-0.002 0.48364,-0.25388 0.94906,-0.52564 1.38699,-0.81184 0.65876,-0.43052 1.25505,-0.89396 1.75752,-1.37924 z m 2.21691,-15.234725 c 0.008,0.125807 0.0107,0.25178 0.0109,0.377754 0,-0.01895 0.001,-0.0379 0.001,-0.05684 -1e-5,-0.0017 2e-5,-0.0031 0,-0.0047 -0.001,-0.10538 -0.005,-0.211005 -0.0119,-0.316259 z m -5.1e-4,0 c -0.0792,0.06993 -0.15653,0.141642 -0.23203,0.21549 -9.6e-4,9.4e-4 -0.002,0.0022 -0.003,0.0031 0.0764,-0.07476 0.15441,-0.147812 0.23461,-0.218591 z m -0.23461,0.218591 c -0.013,0.01296 -0.0257,0.02628 -0.0388,0.03927 -0.0585,0.05832 -0.1165,0.117118 -0.1726,0.177768 0.0686,-0.07412 0.1392,-0.146452 0.21136,-0.217043 z m -0.21808,0.224277 c -0.002,0.0021 -0.004,0.0041 -0.006,0.0062 -0.01,0.01059 -0.0188,0.02189 -0.0284,0.03255 0.01,-0.01088 0.0192,-0.02179 0.0289,-0.03255 0.002,-0.002 0.003,-0.0042 0.005,-0.0062 z m -0.0341,0.03876 c -0.0108,0.01226 -0.0217,0.0245 -0.0326,0.03669 -0.0467,0.05231 -0.0935,0.104696 -0.13849,0.158645 -0.003,0.0027 -0.005,0.0054 -0.007,0.0083 0.0577,-0.06938 0.11731,-0.136893 0.17777,-0.203605 z m -0.17777,0.203605 c -0.002,0.0021 -0.003,0.0041 -0.005,0.0062 -0.006,0.0069 -0.0109,0.01427 -0.0165,0.02119 0.006,-0.0071 0.0114,-0.01416 0.017,-0.02119 0.002,-0.002 0.003,-0.0041 0.005,-0.0062 z m -0.0217,0.02739 c -0.01,0.01193 -0.0194,0.02382 -0.0289,0.03566 -0.0464,0.05732 -0.0925,0.115078 -0.13695,0.174149 -0.004,0.0045 -0.007,0.0094 -0.01,0.01395 0.0569,-0.07601 0.11566,-0.150556 0.17571,-0.223758 z m -0.20258,0.260447 c -0.0114,0.01592 -0.0231,0.03167 -0.0346,0.04754 -0.0357,0.04943 -0.0715,0.09877 -0.10594,0.149347 -0.006,0.0083 -0.0105,0.01692 -0.0165,0.02532 0.0508,-0.0754 0.10339,-0.14936 0.15709,-0.222211 z m -0.18655,0.267169 c -0.0123,0.01885 -0.025,0.03741 -0.0372,0.05633 -0.0294,0.04548 -0.0585,0.0911 -0.0868,0.137459 -0.004,0.0075 -0.008,0.01524 -0.0134,0.02274 0.0445,-0.07341 0.0904,-0.145304 0.13746,-0.216524 z m -0.18965,0.305924 c -0.004,0.0068 -0.008,0.01335 -0.0119,0.02015 -0.0279,0.04807 -0.056,0.09626 -0.0827,0.145211 -0.006,0.01041 -0.0105,0.02107 -0.0165,0.03152 0.0358,-0.06655 0.0732,-0.131955 0.1111,-0.196887 z m -0.14676,0.264068 c -0.007,0.01328 -0.0137,0.02648 -0.0207,0.03979 -0.0253,0.04909 -0.0502,0.09838 -0.0744,0.14831 -0.008,0.01558 -0.0152,0.03139 -0.0222,0.04703 0.0377,-0.07951 0.0768,-0.157708 0.11731,-0.235127 z m -0.13591,0.273883 c -0.007,0.01515 -0.0142,0.03024 -0.0212,0.04548 -0.025,0.05428 -0.0489,0.109119 -0.0724,0.16433 -0.007,0.01644 -0.0137,0.0331 -0.0207,0.04961 0.0364,-0.08745 0.0745,-0.174276 0.11421,-0.259416 z m -0.13643,0.313677 c -0.006,0.01453 -0.0121,0.02881 -0.0181,0.04341 -0.0189,0.04717 -0.0369,0.09482 -0.0548,0.142629 -0.007,0.01798 -0.0126,0.03621 -0.0196,0.05426 0.0295,-0.08102 0.0603,-0.161094 0.0925,-0.240294 z m -0.12247,0.323495 c -0.003,0.01056 -0.007,0.02091 -0.0114,0.03152 -0.0175,0.05072 -0.0342,0.102075 -0.0506,0.153475 -0.01,0.0304 -0.0184,0.061 -0.0284,0.0915 0.0284,-0.0932 0.0585,-0.185435 0.0904,-0.276465 z m -0.0966,0.295585 c -0.003,0.0121 -0.007,0.024 -0.0114,0.0362 -0.0192,0.0646 -0.0368,0.13022 -0.0543,0.19586 -0.007,0.0256 -0.0132,0.0514 -0.0202,0.077 0.0267,-0.10428 0.055,-0.20725 0.0858,-0.30903 z m 4.72271,0.10646 c -0.0203,-1.8e-4 -0.0407,10e-4 -0.061,10e-4 -0.0823,-1e-4 -0.16472,4.2e-4 -0.24702,0.004 -0.002,0 -0.004,4.3e-4 -0.006,5.1e-4 0.21023,-0.008 0.42048,-0.006 0.63045,0.007 -0.10508,-0.007 -0.21053,-0.0106 -0.31574,-0.0119 z m 0.31625,0.0119 c -0.0699,0.0792 -0.14169,0.15656 -0.21549,0.23202 0.0738,-0.0755 0.14611,-0.15278 0.21601,-0.23202 z m -6.9236,0.0646 c 0.003,0.006 0.005,0.0114 0.008,0.017 0.0296,0.0611 0.061,0.12177 0.0925,0.18242 -0.0345,-0.0663 -0.0682,-0.13271 -0.10025,-0.19947 z m 1.79213,0.15141 c -0.001,0.004 -0.002,0.009 -0.003,0.0134 0.001,-0.004 0.003,-0.009 0.004,-0.0134 z m -0.003,0.0134 c -0.002,0.006 -0.003,0.0117 -0.005,0.0176 -0.0163,0.0657 -0.0309,0.13229 -0.0455,0.19896 -0.004,0.019 -0.008,0.0379 -0.0124,0.0568 0.0195,-0.0919 0.04,-0.18323 0.0625,-0.27337 z m -0.0625,0.27337 c -0.003,0.016 -0.008,0.0315 -0.0109,0.0475 -7.3e-4,0.004 -0.001,0.007 -0.002,0.0109 8.7e-4,-0.004 0.002,-0.007 0.003,-0.0109 0.004,-0.0159 0.007,-0.0317 0.0103,-0.0475 z m -0.0129,0.0584 c -10e-4,0.005 -0.002,0.009 -0.003,0.0139 -0.0162,0.0808 -0.0301,0.16284 -0.0439,0.24494 0.0147,-0.0868 0.0297,-0.17353 0.047,-0.2589 z m 2.01021,0.0847 c -0.006,0.003 -0.011,0.005 -0.017,0.008 -0.0611,0.0296 -0.12172,0.061 -0.18242,0.0925 0.0662,-0.0344 0.13267,-0.0682 0.19947,-0.10025 z m -2.05931,0.185 c -0.004,0.0232 -0.009,0.0459 -0.0124,0.0692 -3.5e-4,0.002 -6.8e-4,0.004 -0.001,0.007 4.9e-4,-0.002 0.001,-0.004 0.002,-0.007 0.004,-0.0232 0.008,-0.0461 0.0119,-0.0692 z m -0.0134,0.076 c -5.7e-4,0.003 -10e-4,0.005 -0.002,0.008 -0.0111,0.0718 -0.0199,0.14474 -0.0289,0.21756 -0.004,0.0303 -0.008,0.0607 -0.0119,0.091 0.0123,-0.10627 0.026,-0.21201 0.0424,-0.31627 z m -0.93948,0.34106 c 0.0485,0.0662 0.0993,0.132014 0.15038,0.197414 0.0183,0.0233 0.0364,0.047 0.0548,0.0703 -0.0707,-0.0885 -0.13864,-0.17765 -0.20464,-0.267694 z m 0.20516,0.267694 c 0.002,0.002 0.003,0.004 0.004,0.005 0.0741,0.0927 0.15056,0.18399 0.22996,0.27492 -0.0806,-0.0924 -0.15828,-0.18583 -0.23357,-0.28008 z m 0.68678,-0.253744 c -2.9e-4,0.003 -2.4e-4,0.005 -5.2e-4,0.008 3.4e-4,-0.003 4.6e-4,-0.005 10e-4,-0.008 z m -5.2e-4,0.008 c -2.5e-4,0.002 -8.1e-4,0.004 -0.001,0.006 -2.7e-4,0.001 -3.7e-4,0.003 -5.2e-4,0.004 -0.0122,0.111854 -0.0225,0.224524 -0.0305,0.338484 2.6e-4,0.002 3.9e-4,0.004 5.2e-4,0.006 0.008,-0.11925 0.0186,-0.23709 0.0315,-0.353984 z m 2.8975,0.424794 c -0.055,0.0221 -0.1105,0.0433 -0.1664,0.0641 0.0516,-0.0192 0.10309,-0.0386 0.15399,-0.0589 0.004,-0.002 0.008,-0.004 0.0124,-0.005 z m -0.31885,0.11937 c -0.0543,0.0188 -0.10933,0.0366 -0.16433,0.0543 0.0517,-0.0165 0.10351,-0.033 0.15451,-0.0506 0.003,-10e-4 0.007,-0.003 0.01,-0.004 z m -2.63033,0.3545 c 0,0.009 -0.001,0.0184 -0.001,0.0274 -0.009,0 -0.0184,9.7e-4 -0.0274,10e-4 0.007,0.007 0.0116,0.0131 0.0186,0.0202 -0.007,0.007 -0.0116,0.0132 -0.0186,0.0202 0.009,0 0.0184,0.001 0.0274,0.001 0,0.009 9.8e-4,0.0184 0.001,0.0274 0.007,-0.007 0.0132,-0.0116 0.0202,-0.0186 0.007,0.007 0.0132,0.0116 0.0202,0.0186 0,-0.009 10e-4,-0.0184 10e-4,-0.0274 0.009,0 0.0184,-9.7e-4 0.0274,-0.001 -0.006,-0.006 -0.0109,-0.0122 -0.017,-0.0186 -0.002,0.002 -0.005,0.004 -0.007,0.007 -1.4e-4,0.004 -5.1e-4,0.008 -5.2e-4,0.0119 -0.004,1e-5 -0.008,3.7e-4 -0.0119,5.1e-4 -0.003,0.003 -0.006,0.006 -0.009,0.009 -1.8e-4,-1.7e-4 -3.5e-4,-3.5e-4 -5.2e-4,-5.2e-4 -3.6e-4,3.5e-4 -6.7e-4,6.7e-4 -10e-4,10e-4 -0.003,-0.003 -0.006,-0.005 -0.009,-0.008 8.3e-4,0 0.002,0 0.003,0 -3.5e-4,-3.3e-4 -6.8e-4,-7e-4 -0.001,-0.001 -0.004,-1.4e-4 -0.008,-5e-4 -0.0124,-5.1e-4 -1e-5,-0.004 -3.7e-4,-0.008 -5.1e-4,-0.0124 -0.003,-0.003 -0.005,-0.006 -0.008,-0.009 0.003,-0.003 0.005,-0.006 0.008,-0.009 1.4e-4,-0.004 5e-4,-0.008 5.1e-4,-0.0124 0.004,0 0.008,-3.6e-4 0.0119,-5.1e-4 l 0.007,-0.007 c -0.007,-0.007 -0.0132,-0.0126 -0.0202,-0.0186 z m 0.0403,0 c -0.006,0.006 -0.0121,0.0111 -0.0191,0.0176 l 5.2e-4,5.1e-4 c 4.4e-4,-4.2e-4 0.001,-5.9e-4 0.002,-10e-4 0.003,0.003 0.006,0.006 0.009,0.009 0.003,10e-5 0.006,4e-4 0.009,5.1e-4 -6e-5,-0.009 -9.8e-4,-0.0177 -10e-4,-0.0263 z m 0.004,0.0274 c 6e-5,0.004 4e-4,0.007 5.2e-4,0.0108 0.002,0.003 0.005,0.005 0.007,0.008 0.005,-0.006 0.0104,-0.0114 0.0165,-0.0176 -0.008,0 -0.0163,-8.3e-4 -0.0243,-0.001 z m 0.56896,0.0212 c 0.12187,0.008 0.24232,0.0192 0.36174,0.0326 -0.004,-5e-4 -0.009,-0.001 -0.0134,-0.002 -0.001,-2.7e-4 -0.003,-3.7e-4 -0.004,-5.2e-4 -0.11364,-0.0124 -0.22832,-0.0225 -0.34417,-0.0305 z m -10.47533,5.1e-4 c -1.293,1.3395 -2.43041,3.34633 -3.20394,5.41982 2.0131,0.91922 4.23632,1.53392 6.09782,1.56683 -0.002,-0.11953 -0.004,-0.23864 -0.001,-0.35501 0.0425,-1.76839 0.63571,-3.28085 1.63607,-4.41472 v -5.2e-4 c -1.50913,-0.0944 -2.99829,-0.74385 -4.2788,-1.96422 -0.0842,-0.0803 -0.16709,-0.16626 -0.25012,-0.25218 z m 10.87582,0.0372 c 0.10367,0.0121 0.20678,0.0255 0.30851,0.0413 -0.0718,-0.0112 -0.14476,-0.0205 -0.21756,-0.0295 -0.0303,-0.004 -0.0606,-0.008 -0.091,-0.0119 z m 1.45211,0.31109 c 0.0557,0.0178 0.11098,0.0362 0.16588,0.0553 -0.004,-10e-4 -0.008,-0.003 -0.0124,-0.005 -0.0507,-0.0175 -0.10208,-0.0341 -0.15348,-0.0506 z m 0.29197,0.10077 c 0.0651,0.024 0.12989,0.0487 0.19379,0.0744 -0.007,-0.003 -0.0137,-0.006 -0.0207,-0.009 -0.0472,-0.0189 -0.0948,-0.0369 -0.14263,-0.0548 -0.0101,-0.004 -0.0204,-0.007 -0.0305,-0.0108 z m 0.30076,0.11834 c 0.0667,0.0282 0.13262,0.0573 0.19792,0.0873 -0.005,-0.002 -0.009,-0.005 -0.0139,-0.007 -0.0543,-0.0249 -0.10913,-0.0488 -0.16433,-0.0723 -0.007,-0.003 -0.0126,-0.005 -0.0196,-0.008 z m -3.03909,0.0253 c -0.008,0.12187 -0.0193,0.24231 -0.0326,0.36173 10e-4,-0.005 0.002,-0.009 0.002,-0.0134 2.6e-4,-0.001 3.7e-4,-0.003 5.2e-4,-0.004 0.0124,-0.11364 0.0225,-0.22832 0.0305,-0.34417 z m -0.0372,0.40049 c -0.012,0.10367 -0.0255,0.20677 -0.0413,0.30851 0.0112,-0.0719 0.0205,-0.14476 0.0295,-0.21756 0.004,-0.0303 0.008,-0.0606 0.0119,-0.091 z m 3.94395,0.0176 c 0.0584,0.0355 0.11611,0.0718 0.17311,0.10904 -0.008,-0.005 -0.0158,-0.0103 -0.0238,-0.0155 -0.0455,-0.0294 -0.0911,-0.0585 -0.13746,-0.0868 -0.004,-0.002 -0.008,-0.004 -0.0119,-0.007 z m -2.79466,0.32556 c 0.045,0.0694 0.0895,0.13868 0.13177,0.20878 -0.0363,-0.0602 -0.0743,-0.12014 -0.11265,-0.17984 -0.006,-0.01 -0.0131,-0.0192 -0.0191,-0.0289 z m -3.0639,0.13385 c -0.0663,0.0344 -0.13267,0.0681 -0.19947,0.10025 0.006,-0.003 0.011,-0.005 0.017,-0.008 0.0611,-0.0296 0.12172,-0.061 0.18242,-0.0925 z m 6.86418,0.2961 c 0.0622,0.0575 0.12319,0.11679 0.18293,0.17674 -0.0583,-0.0585 -0.11706,-0.1165 -0.17776,-0.1726 -0.002,-10e-4 -0.004,-0.003 -0.005,-0.004 z m -3.44113,0.18552 c 0.0201,0.0387 0.0393,0.0775 0.0589,0.11627 -0.0194,-0.0388 -0.0383,-0.0776 -0.0584,-0.11627 z m 0.15451,0.31626 c 0.0159,0.0347 0.0311,0.0696 0.0465,0.10439 -0.0153,-0.0348 -0.0301,-0.0698 -0.046,-0.10439 z m 0.12351,0.28629 c 0.0282,0.0696 0.0554,0.13929 0.0811,0.20929 -0.001,-0.004 -0.003,-0.008 -0.004,-0.0119 -0.0244,-0.0661 -0.0504,-0.1317 -0.077,-0.1974 z m -2.20039,0.18965 c -0.0231,0.0626 -0.047,0.12454 -0.0718,0.18604 0.002,-0.007 0.005,-0.013 0.008,-0.0196 0.0189,-0.0471 0.0369,-0.0948 0.0548,-0.14263 0.003,-0.008 0.006,-0.0159 0.009,-0.0238 z m -0.1173,0.29559 c -0.001,0.003 -0.002,0.005 -0.003,0.008 0.001,-0.003 0.002,-0.005 0.004,-0.008 z m -0.003,0.008 c -0.0248,0.0586 -0.0496,0.11714 -0.076,0.17467 0.025,-0.0543 0.0489,-0.10913 0.0724,-0.16433 0.001,-0.003 0.002,-0.007 0.004,-0.0103 z m -0.98702,1.62729 c -0.0559,0.067 -0.114,0.13237 -0.1726,0.19689 0.0112,-0.0129 0.0227,-0.0255 0.0341,-0.0382 0.0467,-0.0523 0.0935,-0.10465 0.13849,-0.15865 z m 3.78426,0.15503 c 8e-5,0.005 4.2e-4,0.009 5.2e-4,0.014 -9e-5,-0.005 1e-4,-0.009 0,-0.014 z m 5.2e-4,0.014 c 0.003,0.16667 0.002,0.33326 -0.008,0.49971 0.006,-0.10251 0.0104,-0.20537 0.0114,-0.30799 2e-5,-0.002 -1e-5,-0.003 0,-0.005 0,-0.0189 -10e-4,-0.0379 -10e-4,-0.0568 0,-0.0432 -0.002,-0.0865 -0.003,-0.12971 z m -3.98994,0.0646 c -0.0584,0.0633 -0.11832,0.12475 -0.17931,0.18552 0.0585,-0.0583 0.11649,-0.11717 0.17259,-0.17777 0.003,-0.003 0.005,-0.005 0.007,-0.008 z"
       style="fill:#fdbb29;fill-opacity:1;fill-rule:evenodd;stroke:none;stroke-width:0.26458332px;stroke-linecap:butt;stroke-linejoin:miter;stroke-opacity:1" />
    <path
       d="m 145.40179,93.444209 c 0,-2.684029 -1.31151,-4.300547 -3.43129,-4.300547 -1.08276,0 -1.95202,0.488005 -2.54677,1.433516 v -1.204763 h -1.15902 v 11.315625 h 1.26577 v -4.285298 c 0.67101,0.823509 1.41826,1.189513 2.45527,1.189513 2.05878,0 3.41604,-1.601268 3.41604,-4.148046 z m -1.32676,-0.0305 c 0,1.81477 -0.93026,2.989033 -2.31803,2.989033 -1.34201,0 -2.22652,-1.098012 -2.22652,-2.973783 0,-1.87577 0.88451,-3.095784 2.22652,-3.095784 1.40302,0 2.31803,1.174263 2.31803,3.080534 z"
       style="color:#000000;font-style:normal;font-variant:normal;font-weight:normal;font-stretch:normal;font-size:medium;line-height:5.7331109px;font-family:'TeX Gyre Heros';-inkscape-font-specification:'TeX Gyre Heros';text-indent:0;text-align:center;text-decoration:none;text-decoration-line:none;text-decoration-style:solid;text-decoration-color:#000000;letter-spacing:0px;word-spacing:0px;text-transform:none;writing-mode:lr-tb;direction:ltr;baseline-shift:baseline;text-anchor:middle;white-space:normal;clip-rule:nonzero;visibility:visible;isolation:auto;mix-blend-mode:normal;color-interpolation:sRGB;color-interpolation-filters:linearRGB;solid-color:#000000;solid-opacity:1;fill:#4d9336;fill-opacity:1;fill-rule:nonzero;stroke:#4d9336;stroke-width:0.28594071px;stroke-linecap:butt;stroke-linejoin:miter;stroke-miterlimit:4;stroke-dasharray:none;stroke-dashoffset:0;stroke-opacity:1;color-rendering:auto;image-rendering:auto;shape-rendering:auto;text-rendering:auto"
       id="path4520" />
    <path
       d="M 148.21759,97.363503 V 86.24613 h -1.26576 v 11.117373 z"
       style="color:#000000;font-style:normal;font-variant:normal;font-weight:normal;font-stretch:normal;font-size:medium;line-height:5.7331109px;font-family:'TeX Gyre Heros';-inkscape-font-specification:'TeX Gyre Heros';text-indent:0;text-align:center;text-decoration:none;text-decoration-line:none;text-decoration-style:solid;text-decoration-color:#000000;letter-spacing:0px;word-spacing:0px;text-transform:none;writing-mode:lr-tb;direction:ltr;baseline-shift:baseline;text-anchor:middle;white-space:normal;clip-rule:nonzero;visibility:visible;isolation:auto;mix-blend-mode:normal;color-interpolation:sRGB;color-interpolation-filters:linearRGB;solid-color:#000000;solid-opacity:1;fill:#4d9336;fill-opacity:1;fill-rule:nonzero;stroke:#4d9336;stroke-width:0.28594071px;stroke-linecap:butt;stroke-linejoin:miter;stroke-miterlimit:4;stroke-dasharray:none;stroke-dashoffset:0;stroke-opacity:1;color-rendering:auto;image-rendering:auto;shape-rendering:auto;text-rendering:auto"
       id="path4522" />
    <path
       d="m 157.4692,97.333002 v -0.96076 c -0.13725,0.0305 -0.19825,0.0305 -0.2745,0.0305 -0.44226,0 -0.68626,-0.228753 -0.68626,-0.625257 v -4.453049 c 0,-1.418266 -1.03701,-2.180774 -3.00428,-2.180774 -1.93677,0 -3.12629,0.747258 -3.20254,2.592529 h 1.28102 c 0.10675,-0.976011 0.68626,-1.418266 1.87577,-1.418266 1.14376,0 1.78427,0.427005 1.78427,1.189513 v 0.335504 c 0,0.533756 -0.32026,0.762508 -1.32677,0.884509 -1.79952,0.228753 -2.07402,0.289754 -2.56202,0.488006 -0.93027,0.381254 -1.40302,1.098012 -1.40302,2.074023 0,1.448766 1.00651,2.302775 2.62303,2.302775 1.02176,0 2.01302,-0.427005 2.71453,-1.174263 0.13725,0.610007 0.68626,1.052262 1.31151,1.052262 0.25926,0 0.45751,-0.0305 0.86926,-0.137252 z m -2.22652,-2.72978 c 0,1.143763 -1.15901,1.875771 -2.39428,1.875771 -0.99126,0 -1.57077,-0.350754 -1.57077,-1.220014 0,-0.838759 0.56426,-1.204763 1.92153,-1.403015 1.34201,-0.183002 1.61651,-0.244003 2.04352,-0.442255 z"
       style="color:#000000;font-style:normal;font-variant:normal;font-weight:normal;font-stretch:normal;font-size:medium;line-height:5.7331109px;font-family:'TeX Gyre Heros';-inkscape-font-specification:'TeX Gyre Heros';text-indent:0;text-align:center;text-decoration:none;text-decoration-line:none;text-decoration-style:solid;text-decoration-color:#000000;letter-spacing:0px;word-spacing:0px;text-transform:none;writing-mode:lr-tb;direction:ltr;baseline-shift:baseline;text-anchor:middle;white-space:normal;clip-rule:nonzero;visibility:visible;isolation:auto;mix-blend-mode:normal;color-interpolation:sRGB;color-interpolation-filters:linearRGB;solid-color:#000000;solid-opacity:1;fill:#4d9336;fill-opacity:1;fill-rule:nonzero;stroke:#4d9336;stroke-width:0.28594071px;stroke-linecap:butt;stroke-linejoin:miter;stroke-miterlimit:4;stroke-dasharray:none;stroke-dashoffset:0;stroke-opacity:1;color-rendering:auto;image-rendering:auto;shape-rendering:auto;text-rendering:auto"
       id="path4524" />
    <path
       d="m 160.1325,97.363503 v -7.991088 h -1.26576 v 7.991088 z m 0.16775,-9.195852 v -1.586017 h -1.58601 v 1.586017 z"
       style="color:#000000;font-style:normal;font-variant:normal;font-weight:normal;font-stretch:normal;font-size:medium;line-height:5.7331109px;font-family:'TeX Gyre Heros';-inkscape-font-specification:'TeX Gyre Heros';text-indent:0;text-align:center;text-decoration:none;text-decoration-line:none;text-decoration-style:solid;text-decoration-color:#000000;letter-spacing:0px;word-spacing:0px;text-transform:none;writing-mode:lr-tb;direction:ltr;baseline-shift:baseline;text-anchor:middle;white-space:normal;clip-rule:nonzero;visibility:visible;isolation:auto;mix-blend-mode:normal;color-interpolation:sRGB;color-interpolation-filters:linearRGB;solid-color:#000000;solid-opacity:1;fill:#4d9336;fill-opacity:1;fill-rule:nonzero;stroke:#4d9336;stroke-width:0.28594071px;stroke-linecap:butt;stroke-linejoin:miter;stroke-miterlimit:4;stroke-dasharray:none;stroke-dashoffset:0;stroke-opacity:1;color-rendering:auto;image-rendering:auto;shape-rendering:auto;text-rendering:auto"
       id="path4526" />
    <path
       d="M 168.7436,97.363503 V 86.24613 h -1.26576 v 4.132796 c -0.53376,-0.808259 -1.38777,-1.235264 -2.45528,-1.235264 -2.07402,0 -3.43128,1.601268 -3.43128,4.148046 0,2.699279 1.32676,4.300547 3.47703,4.300547 1.09802,0 1.86052,-0.411755 2.54678,-1.403015 v 1.174263 z m -1.26576,-3.965044 c 0,1.84527 -0.88451,3.004283 -2.22652,3.004283 -1.40302,0 -2.33328,-1.174263 -2.33328,-3.034783 0,-1.860521 0.93026,-3.034784 2.31803,-3.034784 1.37251,0 2.24177,1.220014 2.24177,3.065284 z"
       style="color:#000000;font-style:normal;font-variant:normal;font-weight:normal;font-stretch:normal;font-size:medium;line-height:5.7331109px;font-family:'TeX Gyre Heros';-inkscape-font-specification:'TeX Gyre Heros';text-indent:0;text-align:center;text-decoration:none;text-decoration-line:none;text-decoration-style:solid;text-decoration-color:#000000;letter-spacing:0px;word-spacing:0px;text-transform:none;writing-mode:lr-tb;direction:ltr;baseline-shift:baseline;text-anchor:middle;white-space:normal;clip-rule:nonzero;visibility:visible;isolation:auto;mix-blend-mode:normal;color-interpolation:sRGB;color-interpolation-filters:linearRGB;solid-color:#000000;solid-opacity:1;fill:#4d9336;fill-opacity:1;fill-rule:nonzero;stroke:#4d9336;stroke-width:0.28594071px;stroke-linecap:butt;stroke-linejoin:miter;stroke-miterlimit:4;stroke-dasharray:none;stroke-dashoffset:0;stroke-opacity:1;color-rendering:auto;image-rendering:auto;shape-rendering:auto;text-rendering:auto"
       id="path4528" />
    <path
       d="m 143.69477,109.69258 h -1.28101 c -0.21351,1.28101 -0.86926,1.79952 -1.95202,1.79952 -1.40302,0 -2.24178,-1.08277 -2.24178,-2.97379 0,-1.99777 0.82351,-3.12628 2.21127,-3.12628 1.06752,0 1.73852,0.62526 1.89103,1.73852 h 1.28101 c -0.1525,-1.95202 -1.37252,-2.91278 -3.15679,-2.91278 -2.15027,0 -3.55328,1.64701 -3.55328,4.30054 0,2.57728 1.37251,4.14805 3.53803,4.14805 1.90628,0 3.11104,-1.14376 3.26354,-2.97378 z"
       style="color:#000000;font-style:normal;font-variant:normal;font-weight:normal;font-stretch:normal;font-size:medium;line-height:5.7331109px;font-family:'TeX Gyre Heros';-inkscape-font-specification:'TeX Gyre Heros';text-indent:0;text-align:start;text-decoration:none;text-decoration-line:none;text-decoration-style:solid;text-decoration-color:#000000;letter-spacing:0.38950861px;word-spacing:0px;text-transform:none;writing-mode:lr-tb;direction:ltr;baseline-shift:baseline;text-anchor:start;white-space:normal;clip-rule:nonzero;visibility:visible;isolation:auto;mix-blend-mode:normal;color-interpolation:sRGB;color-interpolation-filters:linearRGB;solid-color:#000000;solid-opacity:1;fill:#4d9336;fill-opacity:1;fill-rule:nonzero;stroke:#4d9336;stroke-width:0.28594071px;stroke-linecap:butt;stroke-linejoin:miter;stroke-miterlimit:4;stroke-dasharray:none;stroke-dashoffset:0;stroke-opacity:1;color-rendering:auto;image-rendering:auto;shape-rendering:auto;text-rendering:auto"
       id="path4509" />
    <path
       d="m 151.72461,104.44652 h -1.37251 l -2.21128,6.22207 -2.04352,-6.22207 h -1.35726 l 2.69928,8.02159 -0.48801,1.26576 c -0.2135,0.56426 -0.47275,0.77776 -1.02176,0.77776 -0.183,0 -0.39651,-0.0305 -0.67101,-0.0915 v 1.14376 c 0.25925,0.13725 0.51851,0.19825 0.85401,0.19825 0.89976,0 1.63177,-0.50325 2.05877,-1.64701 z"
       style="color:#000000;font-style:normal;font-variant:normal;font-weight:normal;font-stretch:normal;font-size:medium;line-height:5.7331109px;font-family:'TeX Gyre Heros';-inkscape-font-specification:'TeX Gyre Heros';text-indent:0;text-align:start;text-decoration:none;text-decoration-line:none;text-decoration-style:solid;text-decoration-color:#000000;letter-spacing:0.38950861px;word-spacing:0px;text-transform:none;writing-mode:lr-tb;direction:ltr;baseline-shift:baseline;text-anchor:start;white-space:normal;clip-rule:nonzero;visibility:visible;isolation:auto;mix-blend-mode:normal;color-interpolation:sRGB;color-interpolation-filters:linearRGB;solid-color:#000000;solid-opacity:1;fill:#4d9336;fill-opacity:1;fill-rule:nonzero;stroke:#4d9336;stroke-width:0.28594071px;stroke-linecap:butt;stroke-linejoin:miter;stroke-miterlimit:4;stroke-dasharray:none;stroke-dashoffset:0;stroke-opacity:1;color-rendering:auto;image-rendering:auto;shape-rendering:auto;text-rendering:auto"
       id="path4511" />
    <path
       d="m 164.03975,112.43761 v -5.99332 c 0,-1.43351 -0.79301,-2.22652 -2.28752,-2.22652 -1.06751,0 -1.70802,0.32025 -2.45528,1.22001 -0.47275,-0.85401 -1.11326,-1.22001 -2.15027,-1.22001 -1.06752,0 -1.76902,0.3965 -2.45528,1.35726 v -1.12851 h -1.15901 v 7.99109 h 1.26576 v -5.01731 c 0,-1.15901 0.83876,-2.08927 1.87577,-2.08927 0.94551,0 1.47927,0.5795 1.47927,1.60127 v 5.50531 h 1.26576 v -5.01731 c 0,-1.15901 0.85401,-2.08927 1.89102,-2.08927 0.93026,0 1.46402,0.59476 1.46402,1.60127 v 5.50531 z"
       style="color:#000000;font-style:normal;font-variant:normal;font-weight:normal;font-stretch:normal;font-size:medium;line-height:5.7331109px;font-family:'TeX Gyre Heros';-inkscape-font-specification:'TeX Gyre Heros';text-indent:0;text-align:start;text-decoration:none;text-decoration-line:none;text-decoration-style:solid;text-decoration-color:#000000;letter-spacing:0.38950861px;word-spacing:0px;text-transform:none;writing-mode:lr-tb;direction:ltr;baseline-shift:baseline;text-anchor:start;white-space:normal;clip-rule:nonzero;visibility:visible;isolation:auto;mix-blend-mode:normal;color-interpolation:sRGB;color-interpolation-filters:linearRGB;solid-color:#000000;solid-opacity:1;fill:#4d9336;fill-opacity:1;fill-rule:nonzero;stroke:#4d9336;stroke-width:0.28594071px;stroke-linecap:butt;stroke-linejoin:miter;stroke-miterlimit:4;stroke-dasharray:none;stroke-dashoffset:0;stroke-opacity:1;color-rendering:auto;image-rendering:auto;shape-rendering:auto;text-rendering:auto"
       id="path4513" />
    <path
       d="m 170.45284,105.55978 v -1.29626 c -0.2135,-0.0305 -0.32025,-0.0457 -0.488,-0.0457 -0.82351,0 -1.44877,0.488 -2.18078,1.67751 v -1.44876 h -1.15901 v 7.99109 h 1.26576 v -4.14805 c 0,-1.79952 0.59476,-2.69928 2.56203,-2.72978 z"
       style="color:#000000;font-style:normal;font-variant:normal;font-weight:normal;font-stretch:normal;font-size:medium;line-height:5.7331109px;font-family:'TeX Gyre Heros';-inkscape-font-specification:'TeX Gyre Heros';text-indent:0;text-align:start;text-decoration:none;text-decoration-line:none;text-decoration-style:solid;text-decoration-color:#000000;letter-spacing:0.38950861px;word-spacing:0px;text-transform:none;writing-mode:lr-tb;direction:ltr;baseline-shift:baseline;text-anchor:start;white-space:normal;clip-rule:nonzero;visibility:visible;isolation:auto;mix-blend-mode:normal;color-interpolation:sRGB;color-interpolation-filters:linearRGB;solid-color:#000000;solid-opacity:1;fill:#4d9336;fill-opacity:1;fill-rule:nonzero;stroke:#4d9336;stroke-width:0.28594071px;stroke-linecap:butt;stroke-linejoin:miter;stroke-miterlimit:4;stroke-dasharray:none;stroke-dashoffset:0;stroke-opacity:1;color-rendering:auto;image-rendering:auto;shape-rendering:auto;text-rendering:auto"
       id="path4515" />
    <path
       d="m 178.39094,112.43761 v -7.99109 h -1.26576 v 4.4073 c 0,1.63177 -0.85401,2.69928 -2.18077,2.69928 -1.00651,0 -1.64702,-0.61001 -1.64702,-1.57077 v -5.53581 h -1.26577 v 6.03907 c 0,1.32676 0.99127,2.18077 2.54678,2.18077 1.17427,0 1.92152,-0.41176 2.66878,-1.46402 v 1.23527 z"
       style="color:#000000;font-style:normal;font-variant:normal;font-weight:normal;font-stretch:normal;font-size:medium;line-height:5.7331109px;font-family:'TeX Gyre Heros';-inkscape-font-specification:'TeX Gyre Heros';text-indent:0;text-align:start;text-decoration:none;text-decoration-line:none;text-decoration-style:solid;text-decoration-color:#000000;letter-spacing:0.38950861px;word-spacing:0px;text-transform:none;writing-mode:lr-tb;direction:ltr;baseline-shift:baseline;text-anchor:start;white-space:normal;clip-rule:nonzero;visibility:visible;isolation:auto;mix-blend-mode:normal;color-interpolation:sRGB;color-interpolation-filters:linearRGB;solid-color:#000000;solid-opacity:1;fill:#4d9336;fill-opacity:1;fill-rule:nonzero;stroke:#4d9336;stroke-width:0.28594071px;stroke-linecap:butt;stroke-linejoin:miter;stroke-miterlimit:4;stroke-dasharray:none;stroke-dashoffset:0;stroke-opacity:1;color-rendering:auto;image-rendering:auto;shape-rendering:auto;text-rendering:auto"
       id="path4517" />
  </g>
</svg>
