<?xml version="1.0" encoding="UTF-8" standalone="no"?>
<!-- Created with Inkscape (http://www.inkscape.org/) -->

<svg
   xmlns:dc="http://purl.org/dc/elements/1.1/"
   xmlns:cc="http://creativecommons.org/ns#"
   xmlns:rdf="http://www.w3.org/1999/02/22-rdf-syntax-ns#"
   xmlns:svg="http://www.w3.org/2000/svg"
   xmlns="http://www.w3.org/2000/svg"
   version="1.1"
   width="195"
   height="70"
   id="svg3985">
  <defs
     id="defs3987" />
  <metadata
     id="metadata3990">
    <rdf:RDF>
      <cc:Work
         rdf:about="">
        <dc:format>image/svg+xml</dc:format>
        <dc:type
           rdf:resource="http://purl.org/dc/dcmitype/StillImage" />
        <dc:title></dc:title>
      </cc:Work>
    </rdf:RDF>
  </metadata>
  <g
     transform="translate(-328.33403,-477.25281)"
     id="layer1">
    <path
       d="m 363.29445,497.62656 c -2.1075,-1.7 -4.6175,-3.7275 -9.1575,-3.7275 -3.16,0 -5.6725,1.7825 -5.6725,4.62 0,2.755 2.1075,4.6175 5.9975,7.2125 7.455,5.1825 12.235,8.425 12.235,17.42 0,5.51 -1.945,9.8875 -4.5375,12.8025 -4.5375,5.025 -10.695,6.08 -16.53,6.08 -4.4575,0 -8.915,-0.8125 -12.3975,-2.5125 l -0.4875,-0.73 c 0.1626,-2.1075 0.325,-4.2125 0.405,-6.32 0.0824,-1.785 0.0824,-3.565 0.1626,-5.3475 l 0.5675,-0.245 c 1.135,0.9725 4.375,3.6475 9.9675,3.6475 5.835,0 6.4825,-4.375 6.4825,-5.5925 0,-2.915 -2.27,-4.5375 -5.43,-6.805 l -3.3225,-2.27 c -3.8075,-2.755 -9.075,-6.565 -9.075,-15.8825 0,-5.7525 2.025,-10.05 4.78,-12.8025 3.3225,-3.2425 8.105,-4.7025 14.2625,-4.7025 7.1325,0 11.1825,1.945 12.7225,2.675 l 0.325,0.5675 c -0.1626,2.0275 -0.325,4.0525 -0.4075,6.0775 l -0.2425,5.59 -0.6475,0.245"
       id="path788"
       style="fill:#000000;fill-opacity:1;fill-rule:nonzero;stroke:none" />
    <path
       d="m 383.69445,509.53906 0.4875,11.83 c 0.2425,9.6425 0.3225,10.13 0.73,19.0425 l -0.57,0.4875 c -6.1575,0 -6.6425,0 -12.8025,0.2425 l -0.485,-0.485 c 0.08,-4.135 0.1626,-8.105 0.1626,-14.505 0,-6.16 -0.1626,-21.8825 -0.1626,-26.905 -0.0824,-5.0225 -0.2425,-10.0475 -0.405,-15.0725 l 0.485,-0.485 c 6.3225,0 8.185,0 14.5875,-0.245 l 0.6475,0.405 c 2.5125,4.7825 3.6475,6.645 10.0475,16.8575 l 7.78,12.075 -0.325,-13.695 c -0.08,-2.1075 -0.3225,-12.5625 -0.485,-14.9125 l 0.485,-0.485 c 5.835,-0.0826 8.185,-0.1626 12.3175,-0.245 l 0.485,0.4875 c 0,5.025 -0.16,29.9 -0.16,35.4925 0,10.695 0.16,16.45 0.2425,20.9875 l -0.4875,0.4875 c -5.995,0 -7.13,0 -13.2875,0.2425 l -0.5675,-0.485 c -3.81,-6.7275 -5.7525,-9.97 -9.5625,-16.2075 l -9.1575,-14.91"
       id="path790"
       style="fill:#000000;fill-opacity:1;fill-rule:nonzero;stroke:none" />
    <path
       d="m 422.91445,484.17406 c 0.1626,3.6475 0.1626,6.4025 0.1626,10.7775 0,17.83 -0.1626,26.66 -0.5675,45.705 l 0.405,0.485 c 6.725,-0.2425 8.59,-0.325 15.72,-0.2425 l 0.405,-0.4875 c -0.2425,-5.7525 -0.2425,-8.0225 -0.1626,-17.9075 4.945,0.0824 9.4825,0.0824 13.9375,-2.3525 8.995,-4.9425 8.995,-15.15 8.995,-18.15 0,-18.5575 -14.0175,-18.5575 -21.0675,-18.5575 -1.135,0 -2.1875,0 -3.3225,0.0824 -9.6425,0.1626 -10.6975,0.1626 -14.1,0.1626 l -0.405,0.485 z m 16.045,26.6625 0,-16.045 c 1.135,-0.0824 1.3775,-0.0824 1.8625,-0.0824 4.1325,0 5.35,3.1625 5.35,6.8875 0,3 -0.325,7.2925 -3.325,8.75 -1.1325,0.49 -2.35,0.49 -3.8875,0.49"
       id="path792"
       style="fill:#000000;fill-opacity:1;fill-rule:nonzero;stroke:none" />
    <path
       d="m 479.24945,521.46406 c 0,0 -2.8525,3.69 -0.4075,8.2025 2.935,5.4125 6.985,7.99 14.365,7.99 7.38,0 12.49,-3.0725 14.5375,-7.99 2.0525,-4.92 -0.805,-7.995 -0.805,-7.995 l -13.1275,-14.7625 -14.5625,14.555 z m -10.4375,-38.9475 13.735,0 10.865,10.6625 10.8625,-10.6625 13.7375,0 -18.04,17.63 15.3725,16.1925 c 0,0 5.535,5.74 3.2825,12.095 -1.8225,5.1325 -9.225,13.325 -25.215,13.325 -15.99,0 -24.6,-9.425 -25.83,-13.53 -1.2275,-4.1 0.6125,-9.0175 2.6525,-11.89 2.3075,-3.2525 16.2075,-16.6025 16.2075,-16.6025 l -17.63,-17.22"
       id="path794"
       style="fill:#000000;fill-opacity:1;fill-rule:nonzero;stroke:none" />
  </g>
</svg>
