<svg xmlns="http://www.w3.org/2000/svg" width="1920" height="1080" viewBox="0 0 508 285.75" version="1.1" id="svg8"><defs id="defs2"><linearGradient x1="0" y1="0" x2="1" y2="0" gradientUnits="userSpaceOnUse" gradientTransform="matrix(4.68364 0 0 4.68364 21.298 6.08)" spreadMethod="pad" id="linearGradient3553"><stop offset="0" id="stop3555" stop-opacity="1" stop-color="#de891d"/><stop offset="1" id="stop3557" stop-opacity="1" stop-color="#fecb0e"/></linearGradient><linearGradient x1="0" y1="0" x2="1" y2="0" gradientUnits="userSpaceOnUse" gradientTransform="translate(21.81 4.574) scale(4.86299)" spreadMethod="pad" id="linearGradient3533"><stop offset="0" id="stop3535" stop-opacity="1" stop-color="#de891d"/><stop offset="1" id="stop3537" stop-opacity="1" stop-color="#fecb0e"/></linearGradient><linearGradient x1="0" y1="0" x2="1" y2="0" gradientUnits="userSpaceOnUse" gradientTransform="matrix(2.15028 0 0 2.15028 16.85 8.296)" spreadMethod="pad" id="linearGradient3509"><stop offset="0" id="stop3511" stop-opacity="1" stop-color="#d4831b"/><stop offset=".908" id="stop3513" stop-opacity="1" stop-color="#fecb0e"/><stop offset=".908" id="stop3515" stop-opacity="1" stop-color="#fecb0e"/><stop offset="1" id="stop3517" stop-opacity="1" stop-color="#fecb0e"/></linearGradient><linearGradient x1="0" y1="0" x2="1" y2="0" gradientUnits="userSpaceOnUse" gradientTransform="matrix(2.8458 0 0 2.8458 15.45 8.031)" spreadMethod="pad" id="linearGradient3489"><stop offset="0" id="stop3491" stop-opacity="1" stop-color="#de831d"/><stop offset="1" id="stop3493" stop-opacity="1" stop-color="#fecb0e"/></linearGradient><linearGradient x1="0" y1="0" x2="1" y2="0" gradientUnits="userSpaceOnUse" gradientTransform="rotate(-110 11.441 -3.228) scale(2.27153)" spreadMethod="pad" id="linearGradient3465"><stop offset="0" id="stop3467" stop-opacity="1" stop-color="#de831d"/><stop offset=".834" id="stop3469" stop-opacity="1" stop-color="#fecb0e"/><stop offset=".834" id="stop3471" stop-opacity="1" stop-color="#fecb0e"/><stop offset="1" id="stop3473" stop-opacity="1" stop-color="#fecb0e"/></linearGradient><linearGradient x1="0" y1="0" x2="1" y2="0" gradientUnits="userSpaceOnUse" gradientTransform="scale(-4.46837) rotate(70 -1.085 -3.653)" spreadMethod="pad" id="linearGradient3445"><stop offset="0" id="stop3447" stop-opacity="1" stop-color="#d4831b"/><stop offset="1" id="stop3449" stop-opacity="1" stop-color="#fecb0e"/></linearGradient><linearGradient x1="0" y1="0" x2="1" y2="0" gradientUnits="userSpaceOnUse" gradientTransform="rotate(-110 11.588 -3.943) scale(6.19949)" spreadMethod="pad" id="linearGradient3423"><stop offset="0" id="stop3425" stop-opacity="1" stop-color="#ce8019"/><stop offset=".861" id="stop3427" stop-opacity="1" stop-color="#fecb0e"/><stop offset="1" id="stop3429" stop-opacity="1" stop-color="#fecb0e"/></linearGradient><linearGradient x1="0" y1="0" x2="1" y2="0" gradientUnits="userSpaceOnUse" gradientTransform="matrix(8.55155 0 0 8.55155 14.99 5.563)" spreadMethod="pad" id="linearGradient3399"><stop offset="0" id="stop3401" stop-opacity="1" stop-color="#de831d"/><stop offset=".273" id="stop3403" stop-opacity="1" stop-color="#eda919"/><stop offset=".519" id="stop3405" stop-opacity="1" stop-color="#de891d"/><stop offset="1" id="stop3407" stop-opacity="1" stop-color="#fecb0e"/></linearGradient><linearGradient x1="0" y1="0" x2="1" y2="0" gradientUnits="userSpaceOnUse" gradientTransform="scale(14.7897 -14.7897) rotate(40 1.649 1.183)" spreadMethod="pad" id="linearGradient3377"><stop offset="0" id="stop3379" stop-opacity="1" stop-color="#f69c20"/><stop offset=".583" id="stop3381" stop-opacity="1" stop-color="#fecb0f"/><stop offset="1" id="stop3383" stop-opacity="1" stop-color="#fff"/></linearGradient><linearGradient x1="0" y1="0" x2="1" y2="0" gradientUnits="userSpaceOnUse" gradientTransform="scale(14.80847 -14.80847) rotate(40 1.584 1.159)" spreadMethod="pad" id="linearGradient3355"><stop offset="0" id="stop3357" stop-opacity="1" stop-color="#f69c20"/><stop offset=".628" id="stop3359" stop-opacity="1" stop-color="#fecb0f"/><stop offset="1" id="stop3361" stop-opacity="1" stop-color="#fff"/></linearGradient><linearGradient x1="0" y1="0" x2="1" y2="0" gradientUnits="userSpaceOnUse" gradientTransform="rotate(-70 15.41 -7.825) scale(2.37531)" spreadMethod="pad" id="linearGradient3333"><stop offset="0" id="stop3335" stop-opacity="1" stop-color="#f69c20"/><stop offset=".667" id="stop3337" stop-opacity="1" stop-color="#fecb0f"/><stop offset="1" id="stop3339" stop-opacity="1" stop-color="#fecb0f"/></linearGradient><linearGradient x1="0" y1="0" x2="1" y2="0" gradientUnits="userSpaceOnUse" gradientTransform="scale(14.81054 -14.81054) rotate(40 1.384 1.086)" spreadMethod="pad" id="linearGradient3311"><stop offset="0" id="stop3313" stop-opacity="1" stop-color="#f69c20"/><stop offset=".135" id="stop3315" stop-opacity="1" stop-color="#fecb0f"/><stop offset="1" id="stop3317" stop-opacity="1" stop-color="#fecb0f"/></linearGradient><linearGradient x1="0" y1="0" x2="1" y2="0" gradientUnits="userSpaceOnUse" gradientTransform="matrix(-20.31471 0 0 20.31471 24.685 5.329)" spreadMethod="pad" id="linearGradient3291"><stop offset="0" id="stop3293" stop-opacity="1" stop-color="#f7941d"/><stop offset="1" id="stop3295" stop-opacity="1" stop-color="#f7c628"/></linearGradient><linearGradient x1="0" y1="0" x2="1" y2="0" gradientUnits="userSpaceOnUse" gradientTransform="matrix(2.82932 0 0 2.82932 16.58 5.337)" spreadMethod="pad" id="linearGradient3269"><stop offset="0" id="stop3271" stop-opacity="1" stop-color="#f69c20"/><stop offset=".5" id="stop3273" stop-opacity="1" stop-color="#fecb0f"/><stop offset="1" id="stop3275" stop-opacity="1" stop-color="#fff"/></linearGradient><linearGradient x1="0" y1="0" x2="1" y2="0" gradientUnits="userSpaceOnUse" gradientTransform="scale(-20.14689 20.14689) rotate(10 -1.374 -7.118)" spreadMethod="pad" id="linearGradient3245"><stop offset="0" id="stop3247" stop-opacity="1" stop-color="#f69c20"/><stop offset=".401" id="stop3249" stop-opacity="1" stop-color="#fecb0f"/><stop offset=".864" id="stop3251" stop-opacity="1" stop-color="#fff"/><stop offset="1" id="stop3253" stop-opacity="1" stop-color="#fff"/></linearGradient><linearGradient x1="0" y1="0" x2="1" y2="0" gradientUnits="userSpaceOnUse" gradientTransform="scale(-19.07622 19.07622) rotate(-30 .01 2.718)" spreadMethod="pad" id="linearGradient3223"><stop offset="0" id="stop3225" stop-opacity="1" stop-color="#f69c20"/><stop offset=".389" id="stop3227" stop-opacity="1" stop-color="#fecb0f"/><stop offset="1" id="stop3229" stop-opacity="1" stop-color="#fff"/></linearGradient><linearGradient x1="0" y1="0" x2="1" y2="0" gradientUnits="userSpaceOnUse" gradientTransform="scale(14.79557 -14.79557) rotate(40 1.344 1.072)" spreadMethod="pad" id="linearGradient3197"><stop offset="0" id="stop3199" stop-opacity="1" stop-color="#fcc215"/><stop offset=".328" id="stop3201" stop-opacity="1" stop-color="#fab41a"/><stop offset=".328" id="stop3203" stop-opacity="1" stop-color="#fab41a"/><stop offset=".522" id="stop3205" stop-opacity="1" stop-color="#fecb0f"/><stop offset="1" id="stop3207" stop-opacity="1" stop-color="#fff"/></linearGradient><clipPath clipPathUnits="userSpaceOnUse" id="clipPath3117"><path d="M273.813 493.215H404v92.06H273.813v-92.06z" id="path3119"/></clipPath><clipPath clipPathUnits="userSpaceOnUse" id="clipPath3117-3"><path d="M273.813 493.215H404v92.06H273.813z" id="path3119-6"/></clipPath></defs><g id="layer6" display="inline"><g id="party-liberal-democrats"><g id="g3113" transform="matrix(.2675 0 0 -.2675 -76.687 151.784)"><g id="g3115" clip-path="url(#clipPath3117-3)"><g id="g3121" transform="translate(290.076 536.951)"><path d="M0 0c2.027 0 4.659.038 6.099.113l-.701-1.837h-7.879c.095 2.52.114 3.997.114 6.554 0 2.765-.019 4.318-.114 7.026H.057A171.62 171.62 0 01-.057 4.83c0-1.819.019-3.163.057-4.83" id="path3123" fill="#231f20" fill-opacity="1" fill-rule="nonzero" stroke="none"/></g><g id="g3125" transform="translate(299.376 535.227)"><path d="M0 0h-2.425c.095 1.78.114 2.86.114 4.659 0 1.932-.019 2.841-.114 4.736H0a78.053 78.053 0 01-.114-4.736C-.114 2.86-.095 1.78 0 0m-1.212 11.232c-.947 0-1.477.606-1.477 1.325 0 .682.53 1.288 1.477 1.288.928 0 1.458-.606 1.458-1.288 0-.719-.53-1.325-1.458-1.325" id="path3127" fill="#231f20" fill-opacity="1" fill-rule="nonzero" stroke="none"/></g><g id="g3129" transform="translate(305.248 543.069)"><path d="M0 0c-.985 0-1.686-.474-2.197-1.307a34.934 34.934 0 01-.057-2.102c0-1.137.019-2.406.057-2.879.454-.209.966-.303 1.667-.303 1.685 0 2.841 1.23 2.841 3.409C2.311-.985 1.42 0 0 0m-4.584 6.61h2.425a91.098 91.098 0 01-.076-3.277c0-1.174 0-2.197.019-3.314C-1.477 1.231-.303 1.78.947 1.78 2.955 1.78 4.64.265 4.64-2.671c0-3.068-2.026-5.379-5.436-5.379-1.666 0-2.879.303-3.769.796.076 2.424.095 3.674.095 6.402 0 2.916-.019 5.208-.114 7.462" id="path3131" fill="#231f20" fill-opacity="1" fill-rule="nonzero" stroke="none"/></g><g id="g3133" transform="translate(313.108 541.004)"><path d="M0 0h4.508c-.151 1.686-.871 2.424-2.216 2.424C.947 2.424.114 1.478 0 0m3.22-4.281c1.117 0 2.197.361 2.936.929l.53-1.458c-1.042-.796-2.254-1.175-3.939-1.175-2.823 0-4.982 1.799-4.982 5.038 0 2.898 1.913 4.792 4.697 4.792 2.463 0 4.224-1.553 4.224-4.432 0-.284 0-.512-.019-.796H.019C.171-3.371 1.383-4.281 3.22-4.281" id="path3135" fill="#231f20" fill-opacity="1" fill-rule="nonzero" stroke="none"/></g><g id="g3137" transform="translate(326.328 544.849)"><path d="M0 0c.493 0 .796-.038 1.099-.189L.398-2.557a2.964 2.964 0 01-1.023.171c-.739 0-1.401-.341-1.951-1.213a31.6 31.6 0 01-.095-2.651c0-.985.019-2.178.095-3.371H-5c.095 1.761.114 2.86.114 4.659 0 1.931-.019 2.898-.114 4.735h2.083l.265-1.951C-2.026-.701-.947 0 0 0" id="path3139" fill="#231f20" fill-opacity="1" fill-rule="nonzero" stroke="none"/></g><g id="g3141" transform="translate(331.745 536.78)"><path d="M0 0c.833 0 1.572.379 2.178 1.345.038.587.057 1.439.057 2.197 0 1.079-.019 2.273-.057 2.746-.492.228-.966.322-1.647.322-1.535 0-2.88-1.155-2.88-3.257C-2.349 1.023-1.345 0 0 0m4.565-1.553H2.368L2.197-.019C1.459-1.212.246-1.761-1.023-1.761c-1.913 0-3.655 1.648-3.655 4.659 0 3.087 2.386 5.171 5.303 5.171 1.004 0 1.667-.114 2.368-.342l1.628.493c-.151-1.894-.17-2.917-.17-4.867 0-2.008 0-2.86.114-4.906" id="path3143" fill="#231f20" fill-opacity="1" fill-rule="nonzero" stroke="none"/></g><g id="g3145" transform="translate(340.476 535.227)"><path d="M0 0h-2.424c.094 2.689.113 4.261.113 6.989 0 2.916-.019 4.583-.113 7.462H0a194.301 194.301 0 01-.114-7.462c0-2.728.019-4.3.114-6.989" id="path3147" fill="#231f20" fill-opacity="1" fill-rule="nonzero" stroke="none"/></g><g id="g3149" transform="translate(290.02 524.842)"><path d="M0 0c0-1.818.019-3.694.057-5.209.265-.019 1.174-.019 1.78-.019 3.713 0 5.758 1.819 5.758 5.209 0 3.371-2.197 4.963-5.853 4.963-.606 0-1.174 0-1.685-.019A173.432 173.432 0 010 0m-2.424-6.932c.094 2.519.113 3.996.113 6.553 0 2.765-.019 4.319-.113 7.027H2.14c4.868 0 7.936-2.083 7.936-6.307 0-4.508-2.936-7.273-8.068-7.273z" id="path3151" fill="#231f20" fill-opacity="1" fill-rule="nonzero" stroke="none"/></g><g id="g3153" transform="translate(303.543 523.687)"><path d="M0 0h4.508c-.151 1.686-.871 2.424-2.216 2.424C.947 2.424.114 1.478 0 0m3.22-4.281c1.117 0 2.197.36 2.935.929l.531-1.459c-1.041-.795-2.254-1.174-3.939-1.174-2.823 0-4.982 1.799-4.982 5.038 0 2.898 1.913 4.792 4.697 4.792 2.463 0 4.224-1.553 4.224-4.432 0-.284 0-.511-.019-.796H.019C.171-3.371 1.383-4.281 3.22-4.281" id="path3155" fill="#231f20" fill-opacity="1" fill-rule="nonzero" stroke="none"/></g><g id="g3157" transform="translate(326.026 524.122)"><path d="M0 0c0-1.231-.076-1.969-.076-2.992 0-1.25 0-1.951.095-3.22h-2.368c.095 1.193.095 1.875.095 3.106 0 1.099-.019 2.292-.057 2.898-.076 1.212-.663 1.837-1.667 1.837-.795 0-1.553-.416-2.14-1.307-.075-.776-.095-1.95-.095-3.011 0-1.363.02-2.16.095-3.523h-2.386c.094 1.193.094 1.875.094 3.106 0 1.099 0 2.273-.038 2.898-.075 1.231-.681 1.837-1.685 1.837-.796 0-1.553-.416-2.122-1.307-.075-.776-.094-1.95-.094-3.011 0-1.363.019-2.16.094-3.523h-2.386c.095 1.78.114 2.86.114 4.659 0 1.932-.019 2.823-.114 4.736h2.121l.228-1.535c.776 1.174 1.704 1.762 3.181 1.762 1.288 0 2.311-.739 2.69-1.951.947 1.326 2.027 1.951 3.41 1.951C-1.231 3.41 0 2.16 0 0" id="path3159" fill="#231f20" fill-opacity="1" fill-rule="nonzero" stroke="none"/></g><g id="g3161" transform="translate(332.105 526.036)"><path d="M0 0c-1.648 0-2.595-1.402-2.595-3.428 0-2.008.947-3.428 2.595-3.428 1.667 0 2.614 1.401 2.614 3.428C2.614-1.402 1.648 0 0 0m0 1.497c3.049 0 5-1.989 5-4.811 0-2.785-2.046-5.02-5-5.02-3.068 0-4.962 1.951-4.962 4.792C-4.962-.72-2.955 1.497 0 1.497" id="path3163" fill="#231f20" fill-opacity="1" fill-rule="nonzero" stroke="none"/></g><g id="g3165" transform="translate(340.439 522.892)"><path d="M0 0c0-2.406 1.269-3.485 2.993-3.485.795 0 1.571.189 2.234.663l.531-1.402c-.966-.663-2.046-.966-3.448-.966-2.594 0-4.659 1.686-4.659 4.963 0 2.727 2.14 4.868 5.057 4.868 1.212 0 2.084-.171 2.936-.512l-.549-1.534a5.263 5.263 0 01-2.178.473C1.079 3.068 0 1.875 0 0" id="path3167" fill="#231f20" fill-opacity="1" fill-rule="nonzero" stroke="none"/></g><g id="g3169" transform="translate(352.73 527.532)"><path d="M0 0c.493 0 .796-.038 1.099-.189L.398-2.557c-.341.114-.625.17-1.023.17-.739 0-1.402-.341-1.951-1.212a31.722 31.722 0 01-.094-2.652c0-.984.019-2.178.094-3.371H-5c.095 1.761.114 2.86.114 4.659 0 1.932-.019 2.898-.114 4.736h2.084l.265-1.951C-2.027-.701-.947 0 0 0" id="path3171" fill="#231f20" fill-opacity="1" fill-rule="nonzero" stroke="none"/></g><g id="g3173" transform="translate(358.148 519.463)"><path d="M0 0c.833 0 1.572.379 2.178 1.345.038.587.057 1.44.057 2.197 0 1.08-.019 2.273-.057 2.746-.492.228-.966.322-1.648.322-1.534 0-2.879-1.155-2.879-3.257C-2.349 1.023-1.345 0 0 0m4.565-1.553H2.367l-.17 1.534C1.458-1.212.246-1.761-1.023-1.761c-1.913 0-3.655 1.647-3.655 4.659 0 3.087 2.386 5.171 5.303 5.171 1.004 0 1.667-.113 2.368-.341l1.628.492c-.151-1.894-.17-2.916-.17-4.867 0-2.008 0-2.86.114-4.906" id="path3175" fill="#231f20" fill-opacity="1" fill-rule="nonzero" stroke="none"/></g><g id="g3177" transform="translate(367.523 525.752)"><path d="M0 0c0-1.818-.076-3.731.038-5.019.076-.909.72-1.326 1.383-1.326s1.136.114 1.61.417l.473-1.326c-.7-.512-1.723-.796-2.86-.796-1.648 0-2.879 1.118-2.879 3.182 0 1.421.076 3.296.076 4.868h-1.553v1.553h1.572c0 .909 0 1.534-.038 2.387l2.368.511a26.018 26.018 0 01-.152-2.898h2.955V0z" id="path3179" fill="#231f20" fill-opacity="1" fill-rule="nonzero" stroke="none"/></g><g id="g3181" transform="translate(378.47 525.562)"><path d="M0 0a6.57 6.57 0 01-2.349.416c-1.42 0-1.894-.397-1.894-.946 0-.455.266-.758 1.307-1.156l1.156-.454C.038-2.841.72-3.656.72-5.038.72-6.724-.852-7.86-3.012-7.86c-1.685 0-2.727.265-3.636.738l.455 1.515a6.408 6.408 0 012.935-.719c1.307 0 1.837.454 1.837 1.079 0 .569-.264.909-1.591 1.402l-1.155.435c-1.458.531-2.216 1.307-2.216 2.671 0 1.515 1.421 2.709 3.902 2.709 1.193 0 2.046-.114 2.935-.436z" id="path3183" fill="#231f20" fill-opacity="1" fill-rule="nonzero" stroke="none"/></g></g></g><g id="g1784" transform="translate(.245 .258) scale(1.03137)" stroke="none" stroke-width=".259"><path d="M21.227 3.766s-.318.401-.596 1.072c0 0-.509 1.064-1.194 1.498 0 0-.72.555-1.7.694 0 0-.258.048-.608.048-.27 0-.597-.029-.897-.132 0 0-.857-.206-1.312-.617 0 0-.021.1-.022.245v.014c0 .167.03.39.148.589 0 0 .018.038.045.085.224.195.477.264.755.264.652 0 1.407-.385 2.038-.423.907 0 1.916-.096 2.622-.598.528-.376.88-1.012 1.171-1.69.294-.734.994-1.203 1.816-1.381a.361.361 0 00-.14-.024.83.83 0 00-.133.013s-.048.008-.135.008c-.109 0-.277-.012-.488-.068 0 0-.15-.032-.358-.032-.31 0-.75.073-1.012.435" id="path3209" fill="url(#linearGradient3197)"/><path d="M16.35.058c-.422 1.957 1.937 2.466 3.232 3.367.647.43.677 1.17.484 1.874.054-.073.67-.933.346-1.703 0 0-.25-.556-1.318-1.038 0 0-1.182-.507-1.742-.974 0 0-.933-.816-1.001-1.527z" id="path3231" fill="url(#linearGradient3223)"/><path d="M15.819 2.416c.061.364.221.68.481.896.792.736 1.924.905 2.943 1.414.366.158.442.606.406 1.03.047-.106.215-.539.059-.986 0 0-.08-.371-1.005-.723 0 0-1.293-.448-1.719-.727 0 0-.884-.457-1.162-1.178 0 0-.01.11-.003.274" id="path3255" fill="url(#linearGradient3245)"/><path d="M16.58 4.633l.014.022c.265.243.547.6.895.731.234.15.557.266.872.281.078.004.156.004.232.003.217-.003.417-.005.565.101.111.08.193.09.232.269.029-.113.087-.497-.335-.668 0 0-.126-.056-.478-.101 0 0-.705-.055-1.082-.214 0 0-.737-.285-.914-.424z" id="path3277" fill="url(#linearGradient3269)"/><path d="M16.581 4.634a.2.2 0 00.013.02c.265.244.547.602.895.732.234.15.557.266.872.281.078.004.156.004.232.003.217-.003.417-.005.565.101.111.08.193.09.232.269a.647.647 0 00.019-.127v-.072c-.009-.158-.08-.358-.354-.469 0 0-.126-.056-.478-.101 0 0-.705-.055-1.082-.214 0 0-.736-.285-.914-.424z" id="path3297" fill="url(#linearGradient3291)"/><path d="M17.099 7.816a3.177 3.177 0 01-.746.364 1.19 1.19 0 01-.3.04c-.29 0-.49-.114-.567-.167.232.29.537.476.846.476a.787.787 0 00.421-.124c.535-.267.919-.89 1.534-1.052a.612.612 0 00-.1-.008c-.462 0-1.088.47-1.088.47" id="path3319" fill="url(#linearGradient3311)"/><path d="M18.936 7.333c-.156 0-.56.058-.83.613 0 0-.3.797-.608.998 0 0-.198.164-.508.164-.017 0-.121-.009-.14-.01.122.036.323.074.429.083 1.103.101 1.216-1.057 1.51-1.795.036-.034.092-.048.158-.053z" id="path3341" fill="url(#linearGradient3333)"/><path d="M25.832 4.102c-.32.24-.706.37-1.096.44-.234.041-.477.033-.72.025-.317-.011-.635-.022-.935.08-.79.262-1.306 1.117-1.306 1.117l.052-.032c.657-.788 1.933-.34 2.848-.61.82-.204 1.593-.78 1.9-1.6-.252.261-.743.58-.743.58" id="path3363" fill="url(#linearGradient3355)"/><path d="M24.726 5.945a2.243 2.243 0 01-.905.174c-.177 0-.356-.014-.53-.049-.117-.024-.231-.059-.349-.081a2.6 2.6 0 00-.307-.04 2.19 2.19 0 00-.143-.004c-.2 0-.313.029-.313.029a2.5 2.5 0 00-.831.39c.158-.047.323-.039.479-.039.285 0 .554.132.836.195.28.064.569.09.854.09.16 0 .337-.028.499-.078.713-.275 1.406-.6 1.965-1.185v-.001c-.414.317-1.255.599-1.255.599" id="path3385" fill="url(#linearGradient3377)"/><path d="M21.62 4.783c-.287.669-.596 1.25-1.114 1.626-.71.513-1.705.694-2.622.694-.641.038-1.41.351-2.068.338-.266-.006-.61-.186-.825-.373.024.041.052.133.114.214.14.18.379.382.64.402 0 0 .37.067.947-.178 0 0 .968-.351 1.558-.364 0 0 1.292.012 1.841-.184.415-.148.757-.333 1.11-.777.354-.445.446-.817.56-1.055 0 0 .343-.715.762-1.053 0 0 .534-.458 1.02-.606 0 0-.013-.018-.05-.033-.822.178-1.58.616-1.873 1.35" id="path3409" fill="url(#linearGradient3399)"/><path d="M16.36 1.445s.247.695 1.107 1.223c0 0 .714.408 1.238.611 0 0 1.35.479 1.35 1.354 0 0 .05.482.007.672l.004-.006c.193-.705.163-1.443-.483-1.874-1.296-.9-3.655-1.41-3.232-3.367-.015.027-.33.6.009 1.387" id="path3431" fill="url(#linearGradient3423)"/><path d="M15.82 2.416c.015.33.105.885.498 1.236 0 0 .36.338.746.497 0 0 .618.265 1.168.417 0 0 1.098.221 1.28.68 0 0 .173.274.125.535l.012-.024c.036-.425-.04-.873-.406-1.03-1.019-.51-2.15-.679-2.943-1.415-.26-.216-.42-.532-.48-.896z" id="path3451" fill="url(#linearGradient3445)"/><path d="M16.594 4.655c.082.128.545.814 1.245 1.061 0 0 .394.164.899.143 0 0 .035-.005.089-.008.151-.007.451.006.553.206 0 0 .004.004.01-.017-.03-.14-.088-.258-.162-.314-.146-.109-.361-.067-.607-.089-.384-.034-.835-.155-1.133-.344-.082-.05-.629-.395-.894-.638z" id="path3475" fill="url(#linearGradient3465)"/><path d="M16.753 8.405c-.438.273-.928.07-1.267-.352-.024-.016-.037-.027-.037-.027.11.173.236.301.236.301.452.502.97.365.97.365.359-.101.97-.82.97-.82.42-.5.67-.518.67-.518h-.008c-.615.161-1 .784-1.534 1.05" id="path3495" fill="url(#linearGradient3489)"/><path d="M18.79 7.386c-.14.129-.2.309-.259.484-.103.31-.194.683-.394.947a.83.83 0 01-.535.314c-.119.021-.255.04-.376.03a2.595 2.595 0 01-.375-.063c.12.05.234.092.365.114.172.028.398.071.572.031.34-.077.555-.301.674-.625.034-.092.046-.189.065-.284.042-.2.106-.396.184-.584.061-.146.143-.335.29-.413 0 0-.02-.004-.054-.004-.066.005-.122.018-.157.053" id="path3519" fill="url(#linearGradient3509)"/><path d="M26.656 3.428l-.002.003c-.022.03-.049.06-.079.09-.14.375-.375.701-.683.954a2.974 2.974 0 01-1.01.567 3.51 3.51 0 01-.36.087 3.199 3.199 0 01-.919.038c-.324-.032-.668-.047-.987.028-.248.058-.443.214-.633.375a2.212 2.212 0 00-.173.173c.232-.141.497-.261.763-.32.14-.03.314-.043.432-.034.319.025.634.057.954.052l.064-.001c.997-.072 1.623-.522 1.623-.522 1.042-.659 1.027-1.513 1.027-1.513l-.017.023" id="path3539" fill="url(#linearGradient3533)"/><path d="M24.037 6.466c-.693.22-1.145-.026-1.586-.147-.351-.097-.703-.076-1.103.045l-.05.04c.584-.136 1.219.233 1.219.233.528.251 1.157.155 1.157.155 1.514-.278 2.279-1.402 2.307-1.444-.548.573-1.23.89-1.944 1.118" id="path3559" fill="url(#linearGradient3553)"/></g></g></g><g id="layer7" display="inline"><g id="party-plaid-cymru" transform="translate(-276.965)" fill-opacity="1" stroke-linecap="butt" stroke-linejoin="miter" stroke-opacity="1"><path id="path4535" d="M282.913 4.105l-.08.08c-.386.405-.592.876-.622 1.354-.358-.317-.837-.505-1.397-.518h-.113v.113c.013.56.201 1.039.518 1.397.033-.002.067-.003.1-.003h.02l.078.001.036.002.063.005c.012 0 .024.002.036.004l.064.007.036.006.061.01.038.008.064.015.03.008a2.066 2.066 0 01.165.05l.032.011.062.025.04.016.051.023.042.02.058.029.035.018c.02.01.038.021.057.032l.037.022c.02.011.038.023.057.035l.034.022.053.037.039.027.062.048.022.017.002.001.088.073a2.607 2.607 0 01-.073-.087l-.019-.024a2.38 2.38 0 01-.047-.063l-.028-.039-.036-.052-.022-.034a2.514 2.514 0 01-.036-.057l-.021-.037-.033-.057-.018-.035-.03-.058-.019-.042a1.822 1.822 0 01-.023-.052l-.016-.039c-.008-.02-.017-.041-.024-.062a1.344 1.344 0 01-.033-.097l-.01-.034a1.608 1.608 0 01-.017-.06l-.01-.04a1.08 1.08 0 01-.014-.058l-.008-.04-.01-.06-.006-.037-.008-.064-.004-.036a1.335 1.335 0 01-.004-.063l-.002-.036-.001-.078v-.02c0-.033.002-.067.004-.1l.073.068v.001l.013.013.055.056.023.026.044.05.018.023c.014.018.03.036.043.055l.02.028a2.34 2.34 0 01.09.134l.025.042.026.047.02.037.029.058.016.034.024.055.018.044.02.051.016.045.02.06a10.038 10.038 0 00.03.101l.01.043c.006.02.01.041.015.063l.009.04.014.078.005.03.009.069.006.045v.001l.01.11.01-.11.006-.046.01-.07.004-.03.014-.077.01-.04c.004-.022.008-.043.014-.063l.01-.043c.007-.02.012-.041.018-.062l.014-.046a1.61 1.61 0 01.016-.049l.02-.053.017-.045.02-.047c.006-.017.014-.035.022-.052l.02-.041.023-.047.024-.044.026-.046a1.682 1.682 0 01.052-.086l.026-.04c.01-.016.022-.031.034-.047a.744.744 0 01.066-.086l.018-.023.043-.05.024-.026c.017-.02.036-.038.054-.056l.013-.014.074-.068c-.03-.478-.236-.95-.622-1.355a2.747 2.747 0 00-.08-.079zm.702 1.434l.004.1V5.66l-.001.078-.002.036a1.335 1.335 0 01-.004.063l-.004.036a1.383 1.383 0 01-.008.064l-.006.036a.98.98 0 01-.01.061l-.009.038-.014.064-.008.03-.019.067-.01.033a2.61 2.61 0 01-.022.065l-.011.032a3.607 3.607 0 01-.04.101l-.023.052a.964.964 0 01-.02.042l-.03.058c-.005.012-.011.023-.018.035-.01.02-.021.038-.032.057l-.021.037a2.202 2.202 0 01-.058.09l-.037.054a1.99 1.99 0 01-.075.101c-.006.007-.01.015-.017.022v.002c-.024.03-.049.058-.074.087.029-.025.058-.05.088-.073l.024-.018.062-.048.039-.027.053-.037.034-.022.057-.035.036-.022c.02-.01.038-.022.057-.032l.035-.018.058-.03.043-.02.051-.022.04-.016.062-.025.031-.011a2.128 2.128 0 01.165-.05l.03-.008.065-.015.038-.008.06-.01.037-.006.064-.007.036-.004.063-.005.036-.002.078-.001h.02l.1.003a1.91 1.91 0 01-.069.074 1.887 1.887 0 01-.095.09l-.05.045-.023.018a1.94 1.94 0 01-.056.043l-.027.02a2.089 2.089 0 01-.053.037l-.036.024a2.021 2.021 0 01-.463.225l-.048.016-.047.014-.062.017-.042.012-.063.014-.041.009a2.51 2.51 0 01-.077.014l-.03.005-.07.01-.045.005a2.695 2.695 0 01-.11.01l.11.01.046.006.069.01c.01 0 .02.003.03.004l.077.014.04.01.064.014.042.01.062.018.047.015a2.388 2.388 0 01.287.114 2.056 2.056 0 01.262.151l.047.034.031.022c.02.014.037.029.056.044l.022.018a1.856 1.856 0 01.146.134c.024.024.046.049.068.074.478-.03.95-.236 1.355-.622.027-.025.053-.053.08-.08l-.08-.08c-.405-.386-.877-.592-1.354-.622.316-.359.504-.837.518-1.397V5.02a2.74 2.74 0 00-.113 0c-.56.013-1.04.201-1.398.518zm.992 2.396a1.82 1.82 0 01-.1.004h-.02c-.025 0-.051 0-.078-.002l-.035-.002-.063-.004-.037-.004a1.75 1.75 0 01-.063-.008c-.013-.001-.025-.004-.037-.006l-.06-.01-.039-.008a2.09 2.09 0 01-.064-.014l-.03-.008a2 2 0 01-.067-.019l-.033-.01a2.103 2.103 0 01-.065-.022l-.032-.011a2.179 2.179 0 01-.153-.063l-.042-.02-.058-.03-.035-.018-.057-.032-.037-.021a2.282 2.282 0 01-.056-.036l-.035-.022-.052-.037-.04-.027a2.474 2.474 0 01-.062-.048l-.024-.018a2.611 2.611 0 01-.087-.073c.025.029.05.058.073.087v.002l.018.022.048.063.027.039.037.052.022.035.035.056.022.037.032.057.018.035.03.058.02.042.022.052.016.039.025.062.011.032.022.065.01.033.018.066.008.03.015.065.008.038.01.06.006.037.008.064.004.036.004.064.002.035.001.079v.019c0 .033-.001.067-.003.1.358.317.837.505 1.397.518h.113v-.113c-.013-.56-.201-1.038-.518-1.397zm-.992.992a1.932 1.932 0 01-.074-.068l-.013-.013a1.875 1.875 0 01-.054-.057l-.023-.026a1.86 1.86 0 01-.044-.05l-.018-.023a2.02 2.02 0 01-.044-.055l-.02-.028a2.343 2.343 0 01-.09-.134l-.024-.042a1.974 1.974 0 01-.047-.085l-.028-.055-.017-.036a2.862 2.862 0 01-.023-.054l-.02-.046-.018-.048a1.85 1.85 0 01-.017-.047l-.02-.06a9.778 9.778 0 00-.03-.101l-.01-.042a2.13 2.13 0 01-.015-.063l-.009-.041a1.79 1.79 0 01-.014-.078l-.005-.03c-.004-.022-.006-.045-.009-.069l-.006-.045a3.85 3.85 0 01-.01-.11 3.764 3.764 0 01-.01.109v.001l-.006.045-.009.07-.005.03-.014.077-.009.04-.014.064-.011.042-.017.062-.015.046-.016.049-.02.053c-.005.015-.01.03-.017.046l-.019.046-.023.052-.02.042-.023.047-.023.043-.026.046a1.658 1.658 0 01-.052.086c-.01.013-.018.027-.027.04-.01.016-.022.032-.033.047l-.023.031a1.997 1.997 0 01-.043.055l-.018.023-.044.05-.023.026-.055.057-.012.012v.001a1.955 1.955 0 01-.074.068c.03.478.235.95.622 1.355.025.027.052.053.08.08l.08-.08c.386-.406.592-.877.621-1.355zm-1.404 0l-.004-.1v-.02c0-.025 0-.051.002-.078l.002-.035c0-.021.002-.042.004-.063 0-.013.003-.025.004-.037l.008-.063.006-.037a.978.978 0 01.01-.06l.008-.04.013-.059.01-.04.017-.06.01-.034.022-.065c.004-.01.007-.021.012-.031a3.603 3.603 0 01.04-.102l.023-.052a.955.955 0 01.02-.042l.029-.058.018-.035.033-.057.02-.036a2.539 2.539 0 01.095-.144l.028-.04.047-.062.019-.024c.023-.029.048-.058.073-.087a2.6 2.6 0 01-.088.073l-.002.001-.022.017c-.02.017-.042.033-.063.048-.012.01-.026.018-.038.027a2.395 2.395 0 01-.053.037l-.034.022a2.622 2.622 0 01-.057.036l-.037.02a2.242 2.242 0 01-.057.033l-.035.019-.058.029-.042.02a2.26 2.26 0 01-.052.023l-.039.016a2.19 2.19 0 01-.062.024l-.032.011a2.093 2.093 0 01-.164.05l-.03.009-.065.014-.038.008-.06.01-.037.006a2.51 2.51 0 01-.064.008c-.012 0-.024.003-.036.004a1.623 1.623 0 01-.064.004l-.035.002-.079.001h-.018-.002c-.033 0-.066 0-.1-.003.022-.025.045-.05.069-.074l.013-.013a2.003 2.003 0 01.082-.078l.05-.043.023-.018.056-.044.027-.02.052-.037.037-.024a2.108 2.108 0 01.511-.24l.047-.015.062-.017.042-.011.063-.015.04-.009.078-.014.03-.005.07-.01.044-.005.11-.01a2.7 2.7 0 01-.11-.01l-.045-.006a2.333 2.333 0 01-.069-.009l-.03-.005a2.486 2.486 0 01-.077-.014l-.041-.009a2.339 2.339 0 01-.063-.014l-.042-.011a2.309 2.309 0 01-.062-.018l-.047-.014a2.215 2.215 0 01-.424-.187l-.042-.025a1.96 1.96 0 01-.083-.054l-.048-.033-.03-.023a1.92 1.92 0 01-.056-.043l-.022-.018a1.839 1.839 0 01-.133-.122l-.014-.013a1.905 1.905 0 01-.068-.074c-.478.03-.949.236-1.354.622l-.08.08c.027.027.053.055.08.08.405.386.876.592 1.354.622-.317.359-.504.838-.518 1.397v.113h.113c.56-.013 1.039-.201 1.398-.518zm.514-1.694c.057.004.114.006.173.007l.006-.007-.006-.006c-.059 0-.116.002-.173.006zm.173-.006h.009v-.01a2.754 2.754 0 00-.126-.117c.037.043.076.085.117.127zm.009-.01a.206.206 0 01.006.007l.006-.006a3.63 3.63 0 00-.006-.173 2.449 2.449 0 00-.006.173zm.013 0v.01h.009c.04-.042.08-.084.117-.127a2.796 2.796 0 00-.126.118zm.009.01l-.006.006.006.007c.058 0 .115-.003.172-.007a2.807 2.807 0 00-.172-.006zm0 .013h-.01v.009c.042.04.084.08.127.117a2.823 2.823 0 00-.118-.126zm-.01.009c-.001-.003-.003-.004-.005-.006l-.006.006c0 .058.003.115.006.172.004-.057.006-.114.006-.172zm-.012 0v-.01h-.01c-.04.042-.08.084-.117.127.043-.037.085-.077.126-.117z" fill="#f9a81c" fill-rule="evenodd" stroke="none" stroke-width=".084"/><path id="path4537" d="M282.211 5.539c-.034.541.158 1.09.57 1.561.042.038.084.077.126.118 0-.058.003-.116.006-.173-.043-.623-.295-1.147-.702-1.506zm.702 1.506c.004.057.006.115.006.173.042-.041.084-.08.127-.118.41-.47.602-1.02.568-1.56-.406.358-.659.882-.701 1.505zm.133.055a2.817 2.817 0 01-.117.127c.058 0 .115.002.172.006.623-.042 1.147-.295 1.506-.702-.541-.033-1.09.159-1.561.57zm.055.133a2.83 2.83 0 01-.172.007c.04.041.08.083.117.126.47.41 1.02.603 1.561.569-.358-.407-.883-.66-1.506-.702zm-.055.133a2.798 2.798 0 01-.126-.117c0 .058-.003.115-.006.172.042.623.295 1.148.701 1.506.034-.54-.158-1.09-.569-1.561zm-.133.055a2.449 2.449 0 01-.006-.172c-.041.04-.083.08-.126.117-.411.47-.603 1.02-.57 1.561.407-.358.66-.883.703-1.506zm-.133-.055c.038-.043.077-.085.118-.126-.059 0-.116-.003-.173-.007-.623.042-1.147.295-1.506.702.541.034 1.09-.158 1.561-.569zm-.055-.133c.057-.004.114-.006.173-.006a2.752 2.752 0 01-.118-.127c-.47-.41-1.02-.602-1.561-.569.359.407.883.66 1.506.702z" fill="#f78d1f" fill-rule="evenodd" stroke="none" stroke-width=".084"/><path id="path4572" d="M286.161 2.759c-.458.011-1.001.134-1.531.332.29.637.485 1.34.495 1.93.59.01 1.294.205 1.931.496.377-1.01.48-2.072.063-2.49-.198-.198-.543-.279-.958-.268zm-3.245 4.468l.002.002.002.002v-.004h-.004zm-.01.01v.004h.004s0-.002-.002-.002l-.002-.003zM278.77 8.95c-.377 1.011-.48 2.072-.063 2.49.417.417 1.478.314 2.49-.063-.292-.637-.485-1.341-.496-1.93-.59-.011-1.294-.205-1.931-.497z" fill="#ffde79" fill-rule="evenodd" stroke="none" stroke-width=".084"/><path d="M278.438 3.986c.012.457.134 1.001.332 1.531.637-.291 1.341-.485 1.93-.495.011-.59.205-1.294.497-1.932-1.011-.377-2.072-.48-2.49-.062-.198.198-.279.542-.269.958zm4.468 3.245l.002-.002.002-.002h-.004v.004zm.01.01h.004v-.005c0 .001 0 .002-.002.003l-.002.002zm1.714 4.136c1.011.377 2.072.48 2.49.063.417-.418.314-1.479-.063-2.49-.638.292-1.342.485-1.93.495-.011.59-.206 1.294-.497 1.932z" id="path4583" fill="#ffde79" fill-rule="evenodd" stroke="none" stroke-width=".084"/><path id="path4585" d="M282.914 1.285c-.59 0-1.269.824-1.717 1.805.656.245 1.292.605 1.716 1.015.424-.41 1.06-.77 1.717-1.015-.448-.982-1.126-1.805-1.716-1.805zm0 5.938l-.003.003h.006l-.003-.003zm-.003.017l.003.003.003-.003h-.006zm.003 3.121c-.425.41-1.06.77-1.717 1.015.448.982 1.127 1.805 1.717 1.805.59 0 1.268-.823 1.716-1.805-.657-.245-1.292-.605-1.716-1.015z" fill="#fecb34" fill-rule="evenodd" stroke="none" stroke-width=".084"/><path d="M288.861 7.233c0-.59-.823-1.268-1.805-1.717-.245.657-.605 1.293-1.015 1.717.41.424.77 1.06 1.015 1.717.982-.449 1.805-1.127 1.805-1.717zm-5.938 0l-.003-.003v.006l.003-.003zm-.017-.003l-.003.003.003.003v-.003-.003zm-3.12.003c-.41-.424-.77-1.06-1.016-1.717-.982.449-1.805 1.127-1.805 1.717 0 .59.823 1.268 1.805 1.717.245-.657.605-1.293 1.015-1.717z" id="path4596" fill="#fecb34" fill-rule="evenodd" stroke="none" stroke-width=".084"/><path id="path4558" d="M284.63 3.09c-.083.03-.165.063-.246.097-.567.238-1.1.559-1.471.917-.425-.409-1.06-.769-1.716-1.014-.291.638-.486 1.341-.496 1.93-.59.01-1.293.205-1.931.496.245.657.605 1.292 1.014 1.716l.08-.08c.405-.386.876-.591 1.354-.621-.317-.359-.505-.838-.518-1.398v-.112h.113c.56.013 1.038.2 1.397.517.03-.477.236-.949.622-1.354.025-.027.053-.053.08-.08l.08.08c.386.405.592.877.622 1.355.359-.317.837-.505 1.397-.519h.113v.113c-.013.56-.201 1.04-.518 1.398.478.03.95.235 1.355.622.026.025.053.052.079.08l-.08.08c-.405.386-.876.592-1.354.621.317.36.505.838.518 1.398v.113h-.113c-.56-.013-1.038-.201-1.397-.518-.03.478-.236.95-.622 1.354a2.753 2.753 0 01-.08.08c.425.409 1.06.77 1.717 1.014.291-.637.486-1.341.496-1.93.59-.011 1.293-.206 1.93-.497-.244-.656-.604-1.292-1.014-1.716.41-.424.77-1.06 1.015-1.716-.638-.29-1.342-.485-1.931-.496-.01-.59-.205-1.293-.496-1.93zm-1.718 7.27l-.08-.078c-.386-.406-.592-.877-.622-1.355-.358.316-.837.505-1.397.518h-.112c.01.589.205 1.293.496 1.93.082-.03.163-.063.244-.096l.002-.001c.08-.034.16-.07.239-.106l.002-.001a5.349 5.349 0 00.673-.373c.208-.137.397-.283.556-.437zm.702-4.821c.003.04.003.08.003.12V5.64 5.64c0-.034-.002-.067-.004-.1zm0 0a1.975 1.975 0 010 0zm-.075.069l-.012.012a1.885 1.885 0 00.012-.012zm-.069.07c0 .001 0 .002-.002.003l-.009.01.01-.01.001-.002zm-.01.013l-.01.012-.044.05-.002.003.056-.065zm-.057.065l-.002.001-.005.007.005-.007.002-.001zm-.007.008a3.376 3.376 0 01-.052.067l-.003.004c.018-.024.037-.048.056-.07zm-.064.083l-.01.015-.034.047-.005.008a2.06 2.06 0 01.05-.07zm-.059.084l-.012.018-.027.044-.004.007.043-.069zm-.06.097c0 .002-.003.004-.004.006l-.026.046-.005.01.035-.062zm-.046.084a2.375 2.375 0 00-.03.06c-.004.004-.006.01-.008.014l.037-.074zm-.043.086l-.007.015a1.612 1.612 0 00-.023.052l-.007.015.036-.082zm-.043.1l-.006.013-.018.045-.006.018.03-.076zm-.04.102a.04.04 0 01-.003.01l-.016.049-.01.029.03-.088zm-.03.094a2.915 2.915 0 00-.021.073l-.006.024c.008-.033.017-.065.027-.097zm1.495.033h-.02c-.025 0-.051 0-.077.002h-.002a1.997 1.997 0 01.1-.002zm.1.004zm-2.191.02l.003.006.029.058a2.133 2.133 0 01-.032-.064zm.567.048l-.001.005.001-.005zm-.001.005c0 .002 0 .003-.002.005a2.13 2.13 0 00-.014.063l-.004.018c.006-.029.012-.058.02-.086zm-.02.086l-.003.015v0l.004-.015zm-.004.019v.004a1.79 1.79 0 00-.015.078l.015-.082zm.636.026l-.005.003a2.401 2.401 0 00.006-.002zm-.651.059l-.004.022v0l.004-.022zm-.004.024l-.001.003c-.004.022-.006.045-.009.068l-.004.03a2.31 2.31 0 01.013-.1zm-.298.108l.048.063.017.022a2.548 2.548 0 01-.065-.085zm.065.085l.001.001a2.465 2.465 0 000-.001zm.218-.08V6.93zm0 .002v.002l-.001.001a3.65 3.65 0 00-.01.107v.002a3.97 3.97 0 01.01-.112zm.917.134zm-.101.038a2.543 2.543 0 01-.003.001h.003zm-.833.112v.01h-.01l.007.006-.006.006h.009v.01l.006-.007.006.006V7.24h.01l-.006-.007-.002.003v.003h-.004l-.003.003-.003-.002h-.004v-.004l-.003-.003.003-.003v-.004h.004l.002-.002-.006-.006zm.013 0l-.006.006c.002 0 .003.002.004.003h.003v-.008zm0 .01l.001.003.002.002.005-.006h-.008zm.181.006c.039.002.077.006.115.01h-.004-.001a2.767 2.767 0 00-.11-.01zm-3.316 0c-.409.424-.769 1.06-1.014 1.715.637.291 1.341.486 1.93.496v-.112c.013-.56.201-1.038.518-1.397-.478-.03-.95-.236-1.355-.622l-.079-.08zm3.443.012a2.602 2.602 0 01.028.003c-.01 0-.019-.002-.028-.003zm.46.098zm.092.032l.061.024-.007-.003a2.133 2.133 0 00-.055-.021zm.095.038l.063.027-.004-.002a2.048 2.048 0 00-.052-.023l-.006-.002zm-.962.008a3.23 3.23 0 01-.01.114v-.004-.001c.005-.036.008-.073.01-.11zm-.012.126a2.763 2.763 0 01-.013.098l.01-.069c0-.01.002-.019.003-.029zm1.249.006l.054.034-.008-.004a1.927 1.927 0 00-.043-.028l-.004-.002zm-.885.103a2.562 2.562 0 01.006.01l-.006-.01zm-.97.042l-.063.032.005-.002.058-.03zm2.173.094a1.94 1.94 0 01.002.001h-.002zm-1.09.059l.02.037a1.503 1.503 0 00-.02-.037zm.05.1zm.039.09l.025.067v-.004a3.581 3.581 0 00-.025-.063zm-.697.06l-.022.06c0-.003.002-.005.003-.007l.017-.045.003-.007zm-.037.094v0zm0 .003l-.025.055.023-.052.001-.003zm-.313.515a2.045 2.045 0 01-.055.062l.011-.012.044-.05zm1.198.049v0zm0 .004c0 .053 0 .106-.003.158l.004-.097v-.002-.018l-.002-.04zm-1.263.02a1.966 1.966 0 01-.002.003l.002-.002z" fill="#fdbb29" fill-rule="evenodd" stroke="none" stroke-width=".084"/><path d="M293.136 4.879c0-.85-.415-1.362-1.086-1.362a.91.91 0 00-.806.454V3.59h-.367V7.17h.4V5.815c.213.26.45.377.777.377.652 0 1.082-.507 1.082-1.313zm-.42-.01c0 .574-.295.946-.734.946-.425 0-.705-.348-.705-.941 0-.594.28-.98.705-.98.444 0 .734.372.734.975z" style="line-height:5.73311px;-inkscape-font-specification:'TeX Gyre Heros';text-indent:0;text-align:center;text-decoration-line:none;text-decoration-style:solid;text-decoration-color:#000;text-transform:none;white-space:normal;isolation:auto;mix-blend-mode:normal;solid-color:#000;solid-opacity:1" id="path4520" color="#000" font-style="normal" font-variant="normal" font-weight="400" font-stretch="normal" font-size="medium" font-family="TeX Gyre Heros" text-decoration="none" letter-spacing="0" word-spacing="0" writing-mode="lr-tb" direction="ltr" baseline-shift="baseline" text-anchor="middle" clip-rule="nonzero" visibility="visible" color-interpolation="sRGB" color-interpolation-filters="linearRGB" fill="#4d9336" fill-rule="nonzero" stroke="#4d9336" stroke-width=".091" stroke-miterlimit="4" stroke-dasharray="none" stroke-dashoffset="0" color-rendering="auto" image-rendering="auto" shape-rendering="auto" text-rendering="auto"/><path d="M294.027 6.12V2.6h-.4v3.52z" style="line-height:5.73311px;-inkscape-font-specification:'TeX Gyre Heros';text-indent:0;text-align:center;text-decoration-line:none;text-decoration-style:solid;text-decoration-color:#000;text-transform:none;white-space:normal;isolation:auto;mix-blend-mode:normal;solid-color:#000;solid-opacity:1" id="path4522" color="#000" font-style="normal" font-variant="normal" font-weight="400" font-stretch="normal" font-size="medium" font-family="TeX Gyre Heros" text-decoration="none" letter-spacing="0" word-spacing="0" writing-mode="lr-tb" direction="ltr" baseline-shift="baseline" text-anchor="middle" clip-rule="nonzero" visibility="visible" color-interpolation="sRGB" color-interpolation-filters="linearRGB" fill="#4d9336" fill-rule="nonzero" stroke="#4d9336" stroke-width=".091" stroke-miterlimit="4" stroke-dasharray="none" stroke-dashoffset="0" color-rendering="auto" image-rendering="auto" shape-rendering="auto" text-rendering="auto"/><path d="M296.955 6.11v-.305c-.043.01-.062.01-.087.01-.14 0-.217-.072-.217-.198v-1.41c0-.448-.328-.69-.95-.69-.614 0-.99.237-1.014.82h.405c.034-.308.217-.448.594-.448.362 0 .565.135.565.377v.106c0 .169-.102.241-.42.28-.57.072-.657.091-.811.154a.665.665 0 00-.444.657c0 .458.318.729.83.729.323 0 .637-.136.86-.372a.428.428 0 00.414.333c.082 0 .145-.01.275-.044zm-.704-.865c0 .362-.367.594-.758.594-.314 0-.497-.11-.497-.386 0-.265.178-.381.608-.444.425-.058.511-.077.647-.14z" style="line-height:5.73311px;-inkscape-font-specification:'TeX Gyre Heros';text-indent:0;text-align:center;text-decoration-line:none;text-decoration-style:solid;text-decoration-color:#000;text-transform:none;white-space:normal;isolation:auto;mix-blend-mode:normal;solid-color:#000;solid-opacity:1" id="path4524" color="#000" font-style="normal" font-variant="normal" font-weight="400" font-stretch="normal" font-size="medium" font-family="TeX Gyre Heros" text-decoration="none" letter-spacing="0" word-spacing="0" writing-mode="lr-tb" direction="ltr" baseline-shift="baseline" text-anchor="middle" clip-rule="nonzero" visibility="visible" color-interpolation="sRGB" color-interpolation-filters="linearRGB" fill="#4d9336" fill-rule="nonzero" stroke="#4d9336" stroke-width=".091" stroke-miterlimit="4" stroke-dasharray="none" stroke-dashoffset="0" color-rendering="auto" image-rendering="auto" shape-rendering="auto" text-rendering="auto"/><path d="M297.798 6.12V3.59h-.4v2.53zm.053-2.912v-.502h-.502v.502z" style="line-height:5.73311px;-inkscape-font-specification:'TeX Gyre Heros';text-indent:0;text-align:center;text-decoration-line:none;text-decoration-style:solid;text-decoration-color:#000;text-transform:none;white-space:normal;isolation:auto;mix-blend-mode:normal;solid-color:#000;solid-opacity:1" id="path4526" color="#000" font-style="normal" font-variant="normal" font-weight="400" font-stretch="normal" font-size="medium" font-family="TeX Gyre Heros" text-decoration="none" letter-spacing="0" word-spacing="0" writing-mode="lr-tb" direction="ltr" baseline-shift="baseline" text-anchor="middle" clip-rule="nonzero" visibility="visible" color-interpolation="sRGB" color-interpolation-filters="linearRGB" fill="#4d9336" fill-rule="nonzero" stroke="#4d9336" stroke-width=".091" stroke-miterlimit="4" stroke-dasharray="none" stroke-dashoffset="0" color-rendering="auto" image-rendering="auto" shape-rendering="auto" text-rendering="auto"/><path d="M300.524 6.12V2.6h-.4v1.308c-.17-.255-.44-.39-.778-.39-.656 0-1.086.506-1.086 1.312 0 .855.42 1.362 1.1 1.362.348 0 .59-.13.807-.445v.372zm-.4-1.256c0 .584-.28.951-.705.951-.444 0-.739-.372-.739-.96 0-.59.295-.961.734-.961.434 0 .71.386.71.97z" style="line-height:5.73311px;-inkscape-font-specification:'TeX Gyre Heros';text-indent:0;text-align:center;text-decoration-line:none;text-decoration-style:solid;text-decoration-color:#000;text-transform:none;white-space:normal;isolation:auto;mix-blend-mode:normal;solid-color:#000;solid-opacity:1" id="path4528" color="#000" font-style="normal" font-variant="normal" font-weight="400" font-stretch="normal" font-size="medium" font-family="TeX Gyre Heros" text-decoration="none" letter-spacing="0" word-spacing="0" writing-mode="lr-tb" direction="ltr" baseline-shift="baseline" text-anchor="middle" clip-rule="nonzero" visibility="visible" color-interpolation="sRGB" color-interpolation-filters="linearRGB" fill="#4d9336" fill-rule="nonzero" stroke="#4d9336" stroke-width=".091" stroke-miterlimit="4" stroke-dasharray="none" stroke-dashoffset="0" color-rendering="auto" image-rendering="auto" shape-rendering="auto" text-rendering="auto"/><path d="M292.595 10.022h-.405c-.068.405-.275.57-.618.57-.444 0-.71-.344-.71-.942 0-.632.261-.99.7-.99.338 0 .55.198.599.55h.405c-.048-.617-.434-.921-.999-.921-.68 0-1.124.521-1.124 1.36 0 .817.434 1.314 1.12 1.314.603 0 .984-.362 1.032-.941z" style="line-height:5.73311px;-inkscape-font-specification:'TeX Gyre Heros';text-indent:0;text-align:start;text-decoration-line:none;text-decoration-style:solid;text-decoration-color:#000;text-transform:none;white-space:normal;isolation:auto;mix-blend-mode:normal;solid-color:#000;solid-opacity:1" id="path4509" color="#000" font-style="normal" font-variant="normal" font-weight="400" font-stretch="normal" font-size="medium" font-family="TeX Gyre Heros" text-decoration="none" letter-spacing=".39" word-spacing="0" writing-mode="lr-tb" direction="ltr" baseline-shift="baseline" text-anchor="start" clip-rule="nonzero" visibility="visible" color-interpolation="sRGB" color-interpolation-filters="linearRGB" fill="#4d9336" fill-rule="nonzero" stroke="#4d9336" stroke-width=".091" stroke-miterlimit="4" stroke-dasharray="none" stroke-dashoffset="0" color-rendering="auto" image-rendering="auto" shape-rendering="auto" text-rendering="auto"/><path d="M295.137 8.361h-.434l-.7 1.97-.647-1.97h-.43l.855 2.54-.155.4c-.067.178-.15.246-.323.246a1 1 0 01-.213-.029v.362a.545.545 0 00.27.063c.285 0 .517-.16.652-.522z" style="line-height:5.73311px;-inkscape-font-specification:'TeX Gyre Heros';text-indent:0;text-align:start;text-decoration-line:none;text-decoration-style:solid;text-decoration-color:#000;text-transform:none;white-space:normal;isolation:auto;mix-blend-mode:normal;solid-color:#000;solid-opacity:1" id="path4511" color="#000" font-style="normal" font-variant="normal" font-weight="400" font-stretch="normal" font-size="medium" font-family="TeX Gyre Heros" text-decoration="none" letter-spacing=".39" word-spacing="0" writing-mode="lr-tb" direction="ltr" baseline-shift="baseline" text-anchor="start" clip-rule="nonzero" visibility="visible" color-interpolation="sRGB" color-interpolation-filters="linearRGB" fill="#4d9336" fill-rule="nonzero" stroke="#4d9336" stroke-width=".091" stroke-miterlimit="4" stroke-dasharray="none" stroke-dashoffset="0" color-rendering="auto" image-rendering="auto" shape-rendering="auto" text-rendering="auto"/><path d="M299.035 10.89V8.993c0-.453-.25-.704-.724-.704-.338 0-.54.101-.777.386-.15-.27-.352-.386-.68-.386-.339 0-.56.125-.778.43V8.36h-.367v2.53h.4V9.301c0-.366.266-.66.595-.66.299 0 .468.182.468.506v1.742h.4V9.302c0-.366.27-.66.6-.66.294 0 .462.187.462.506v1.742z" style="line-height:5.73311px;-inkscape-font-specification:'TeX Gyre Heros';text-indent:0;text-align:start;text-decoration-line:none;text-decoration-style:solid;text-decoration-color:#000;text-transform:none;white-space:normal;isolation:auto;mix-blend-mode:normal;solid-color:#000;solid-opacity:1" id="path4513" color="#000" font-style="normal" font-variant="normal" font-weight="400" font-stretch="normal" font-size="medium" font-family="TeX Gyre Heros" text-decoration="none" letter-spacing=".39" word-spacing="0" writing-mode="lr-tb" direction="ltr" baseline-shift="baseline" text-anchor="start" clip-rule="nonzero" visibility="visible" color-interpolation="sRGB" color-interpolation-filters="linearRGB" fill="#4d9336" fill-rule="nonzero" stroke="#4d9336" stroke-width=".091" stroke-miterlimit="4" stroke-dasharray="none" stroke-dashoffset="0" color-rendering="auto" image-rendering="auto" shape-rendering="auto" text-rendering="auto"/><path d="M301.065 8.713v-.41a.968.968 0 00-.154-.014c-.261 0-.459.154-.69.53v-.458h-.368v2.53h.401V9.578c0-.57.188-.855.811-.865z" style="line-height:5.73311px;-inkscape-font-specification:'TeX Gyre Heros';text-indent:0;text-align:start;text-decoration-line:none;text-decoration-style:solid;text-decoration-color:#000;text-transform:none;white-space:normal;isolation:auto;mix-blend-mode:normal;solid-color:#000;solid-opacity:1" id="path4515" color="#000" font-style="normal" font-variant="normal" font-weight="400" font-stretch="normal" font-size="medium" font-family="TeX Gyre Heros" text-decoration="none" letter-spacing=".39" word-spacing="0" writing-mode="lr-tb" direction="ltr" baseline-shift="baseline" text-anchor="start" clip-rule="nonzero" visibility="visible" color-interpolation="sRGB" color-interpolation-filters="linearRGB" fill="#4d9336" fill-rule="nonzero" stroke="#4d9336" stroke-width=".091" stroke-miterlimit="4" stroke-dasharray="none" stroke-dashoffset="0" color-rendering="auto" image-rendering="auto" shape-rendering="auto" text-rendering="auto"/><path d="M303.578 10.89V8.361h-.401v1.395c0 .517-.27.855-.69.855-.319 0-.522-.194-.522-.498V8.361h-.4v1.912c0 .42.314.69.806.69.372 0 .608-.13.845-.464v.391z" style="line-height:5.73311px;-inkscape-font-specification:'TeX Gyre Heros';text-indent:0;text-align:start;text-decoration-line:none;text-decoration-style:solid;text-decoration-color:#000;text-transform:none;white-space:normal;isolation:auto;mix-blend-mode:normal;solid-color:#000;solid-opacity:1" id="path4517" color="#000" font-style="normal" font-variant="normal" font-weight="400" font-stretch="normal" font-size="medium" font-family="TeX Gyre Heros" text-decoration="none" letter-spacing=".39" word-spacing="0" writing-mode="lr-tb" direction="ltr" baseline-shift="baseline" text-anchor="start" clip-rule="nonzero" visibility="visible" color-interpolation="sRGB" color-interpolation-filters="linearRGB" fill="#4d9336" fill-rule="nonzero" stroke="#4d9336" stroke-width=".091" stroke-miterlimit="4" stroke-dasharray="none" stroke-dashoffset="0" color-rendering="auto" image-rendering="auto" shape-rendering="auto" text-rendering="auto"/></g></g><g id="layer8" display="inline"><g id="party-snp" transform="translate(-317.879)" fill="#000" fill-opacity="1" fill-rule="nonzero" stroke="none" stroke-width=".141"><path d="M322.22 5.03c-.297-.24-.65-.526-1.29-.526-.446 0-.8.251-.8.651 0 .389.297.651.845 1.017 1.051.73 1.725 1.188 1.725 2.456 0 .777-.274 1.394-.64 1.805-.64.709-1.507.858-2.33.858-.629 0-1.257-.115-1.748-.355l-.069-.103c.023-.297.046-.593.057-.89.012-.252.012-.503.023-.755l.08-.034c.16.137.617.514 1.406.514.822 0 .914-.617.914-.788 0-.411-.32-.64-.766-.96l-.469-.32c-.536-.388-1.28-.926-1.28-2.24 0-.81.286-1.416.675-1.804.468-.458 1.143-.663 2.01-.663 1.006 0 1.577.274 1.795.377l.045.08c-.022.286-.045.571-.057.857l-.034.788-.092.034" id="path788"/><path d="M325.097 6.709l.068 1.668c.035 1.36.046 1.428.103 2.685l-.08.069c-.868 0-.937 0-1.805.034l-.068-.069c.01-.583.022-1.142.022-2.045 0-.868-.022-3.085-.022-3.793-.012-.708-.035-1.417-.058-2.125l.069-.069c.891 0 1.154 0 2.057-.034l.09.057c.355.674.515.937 1.418 2.377l1.096 1.702-.045-1.93c-.012-.298-.046-1.772-.069-2.103l.069-.069c.822-.011 1.154-.023 1.736-.034l.069.068c0 .709-.023 4.216-.023 5.005 0 1.508.023 2.32.034 2.959l-.068.069c-.846 0-1.006 0-1.874.034l-.08-.069a66.846 66.846 0 00-1.348-2.285l-1.291-2.102" id="path790"/><path d="M330.627 3.133c.023.514.023.902.023 1.52 0 2.513-.023 3.758-.08 6.443l.057.069c.948-.034 1.21-.046 2.216-.034l.057-.07c-.034-.81-.034-1.13-.023-2.524.698.012 1.337.012 1.965-.332 1.269-.697 1.269-2.136 1.269-2.559 0-2.616-1.977-2.616-2.97-2.616-.16 0-.31 0-.47.011-1.359.023-1.508.023-1.987.023zm2.262 3.759V4.63c.16-.012.194-.012.263-.012.582 0 .754.446.754.971 0 .423-.046 1.028-.469 1.234-.16.069-.331.069-.548.069" id="path792"/><path d="M338.57 8.39s-.403.52-.058 1.157c.414.763.985 1.126 2.026 1.126 1.04 0 1.76-.433 2.05-1.126.289-.694-.114-1.127-.114-1.127l-1.851-2.082zM337.098 2.9h1.937l1.531 1.503 1.532-1.503h1.937l-2.544 2.486 2.168 2.283s.78.81.463 1.705c-.257.724-1.301 1.879-3.556 1.879-2.254 0-3.468-1.329-3.641-1.908-.174-.578.086-1.271.374-1.676.325-.459 2.285-2.341 2.285-2.341l-2.486-2.428" id="path794"/></g></g><g id="layer5" display="inline"><g id="g3316" transform="matrix(.2167 0 0 .2167 41.236 -207.583)"><g id="g2564" transform="matrix(1.25 0 0 -1.25 -168.886 891.138)"><path id="path2566" class="st0" d="M-5.025-96.706c-.208-.047-.378-.202-.5-.352h3.088c-.316.594-.697 1.336-.743 1.551 0 0-1.414-1.1-1.845-1.2"/></g><g id="g2568" transform="matrix(1.25 0 0 -1.25 -172.163 890.376)"><path id="path2570" class="st0" d="M-7.139-96.215c.02.315 0 1.377-.197 1.611 0 0-.117-.648-.215-.865-.067-.144-.625-1.398-.98-2.2h1.791a5.2 5.2 0 01-.162.432c-.1.217-.257.708-.237 1.022"/></g><g id="g2572" transform="matrix(1.25 0 0 -1.25 -137.026 888.015)"><path id="path2574" class="st0" d="M15.524-94.692L3.78-94.705a.712.712 0 00-.712.712L3.06-65.46c0 .393-.32.713-.713.713h-4.5a.712.712 0 01-.711-.713v-33.266c0-.394.318-.714.712-.714h2.73a.803.803 0 01.176-.023h14.771c.394 0 .714.32.714.713v3.347c0 .392-.32.712-.714.712"/></g><g id="g2576" transform="matrix(1.25 0 0 -1.25 -60.117 882.597)"><path id="path2578" class="st0" d="M65.13-91.197v14.17c0 .394.318.714.712.714h4.232c.396 0 .713-.32.713-.714v-26.286a.711.711 0 00-.713-.712h-1.873s-.57.087-.815.779c-.244.691-.529 1.791-.529 1.791s-.284 1.303-1.058.447c-.773-.855-4.142-3.483-10.706-3.42-10.458.103-9.886 10.457-9.886 12.646v14.86c0 .394.32.713.714.713h4.232c.394 0 .712-.32.712-.713v-15.15c0-1.802-.152-7.493 6.415-7.493 6.082 0 7.673 2.821 7.85 8.368"/></g><g id="g2580" transform="matrix(1.25 0 0 -1.25 -50.62 874.198)"><path id="path2582" class="st0" d="M71.256-85.78c-.773-.854-1.058.448-1.058.448s-.284 1.099-.53 1.792c-.243.692-.814.779-.814.779h-1.873a.714.714 0 01-.714-.714l-.052-26.485c0-.392.32-.711.713-.711h4.233c.391 0 .711.32.711.711v16.574c.19 1.308.954 5.253 5.2 5.784 1.557.195 2.385.049 2.385.049.73 0 1.118.097 1.118.925 0 .825-.047 3.258-.047 3.258s-.05 1.071-1.023 1.022c-.973-.048-4.427-.292-6.032-1.41-1.606-1.12-2.217-2.021-2.217-2.021"/></g><g id="g2584" transform="matrix(1.25 0 0 -1.25 -119.273 873.7)"><path id="path2586" class="st0" d="M26.975-85.458c-3.193 3.121-9.83 2.798-9.83 2.798-12.808.395-12.27-8.826-12.27-8.826l-.003-.76c0-.394.32-.713.713-.713h4.092c.393 0 .711.32.711.713l.069.858s.477 4.368 6.437 4.1c6.422-.287 6.817-2.691 7.139-5.597 0 0 .036-.61-.466-.717-.503-.107-11.445-.898-15.785-2.798-4.342-1.902-3.876-6.243-3.876-6.745 0-.502-.214-7.79 11.086-8.038 6.566-.142 9.866 3.59 9.866 3.59.287.287.574.536.862-.145.287-.681.574-3.05 1.47-3.121.898-.073 1.723-.036 1.723-.036s.896-.037.896.789c0 .825-.036 16.325-.036 16.325s.199 5.393-2.798 8.323m-2.942-13.776s-.035-.717-.18-1.83c-.37-2.868-2.942-5.274-6.493-5.598-3.553-.323-7.319.503-7.497 3.947-.181 3.445 6.42 3.73 7.461 3.874 1.04.145 4.659.526 5.92.611.538.036.86-.251.789-1.004"/></g><g id="g2588" transform="matrix(1.25 0 0 -1.25 -104.5 871.975)"><path id="path2590" class="st0" d="M36.504-84.346c-6.595.081-8.874-2.769-8.874-2.769s-.896-.975-.815.244c.081 1.223-.065 8.366-.065 8.366a.712.712 0 01-.712.714h-4.232a.714.714 0 01-.713-.714v-33.263c0-.394.32-.714.713-.714h1.875s.57.087.813.78c.246.69.53 1.79.53 1.79s.285 1.305 1.058.448c.773-.854 4.152-3.786 10.707-3.419 6.553.367 11.277 4.436 11.195 14.452-.08 10.014-4.885 14.004-11.48 14.085m5.617-14.737c-.04-1.832.533-9.196-7.978-9.037-6.555.123-7.41 4.64-7.45 9.16-.051 5.619 1.18 9.932 7.98 9.81 6.798-.122 7.57-4.518 7.448-9.933"/></g><g id="g2592" transform="matrix(1.25 0 0 -1.25 -155.676 885.734)"><path id="path2594" class="st0" d="M3.495-93.22c-.237-.492-.609-.59-.846-.63-.234-.039-.314-.176-.588-.51-.275-.334-.61-.844-1.808-2.594-1.198-1.748-4.794-1.08-6.797-.668-2.003.413-2.3 1.042-2.457 2.436-.157 1.397.865 2.222 1.16 2.36.294.137 1.591.648 2.397 1.354.805.706 2.102.845 2.299.845.195 0 .726.04 2.494.237 1.769.195 3.557-.276 4.774-.65 1.026-.315 3.082-1.463 4.068-2.018v23.864a2.673 2.673 0 01-2.673 2.673H2.78c.979-.827 2.454-2.476 2.702-4.127.31-2.06-1.993-2.747-2.182-2.814a2.524 2.524 0 01-.27-.108c-.686 1.427-.066 2.046.217 2.463.282.418-.135.62-.567.81-.43.187-.578.375-.645.605-.068.23-.108.552-.269.888-.162.338-.471.39-.755.418-.282.027-.511.19-.674.229-.16.04-.402.04-.402.04l.012-.23s-.78.405-1.535.958c-.536.393-.677.522-.89.868h-1.189c.065-.316.173-.498.275-.639.135-.19-.23-.7-.578-.807-.35-.109-1.16.146-1.16.146-1.143-.309-1.104-.121-2.464-.322-1.36-.202-1.602-1.105-1.844-1.656-.244-.553.188-.35-.459-1.266-.646-.916-2.034-1.214-2.599-1.2-.565.013-.39.082-.363-1.695.027-1.778.282-1.536.876-1.684.592-.148.82.647.916.768.094.12.106.283-.027.296-.658.065-1.052.202-1.24.378-.187.175.082.523.39.74.31.215 1.24.714 1.509.835a9.68 9.68 0 001.402.444c.35.067.402-.242.484-.405.07-.14.027-.296.336-.256 1.835.24 2.236-.053 2.357-.04.12.015.283.148.31.378.026.227-.619.363-.915.444-.296.081-1.994.108-1.994.108s-.43.336-.512 1.144c-.08.807 1.953 1.629 2.68 1.831.727.202 2.492.459 4.497.19 2.008-.27 2.855-1.523 3.206-2.897.35-1.373-.714-1.803-.876-1.817-.161-.013-.511-.35-.66-.606-.148-.256-.619-.606-.955-.809-.338-.2-.849-.646-.849-.646s-.013-.336-.432-.499c-.417-.16-.726.688-.982 1.254-.255.565-.484.809-.701 1.251-.215.445-.565.54-.7.54s-.174-.229-.174-.592c0-.365-.336-.728-.903-1.091-.566-.365-1.71.255-1.845.309-.135.054-.78.31-.97.392-.187.08-.256.2-.417.39-.162.188-.457-.136-.553-.202-.093-.069-.227-.188.015-.499.242-.309 1.01-.565 1.373-.674.365-.106.767-.592.984-.767.215-.175.444-.338.593-.242 1 .637 2.221.809 2.422.809.202 0 1.051-.015.634-1.308-.573-1.775-2.439-2.14-3.878-2.194-1.442-.055-2.182.308-2.264.308-.079 0-.093-.16-.054-.16.042 0 .513-.338.864-.58.348-.242.94-.62 1.185-.62.242 0 1.036.27 1.305.338.27.067.929.228 1.455.39.525.161 2.545 1.79 2.908 2.155.364.363.646 1.212.782 1.252.133.04.39-.175.592-.202.202-.026.632.58.74 1.011.11.43.136.484.257.511.121.027.161-.269.161-.269s.148-.755.081-1.804c-.067-1.052-.162-1.32-.471-2.21-.31-.888-1.373-.982-1.723-1.09-.35-.109-1.227-.39-1.846-.499-.62-.106-.943.23-1.36.417-.149.067-.956.203-1.023-.027-.29-.984 1.454-1.52 1.736-1.587 1.848-.441 4.418.444 4.552 1.548.204 1.663.39 1.858.607 2.1.215.242.794.04.794.04.215.217 1.225.957 1.225.957s.323.161.16.417c-.16.255-.268 1.292 1.012 1.158 1.28-.135 1.709-1.938 1.709-1.938s.513-1.066.148-3.771c-.363-2.706-3.972-5.482-7.257-6.517-3.286-1.037-4.848-.918-5.253-.918-.403 0-1.212.324-1.481.378-.27.054-.956.513-1.185.607-.23.094-1.022.498-1.198.578-.175.08-.794.471-1.157.728-.365.254-.46.525-.58.794-.121.27-.78.793-.862.862-.081.067 0 .175 0 .175.753-.323 5.844-1.037 6.248-1.051.405-.013 2.249-.067 2.49-.067.243 0 .675-.148.687.163.015.308-1.412.523-1.575.538-.16.012-.874.027-1.4.094-.525.067-1.791 2.034-1.967 2.288-.173.257-.242.19-.565.35-.323.163-1.454 1.037-1.59 1.187-.133.147.109.712-.025.86-.135.15-.567-.092-.906-.245-.804-.364-1.1.052-1.1.052l-1.1 1.154-.262-.576s2.776-2.254 3.562-2.883c.787-.628.209-.838.209-.838s-.576-.629-.786-.68c-.21-.053-1.885.261-3.195.628-1.31.366-1.729.785-3.038 1.938-1.31 1.152-1.833 4.138-1.676 4.716.157.576.21 1.467.105 1.728-.105.262-.315 1.153.157 1.153.471 0 .838-1.048 1.938-2.305 1.1-1.257 2.305-1.676 2.776-1.414.471.262-.157 1.047-.42 1.519-.261.471-.209.628-1.256 1.938-1.048 1.31-.315 2.305-.105 2.776.21.472.838 1.362.995 2.83.085.784.394 1.314.85 1.781h-11.169a2.673 2.673 0 01-2.673-2.673v-9.504c.73-.244 2.352-.802 2.642-1.04.378-.31 3.723-2.836 3.597-7.367-.013-.484.151-.64.363-.876.12-.133 1.293-1.266 1.09-1.965-.538.795-1.076 1.212-1.238 1.293-.161.082-.336.176-.457-.122-.121-.295-.23-1.091-1.832-.862-1.468.211-2.679.46-4.165 2.478V-98.62a2.673 2.673 0 012.673-2.673h2.132c.234.478.368.787.545 1.197.255.589 1.08 2.691 1.474 3.36.392.668.963 1.551.963 1.551s-.177 1.397-.138 2.202c.038.806.472 2.594.472 2.594s.157.292.077.609c-.077.314-.196.646-.117 1.217.078.569.334 1.454.786 1.866.451.412.766.648 1.02.628.257-.02.649-.392 1.16-1.59 0 0-.275-.039-.491.019-.215.06-.078-.117-.038-.177.038-.058.549-.452.294-.943-.256-.491-1.481-1.969-1.22-2.317.178-.237.277-.02.552.274.274.295.883 1.003.982.963.098-.04-.196-1.062-1.257-2.162 0 0 .295-.137 0-.686-.294-.551-.728-1.12-.785-1.238-.06-.119-.06-.394.117-.236.177.157 1.846 1.492 3.477 1.492 1.18 0 1.279-.363 1.494-.472.195-.097.491-.432.549-.609.06-.175.137-.312.432-.411.296-.098 1.258-.335 1.396-1.592 0 0 .51-.628-.12-1.591 0 0 4.924.663 7.012-3.948h9.767a2.673 2.673 0 012.673 2.673v5.155c-.834.493-2.64.717-2.888.717-.296 0-1.572.02-1.808-.472m-21.453 11.165c-.157-.04-.338.036-.585-.211a.686.686 0 01-.183-.423c-.014-.511-1.12.02-1.257.063-.352.11-.903.448-2.12 1.823-1.22 1.376-1.651 4.205-1.691 5.324-.04 1.12.452 3.163 1.906 5.089 1.454 1.925 3.988 2.26 4.322 2.26.334 0 .648-.04.668-.237.02-.197-.04-.197-.04-.432 0 0 .178-.432.118-1.12-.134-1.57-1.63-2.79-2.357-3.4-.726-.608-.649-1.414-.629-2.22.02-.803.649-3.476.786-3.928.137-.451 1.026-2.008 1.165-2.205.137-.197.052-.343-.103-.383m3.9-8.24c-.795.565-1.252 1.63-1.736 3.004-.486 1.372-.768 2.33-.985 2.947-.214.62-.363.674-.39.837-.027.16.027.254.094.321 0 0 1.185-.188 2.17-.632.982-.444.955-.526 1.802-1.09.85-.566 1.187-1.737 1.414-2.168.23-.432 1.014-.76 1.122-.815.109-.052.46-.309.46-.309 3.422-1.306 5.718-1.409 5.826-1.436.108-.025.16-.12.16-.12-.323-.498-3.366-.593-3.366-.593s-1.05.027-2.773-.472c-1.725-.497-3.004-.04-3.798.526"/></g><g id="g2596" transform="matrix(1.25 0 0 -1.25 -85.474 891.74)"><path id="path2598" class="st0" d="M48.775-97.094c-10.978 0-13.774 6.883-13.774 14.312 0 7.363 2.868 14.248 13.841 14.248 10.838 0 13.834-6.885 13.834-14.248 0-7.496-2.996-14.312-13.9-14.312m.066 23.788c-6.474 0-7.906-4.225-7.906-9.476 0-5.315 1.432-9.542 7.84-9.542 6.538 0 7.97 4.16 7.97 9.542 0 5.183-1.293 9.476-7.904 9.476"/></g></g></g><g id="layer4" display="inline"><g id="party-green-party" transform="matrix(.01351 0 0 .01351 0 .287)"><g id="_1395200373200"><circle cy="0" cx="0" id="circle7" r="643" transform="matrix(.35652 .33112 -.3164 .32932 615.662 593.306)" fill="#fff"/><path id="path9" transform="translate(0 -.095) scale(6.41879)" d="M88.49.016c-.779 7.79-5.452 13.552-6.543 22.12-.779 5.765.468 11.842 4.051 16.983 1.714-.311 3.584-.467 5.453-.623-3.427-9.659 3.272-19.007 2.649-24.148-.78-6.388-2.494-10.75-5.61-14.332zm36.3 5.763c-6.233 15.735-19.473 16.047-18.071 33.963 2.18.468 4.205 1.09 6.386 1.87 3.272-8.258 5.61-7.322 10.75-16.358 2.96-4.985 2.96-13.71.934-19.475zM49.23 8.428c5.453 8.257 4.519 14.489 6.077 22.746 1.09 5.92 4.362 11.06 11.373 14.799 1.402-.935 2.96-1.714 4.517-2.493-4.674-5.92-3.895-12.151-6.699-19.318-2.648-6.387-7.79-11.84-15.268-15.734zm47.672 2.181c.156 9.036-2.49 14.332-2.802 19.473-.156 2.804.933 5.454 2.18 8.414 1.246 0 2.337-.001 3.583.154.156-3.739 2.182-6.543 2.182-11.84 0-2.336-.936-10.748-5.143-16.2zm-33.027 6.075c4.05 7.478 2.96 11.373 5.61 17.605 1.402 3.272 3.894 5.92 6.542 7.322 1.09-.467 2.18-.778 3.116-1.09-.468-3.271-.779-6.076-1.87-8.724-1.87-4.83-6.855-10.907-13.398-15.113zm63.719 5.453c-1.247 4.362-2.492 9.347-4.985 11.84-2.804 2.804-4.206 6.233-3.894 9.972 1.09.468 2.335 1.09 3.426 1.713.779-1.87 2.494-3.583 3.896-5.92 1.87-3.427 3.738-10.439 1.557-17.605zm30.691 3.427c-8.101 7.011-14.333 6.233-20.564 9.66-5.141 2.96-8.101 9.036-8.569 14.956.312.467.78.78 1.246 1.091.624.468 1.246 1.09 1.87 1.713 5.92-8.412 12.619-7.634 18.695-12.775 2.493-2.025 5.92-5.297 7.322-14.645zM21.188 31.018c8.88 8.1 8.256 12.463 10.593 17.449 2.805 6.231 7.79 10.593 18.229 13.086a39.883 39.883 0 013.115-4.051c.156-.156.156-.155.156-.31-9.503-4.207-9.816-12.464-15.58-18.696-3.116-3.427-7.945-6.076-16.514-7.478zm16.203 2.648c3.271 4.05 4.36 8.257 7.632 12.463 2.805 3.427 7.013 5.764 11.842 7.322.78-.779 1.558-1.556 2.492-2.18-3.115-3.427-3.895-7.166-7.011-10.126-3.74-3.428-8.412-5.921-14.955-7.479zm120.271 1.87c-3.739 4.673-7.011 9.036-12.152 11.528-4.518 2.337-8.257 5.297-9.815 9.036l3.272 3.74c9.659-4.05 17.916-13.71 18.695-24.305zm-62.316 8.138c-14.298-.19-28.374 5.62-38.014 17.1-17.137 20.564-13.554 51.256 7.945 68.705 21.344 17.448 52.658 14.955 69.639-5.61 17.137-20.409 13.555-51.254-7.79-68.703-9.405-7.566-20.66-11.344-31.78-11.492zM89.58 46.44c.467.156.78.778 1.092.934.467 0 .935-.31 1.402-.154l.467.467s.311.156.467.156c.467.311 1.246.31 1.869.31h.78c.31-.155.778-.467 1.245-.467.312.156.312.78.157 1.247.311.155.624.156.935.156.78.311 1.714 1.868 2.649.933.623.312 1.09.625 2.025.313.467 0 .778-.311 1.09-.467h.78c.31-.311.154-.624.31-1.092.155-.155.467-.311.779-.623.156-.155.313-.467.469-.467.623.156 1.245.156 1.713.467v.936c.155.156.311.31.623.31.155 0 .467-.154.623-.154.623 0 .935.466 1.402.777-.156.468-.468.78-.78 1.092 0 .156.157.311.313.467 0 .467-.156 1.091 0 1.559 0 .311.467.778.31 1.246-.31 0-.467.31-.779.31-.155.156-.31 0-.466.157-.312 0-.468.156-.78.156-.311 0-.623-.157-.779-.313-.311-.156-.621-.31-.777-.467-.312 0-.468.157-.78.157-.779.156-1.246.154-1.869.31-.467.468-.78.935-1.091 1.403-.156 0-.312.156-.624.312-.311 0-.622-.156-.933 0-.623.156-.468.935-.936 1.246-.155.468-.467.935-.779 1.403.467.779 1.402.934 1.87 1.869-.468.155-1.402-.155-1.557.312-.156.312 0 .935-.157 1.246-.311 0-.934-.157-1.246-.468-.311-.468.312-.935.156-1.403a.857.857 0 00-.779-.467c-.311-.155-.624-.156-.935-.156-.312-.156-.78-.31-1.246-.467-.312-.155-.78-.467-1.247-.779-.155-.156-.778-.623-1.246-.623-.311 0-.624.624-.935 1.092-.623.935-.934 1.868-1.713 2.959-.312.467-.625.624-1.092.935-.156.156-.467.312-.467.623 0 .312 1.091.779 1.403 1.09.155 0 .31.156.466.156.468.156.78-.468 1.247-.312.311-.312.157-.778.468-.934.468 0 .934.467 1.713.31.312 0 .779-.465 1.246-.153v.933c-.467.312-.935.935-1.402 1.403-.312.311-.622.622-.934 1.09 0 .155 0 .312-.156.468 0 .156-.156.311-.156.467v.467c-.156.467-.622.623-.934.779 0 .156-.156.467-.156.467-.156.311-.313.313-.313.469-.155.155.002.467-.154.623 0 0-.156.154-.156.31-.312.468-.469.78-1.092.936-.311.156-.778.156-1.09.156-.311-.467-.155-1.404-.467-1.871-.155-.78-.156-1.713-.935-1.87-.623.312-.312 1.403-.623 2.026-.467 0-.778-.31-1.09-.467-.312-.467-.78-.935-.936-1.558-.155 0-.156-.155-.156-.31-.311-.312-.777-.625-.777-1.093-.467-.623-1.715-.465-2.494-.777-.312.312-.622.155-.934.31-.156 0-.313.313-.469.313-.311.156-.622.155-.933.31-.468.156-.78.313-1.092.157-.312 0-.466-.467-.777-.467-.623 0-.935.622-1.403.777-.311 0-.624-.154-.935-.154-.156 0-.155.155-.467.31-.467.312-.779.624-1.246.78 0-.312.154-.624.154-.936.468-.467 1.091-.778 1.559-1.246.311-.779.468-1.557.78-2.492 0-.156.155-.31.155-.467 0-.311 0-.467-.156-.623a19.656 19.656 0 00-.467-1.558c-.623.156-1.402.467-2.025.779-.623.156-1.091.311-1.559.467-.155.156-.31.468-.466.78-.312.155-.78.467-.936.778-.156.935.311 2.025-.156 2.96-.623 0-1.09-.466-1.713-.778-.468-.156-.934-.469-1.09.154-.156.156 0 .313 0 .47-.156.466-.157.778-.313 1.245 0 .468.001.934-.31 1.09-.156.312-.624.311-1.092.467-.467.779.155 1.558.467 2.181-.156.624-.31 1.714-.31 2.493.467.311 1.402.156 2.181.312.935.156 1.09.31 1.557.934.155.311.313.623.468.78.156.466.468.779.623.935.156.155.155.467.155.623.156.155.312.156.312.312.156.468 0 .935.157 1.246 0 .312.154.466.31.778 0 .155 0 .467.156.779 0 .156.157.311.313.623 0 .156.154.468.154.78 0 0 .156.156.156.312.156.156.157.31.157.467.311.467.778 1.09 1.246 1.712.155.312.466.47.466.625.156.468-.466.934-.466 1.713 0 .312.155.624 0 .936-.156.779-.935 1.402-1.246 1.869.155.623.154 1.245.31 1.557.78.311.937.467 1.248 1.246 0 .623.31 1.402.154 2.025-.155.312-.31.624-.31.936-.156.467 0 .935-.156 1.402-.156.312-.624.156-.936.156l-.31.31c-.312 0-.623.001-.623.157-.156.467.31.778.466 1.09l1.403 2.805c0 .155.156.31.156.466.467.78.622 1.716.934 2.495.155.311.468.778.468 1.246 0 .311-.155.622 0 .933-.155.312-.467.624-.779.936-.467.467-.935.935-1.402 1.558-.312.312-.78.623-.936.623-.467.156-.778-.467-1.09-.779-.467 0-.778-.468-1.246-.78-.623.157-1.246.001-1.869.157-.156 0-.313.156-.469.156h-1.09c-.934 0-1.869.311-2.648.467-.935.156-1.713 0-2.492.156-.312.156-.625.468-1.092.623h-.467c0 .156-.155.157-.31.157-.156.155-.313-.002-.47.154 0 0-.154.156-.31.156-.311.156-.624.156-.935.156-.623.312-1.091.935-1.559 1.247-.311.623-.622 1.245-.933 1.712-.312-.311-1.714-3.114-1.87-3.582l-.156-.312c-1.713-4.05-2.96-8.1-3.584-12.307 0-.623.78-1.247 1.092-1.715.156-.311.311-.467.467-.779.467-.779.935-1.556 1.402-2.18.156-.934.156-1.246-.156-2.025 0-.156-.156-.468-.156-.78-.312-.467-.624-.778-.78-1.245 0-.312.157-.935.313-1.246.156-.468.468-.78.78-1.247.467 0 .622-.469.622-1.248.156-.311.312-.465.623-.777-.155-1.402.467-2.337 1.09-3.271 0-.156 0-.313.156-.313.156-.467.468-1.09.157-1.869.155-.935 1.246-1.402 2.025-2.025 0 0 .155-.157.31-.157.312-.155.624-.155.78-.466.156-.156 0-.468.156-.78.156 0 .31-.156.31-.312.312-.312.625-.466 1.092-.778.312-.155.622-.312.934-.312.935.311 1.559.623 2.338 0 .312-.312.468-.468.78-.936.155-.311.31-.467.31-.623 0-.779-.623-1.246-.623-1.869.156-.623.467-1.09.623-1.869 0-.312.312-.624.312-.936-.155-.311-.468-.466-.312-1.09 0-.311.313-.467.469-.779 0-.467-.158-.935.154-1.402-.156-1.09.312-1.87.935-2.648 0-.312.31-.311.31-.467.157-.312.158-.468.313-.623.156-.468.468-.624.623-.936.156-.779 0-1.402.157-2.025 0-.312.467-.622.623-.778.156-.311.311-.78.623-.935.311 0 .311.312.623.312.467-.155.934-.936 1.09-1.714v-.624c0-.467.468-.934.312-1.246.623-.467 1.247-.778 2.026-1.246.155 0 .31-.156.466-.312a7.283 7.283 0 001.559-.78h.31c1.403-.778 2.805-1.245 4.208-1.869.311 0 .624-.156.935-.156 3.116-1.09 6.23-1.712 9.502-2.18zm86.465 5.764c-11.061 4.206-14.488 2.492-21.188 4.518-5.14 1.558-9.19 4.985-11.683 9.191.935 1.558 1.87 3.116 2.648 4.83 5.765-2.96 11.685-2.805 16.67-4.83 4.83-2.025 8.568-6.387 13.553-13.709zm-54.527 4.518c.155 0 .311.312.623.312h.468c.624 0 1.09.31 1.557.31.156 0 .467-.154.623-.154.312.156.624.778.78.778.155.156.467 0 .779 0 16.514 14.177 21.187 36.924 12.463 55.152h-.467c-.156 0-.157-.312-.313-.78-.156-.155-.467-.466-.467-.622-.155-.156-.156-.312-.156-.623-.156-.468-.31-.781-.467-1.248 0-.624-.156-1.401-.156-2.18-.311-.467-1.402-.624-1.869-1.092-.156-.156-.311-.467-.623-.467-.156-.155-.311 0-.623.157h-.936c-.311.155-.622.31-.933.31-.623 0-1.092-.467-1.715-.467h-.777c-.935-.155-1.715-.467-2.338-.623-.468-.155-.935-.312-1.246-.312-.312-.156-.779-.466-1.09-.154 0 .311.31.467.467.623l.623.623c.467.467 1.09 1.4 2.181.933.156 0 .467-.31.623-.31a1.472 1.472 0 011.713 1.09c.156.155 0 .311.156.623 0 .311.155.778.311 1.246 0 .155.156.312.156.312-.156.468-.623.624-.78.936-.31.155-.621.622-.933.933-.155.156-.31.157-.466.313l-.47.467c-.31.311-.777.467-1.09.623-.31.311-.623.623-.935.779-.155.156-.622.155-.933.31-.156 0-.467.157-.623.313-.623 0-1.248-.156-1.871 0-.156 0-.468.156-.623.156-.312 0-.935-.312-1.246-.312-.468-.156-.778-.312-.934-.623v-1.403c-.156-.623 0-1.246-.156-1.869-.156-1.402-1.09-2.18-1.87-3.271-.155-.156-.312-.312-.468-.623-.156 0-.155-.311-.155-.467l-.312-.313c0-.155 0-.467-.156-.623 0-.155-.155-.311-.31-.623v-.467c-.157-.155-.313-.311-.313-.623-.156-.155-.155-.467-.155-.623-.155-.311-.625-.624-.625-1.091-.311-.312-.465-.624-.777-.78-.467.312 0 1.404-.469 1.871-.623-.155-.779-.779-1.402-.779-.312.467.312.779.312 1.246.312.623.624 1.09.936 1.557.467.623.622 1.091.934 1.715.467.467.78.778.935 1.09.156.155.156.312.156.468 0 .156.155.155.155.31.156.312.156.624.156.78.156.312.311.778.467 1.09.156.467.156.935.312 1.402v.623l.467.47c.156.155.157.31.313.466.155.311.623.779.779 1.246.311.312.31.78.777.936.468-.156.779.154 1.246.154h.469c.467.156 1.09.313 1.557.469.467 0 1.09.155 1.402.466 0 .312-.466.468-.777.78-.312.155-.468.311-.78.623-.467.311-.935.622-1.402 1.09-.156 0-.157.156-.312.312-.624.467-1.401.624-2.18.78-.623.467-.78 1.089-1.402 1.556-.156 0-.313.312-.313.312-.156.156-.467.155-.623.155-.467.311-.779.78-1.246.935-.312.156-.624.156-.936.467-.311.312-.31.779-.466 1.246-.156.312-.311.468-.467.78-.156.311-.312.935-.623 1.402 0 .156-.157.311-.313.623 0 .156 0 .313-.156.469 0 .155-.155.31-.31.466-.312.624-.312 1.402-.624 1.87-.155.467-.935.934-1.402 1.09-.467.467-.935.623-1.402.935-.156.312-.311.468-.467.78-.468.31-.623 1.089-1.246 1.556-.468 1.09-1.402 1.87-2.026 2.805-.311.155-.624.156-.935.156h-.156c-.312.156-.622.156-.934.156h-.156c-.312 0-.624.156-.936.156H100.174c-.312.156-.622.155-.778.155H95.656c-.311 0-.467-.155-.779-.155H93.32c-.155-.934.155-1.713.155-2.648.155-.156 0-.468 0-.78 0-.623.469-1.245.625-1.869.155-.934 0-1.869-.157-2.648 0-.312 0-.623-.156-.78-.156-.778-.623-1.402-.623-2.18-.467-.468-.468-1.246-.78-1.714.312-.935.312-1.87.624-2.804.156-.312.312-.624.312-.78 0-.311 0-.624-.156-.935 0-.312.156-.622 0-.778 0-.311-.156-.624-.156-.935-.156-1.09.31-1.87.467-2.649 0-.311 0-.467.156-.623 0-.155.156-.31.156-.466.156-.156.156-.47.156-.625.156-.312.467-.622.467-.778 0-.311-.623-.78-.78-.935-.155-.156-.154-.468-.31-.623-.155-.312-.467-.468-.623-.78-.156-.156-.156-.31-.312-.467-.156-.155-.31-.156-.31-.312-.157-.156-.158-.467-.47-.623-.311-.312-.779-.155-1.402-.31-.311 0-.622-.157-.933-.157-.156 0-.311.156-.467 0-.312 0-.624-.157-.936-.312-.779-.156-1.559-.31-2.338-.31-.311-1.091-.934-2.182-1.246-3.429-.156-.155-.31-.467-.31-.623-.156-.467-.157-.934-.313-1.246-.156-.467-.467-.778-.467-1.09.156-.467.312-.78.623-1.091 0-.624.468-1.092.623-1.559v-.623l.467-.467c0-.156 0-.467.156-.623.156-.311 1.092-.778 1.56-1.09.622-.311 1.088-.624 1.556-1.092l2.338-1.402c.623-.467.78-.779 1.558-.623.468 0 .935.469 1.246.469.468-.156.467-.624.467-.936.312-.311.623-.623.623-1.246.312-.156.311-.157.467-.312.779-.312 1.092-.778 1.715-.934.467-.311 1.401-1.246 1.713 0 .311.312.778.311 1.246.467.311.156.467.467.78.467.466.155 1.09.156 1.558.312.311 0 .622.311.933.467.156.312.469.468.469.936 0 .311-.312.467-.312.779.155.467.467.468.623.78.311.155.624.622.935 1.089.312.312.623.934 1.09 1.09.312 0 .468-.31.78-.31.622 0 .934.465 1.245.933.78.311 1.558.467 2.493.623.311 0 .467.156.779.156.467.156.935 0 1.402.156.623.156 1.091.468 1.559.623.467 0 .467-.624.623-.935.156-.312.467-.466.467-.777 0-.468-1.247-.314-1.559-.625-.623-.468-.622-1.557-.154-2.336.156-.312.467-.312.623-.78-.156-.311-.78-.312-1.092-.156-.156.623.002 1.56-.777 1.715-.312.156-.624 0-.78 0h-.623c-.311-.156-.623-1.248-.623-1.715 0-.467.156-.935 0-1.402a1.216 1.216 0 00-.623-.623c0-.468-.157-.778-.469-.934-.467.467.157.778.313 1.09.156 1.09.623 2.337-.156 2.805-.78-.312-.935 0-1.403.312-.311.312-.467.623-.779.623-.467 0-.779-.624-.623-1.092 0-.467 1.246-.935 1.246-1.402 0-.312-.31-.468-.467-.78v-.622c-.156-.312-.31-.622-.31-.778v-.468c0-.312-.313-.779-.313-1.09-.311-.623-.934-.157-1.713-.313-.311 0-.313-.466-.468-.777-.935-.156-.935.466-1.403.777-.156.156-.465.313-.777.469-.156.156-.467.311-.623.467-.312.156-.468.623-.78.623-.467.156-.934-.311-1.246-.467-.467-.312-.936-.468-1.091-.78 0-1.09-.623-1.245-1.09-1.868 0-.624.467-.78.623-1.246.156-.156.155-.468.467-.78l.623-.623c.156-.156.156-.313.312-.469l.467-.466c.312-.312.622-.623 1.09-.31.156 0 .313.31.469.466.311.311.156 1.091.779.935.467 0 .467-.313.467-.625 0-.155 0-.622-.157-.933 0-.156-.466-.467-.466-.623 0-.312.31-1.09.466-1.246.468 0 .78.467 1.247.623.311 0 .467-.157.623-.157.311.156.467.467.779.467.311.156.78 0 1.092 0 .467-.156.778-.156 1.09-.156.155-.156.154-.311.31-.467.312-.311.625-.622 1.092-.933.311 0 .467.154.623.31.467-.623 1.09-.935 1.713-1.402 0-.312-.623-.312-.623-.78.156-.155.78-.467.935-.623.156-.155.311-.467.467-.623.312-.155.468-.154.78-.31.155-.156.467-.312.622-.623.312-.156.624-.313.78-.469.467-.311.622-.778 1.09-.933.311-.156.467-.468.779-.624.467 0 .935.312 1.402.624.312.155.779.31 1.246.466.156.156.157.311.313.467.156 0 .467.156.623.156.311.312.622.624 1.09.313.156-.312-.157-.624-.157-.936 0-.467.157-1.09.313-1.246.156-.311.311-.311.467-.623.156-.156.156-.31.312-.467.156-.311.623-.936.623-1.248.156-.311 0-.467 0-.623.156-.311.311-.622.467-1.09 0-.155.156-.31.156-.466 0-.312.155-.468.155-.623.155-.312.313-.313.468-.47 0-.155.157-.465.157-.777.155-.467.155-.935.466-1.558-.311-.623.157-1.092.157-1.715 0-.312-.313-.622-.469-.934 0-.311.156-.778.156-1.09 0-.623-.467-1.402-.467-2.181-.467-.467-1.247-.468-1.714-.936-.78-.311-1.713-.466-1.557-1.556-.312-.623-1.247-.78-.78-1.715.468-.156 1.246-.156 1.557-.623.312.156.468-.156.78-.156zm-96.155 2.043c-2.506.049-5.353.644-8.693 2.007 8.257 4.051 12.307 8.882 16.98 10.44 5.142 1.714 6.545.156 11.063.623.311-1.09.779-2.026 1.246-2.805-7.06-3.651-11.646-10.441-20.596-10.265zm79.432 3.97c.277-.014.598.102.832.22.779 0 1.869-.156 2.492.155.156.78-.155 1.87.313 2.649 0 .156.467-.002.623.154-.156.467-.623.78-1.09.936-.156.155-.313.466-.469.466-.935.78-2.024 1.56-2.803 2.495.312 1.557-1.246.466-2.025.466-.312-.155-.624 0-1.092.157h-.78c-.31 0-.466.154-.622.154h-.623c-.156 0-.622.313-.934.469-.311.155-.623.467-.78.623-.31.155-.466.156-.622.156-.468.312-.623.623-1.246.623-.156-.312.154-.779.154-1.246.312-.467.313-1.248.469-1.871.156-.156.155-.467.31-.623.468-.156 1.091-.155 1.403-.467.311-.156.624-.468.935-.78.623-.467 1.09-.935 1.713-1.558.623-.467 1.558-.777 2.026-1.4.311-.312.467-.937.779-1.248.156-.156.623-.467.78-.467a.648.648 0 01.257-.063zm-90.156.453c-3.053-.087-6.85.7-11.524 2.102 5.453 2.804 11.842 7.634 18.385 11.996 7.166 4.985 13.554 6.544 20.564 4.05.156-1.401.467-2.802.934-4.204-13.554-2.493-16.98-11.218-25.549-13.555-.857-.234-1.793-.36-2.81-.389zm155.175 1.479c-8.1 7.166-12.931 6.544-16.982 7.635-2.025.623-4.206 2.336-5.14 3.115.467 1.246.934 2.648 1.402 3.894 9.503.156 17.293-6.075 20.72-14.644zm-66.68 11.53c.312.155.468.31.78.466.467.312 1.09.157 1.09.936 0 .311-.468.78-.78.935-.155.156-.31.155-.466.31-.468.468-.156.935-.623 1.247-.78-.156-2.961-.155-2.961-1.09 0-.467.312-.623.78-.623.622-.467.155-1.09.622-1.402 0-.156.312-.157.623-.313.468-.156.468-.467.936-.467zm3.966.015a.907.907 0 01.552.14c0 .312-.155.468 0 .624.156.155.312-.157.623-.157.468 0 .78.313 1.246.313.312.623.468 1.245 0 1.556-.311.312-1.09.313-1.402.47-.467.31-.311 1.245-.623 1.712.312.467.157 1.247-.31 1.559h-1.09c-.312 0-.624.154-.78.154-.311 0-.624-.31-.935-.31-.468-.156-.935.156-1.246.156-.312-.156-.468-.313-.78-.313-.467-.311-.933-.311-.933-.623 0-.311.155-.623.31-.78.468-.31 1.246.158 1.713-.31.156 0 .157-.313.313-.468.156-.156.467-.155.623-.311.156-.156.155-.623.467-.78h.935c0-.31-.155-.778.313-1.09-.156-.155-.157-.31-.157-.622.234-.35.642-.876 1.16-.92zm8.654 2.945c-.156.156-.312.155-.623.31l-.936.468c-.155.311-.154.467-.31.623 0 .155-.156.313-.156.468 0 0 0 .157-.157.157 0 .155 0 .31-.156.466-.312.624-.934.624-1.713.78 0 0-.155-.002-.31.154-.156.312-.001.467.154.623.156.156.312.313.312.469.156.156.157.31.157.31.155.156.154.313.154.313l.312-.313.311-.31c.156 0 .313-.157.469-.313.156-.156.31-.156.467-.156.155-.156.31 0 .466 0h.78c.155-.156.467-.154.623-.154h.312c0 .156.156.154.156.154l.311-.31s.157-.157.312-.157c.156-.156.311-.156.311-.156a.477.477 0 01.313-.154c.08-.082.119-.162.16-.221-.168.063-.399.064-.63.064-.622-.155-.778-.935-1.09-1.402v-.312l-.155-.311.156-.156c.156-.156.468-.311.78-.467 0-.156.155-.156.155-.156h-.312c-.156 0-.311-.156-.467-.156-.156 0-.156-.155-.156-.155zm1.719 3.051a.414.414 0 00.15-.092c-.074 0-.113.038-.15.092zm-5.87-2.06a.486.486 0 00-.21.1c.155.31-.001.933.31 1.089.41-.273.341-1.26-.1-1.19zm49.737 3.15c-4.448.036-8.39 1.233-10.844 2.869.312 2.025.467 4.207.623 6.232 5.609-1.402 8.256 1.557 14.332 2.336 6.076.78 14.334-.934 20.254-6.543-8.257.156-11.528-3.27-19.785-4.517a25.4 25.4 0 00-4.58-.377zm-133 4.334a24.18 24.18 0 00-2.479.094c-5.92.467-10.283 1.558-14.177 4.673 7.166-.311 11.997 2.337 17.761 2.649 4.05.156 7.633-1.404 11.684-3.74 0-.935 0-1.87.156-2.649-4.226.954-7.497-.953-12.945-1.027zm88.037 6.637a.333.333 0 00-.31.31c-.156.156-.313.157-.313.313v.31c0 .156.156.313.156.469 0 0 .155.156.31.156.312.156.625.155.936.31h.31s.001.157.157.157h.78c.155 0 .31-.156.622-.156v-.157c.156 0 .311-.154.467-.154v-.312c-.467 0-.778-.157-1.09-.157-.311-.155-.624-.156-.935-.156-.468-.156-.622-.311-.778-.623zm-100.748.816C11.58 95.1 6.719 96.49 0 100.969c14.8 3.271 25.706 11.996 42.531 1.402-.467-1.87-.78-3.74-.935-5.61-12.103 4.928-17.063-1.705-25.967-1.675zm144.994 1.209c-3.583 0-7.012.622-9.66 1.557-.156 1.246-.155 2.493-.467 3.74 8.88 1.558 17.136.467 24.926-4.207-4.674.311-10.125-1.09-14.799-1.09zm-5.955 12.016c-2.307.03-4.426.33-5.887.914-.311 1.246-.622 2.337-1.09 3.427a22.565 22.565 0 016.543 2.493c2.181 1.09 4.363 2.804 6.7 4.83 5.14 4.518 10.749 7.322 21.187 4.05-9.192-5.764-12.463-11.683-16.514-13.709-2.726-1.363-7.094-2.057-10.939-2.005zm-9.002 9.015c-.623 1.09-1.09 2.181-1.87 3.272 7.012 5.14 13.554 9.503 25.083 7.478-4.518-2.025-7.79-4.985-11.217-7.322-3.272-2.025-7.01-3.584-11.996-3.428zm-6.543 9.97c-.935 1.091-1.87 2.183-2.805 3.118 3.74 2.493 8.724 7.01 11.217 13.865 1.714 4.986 8.88 11.217 19.475 13.866-5.297-6.388-5.921-10.128-7.635-14.178-1.714-4.207-3.737-7.945-8.1-11.84-3.427-2.96-9.036-4.674-12.152-4.83zm-7.322 7.167c-.78.623-1.558 1.248-2.492 1.871 3.427 3.116 5.14 6.543 7.476 9.191 3.272 3.895 7.323 5.92 14.334 8.413-4.362-4.518-5.453-9.504-9.348-13.866-2.648-3.116-7.166-4.207-9.97-5.61z" fill="#67b437" fill-rule="nonzero" stroke-width=".156"/><path id="path9-3" d="M1556.94 321.312c-32.158-9.894-71.738-17.315-111.317-17.315-138.529 0-222.635 86.58-222.635 210.266 0 121.212 74.212 195.424 200.371 195.424 47.001 0 96.475-9.895 136.055-24.738V494.473h-81.633v133.58c-14.842 4.949-29.685 7.422-47 7.422-76.686 0-118.74-47-118.74-126.16 0-84.106 51.949-133.58 128.634-133.58 37.106 0 71.738 7.42 103.896 19.79zm242.425 86.58c-51.948-4.946-79.16 24.738-94.001 61.844 2.473-19.79 2.473-42.054 2.473-56.896h-74.212v289.426h81.633V583.527c0-76.685 24.738-108.844 79.16-96.475zM2086.317 539c0-74.212-37.106-131.107-123.687-131.107-89.054 0-138.528 64.316-138.528 153.37 0 101.423 51.948 148.424 145.95 148.424 37.106 0 74.211-7.421 106.37-19.79L2069 628.054c-27.212 12.369-56.896 19.79-86.58 19.79-49.475 0-76.686-24.737-76.686-74.212h178.108c2.474-12.369 2.474-24.737 2.474-34.632zm-178.108-19.79c2.473-32.158 22.263-54.422 51.948-54.422 29.684 0 47 19.79 47 54.422zM2388.11 539c0-74.212-39.579-131.107-123.686-131.107-89.053 0-138.528 64.316-138.528 153.37 0 101.423 51.948 148.424 145.95 148.424 37.105 0 71.737-7.421 103.896-19.79l-7.421-61.843c-24.737 12.369-54.422 19.79-84.107 19.79-51.948 0-76.685-24.737-76.685-74.212h178.108c0-12.369 2.474-24.737 2.474-34.632zm-178.107-19.79c2.473-32.158 22.263-54.422 51.948-54.422 29.684 0 47 19.79 44.527 54.422zm492.27 183.056V499.42c0-49.475-19.79-91.528-86.58-91.528-47 0-79.16 22.263-96.475 54.422 2.474-14.842 2.474-37.106 2.474-49.475h-74.212v289.426h79.159V563.737c0-49.474 27.21-89.054 64.317-89.054 24.737 0 32.158 17.316 32.158 44.527v183.056zm465.06-272.11c0-79.159-51.948-123.686-150.897-123.686-39.58 0-76.686 2.474-108.844 2.474v393.322h81.633V568.685h24.737c96.475 0 153.37-61.843 153.37-138.529zm-84.107 4.948c0 42.053-29.684 64.317-74.211 66.79-4.948 0-12.369-2.473-19.79-2.473V373.26h24.737c49.474 0 69.264 24.737 69.264 61.843zm356.216 267.162c-2.474-22.264-2.474-49.475-2.474-71.738V509.316c0-64.317-27.21-103.897-123.686-103.897-37.106 0-74.211 7.421-103.896 17.316l7.421 69.264c24.737-14.842 59.37-22.263 86.58-22.263 39.58 0 54.422 12.368 54.422 42.053v12.369c-96.475 0-165.74 37.105-165.74 106.37 0 47 29.686 79.159 81.634 79.159 42.053 0 79.159-22.264 91.527-54.422v2.474c0 12.368-2.473 29.684-2.473 44.527zm-81.633-118.739c0 32.159-22.263 64.317-56.896 64.317-22.263 0-34.631-12.369-34.631-29.685 0-22.263 17.316-42.053 91.527-42.053zm324.058-175.634c-54.422-4.947-81.633 24.737-96.475 61.843 4.947-19.79 4.947-42.054 4.947-56.896h-76.685v289.426h81.632V583.527c0-76.685 27.211-108.844 81.633-96.475zm210.266 230.056c-9.895 2.474-19.79 4.947-29.685 4.947-24.737 0-32.158-9.894-32.158-47V474.683h66.79V412.84h-69.264V303.997l-79.159 22.263v86.58h-47v61.843h47V618.16c0 66.79 19.79 91.528 86.58 91.528 19.79 0 44.527-2.474 64.317-7.421zm319.11-225.109h-84.106l-32.159 89.054c-9.895 27.211-22.263 66.79-27.21 94.002-7.422-27.211-14.843-56.896-24.738-81.633l-34.632-101.423h-89.054l106.37 289.426-7.421 22.263c-17.316 42.054-32.158 54.422-56.896 54.422-12.368 0-24.737 0-37.105-4.948l-7.422 69.265c12.369 2.474 27.211 2.474 37.106 2.474 74.212 0 106.37-32.159 141.002-121.213z" clip-rule="evenodd" fill="#67b437" fill-rule="evenodd" stroke-width="2.474" image-rendering="optimizeQuality" shape-rendering="geometricPrecision" text-rendering="geometricPrecision"/></g></g></g><g id="layer3" display="inline"><g id="party-dup" transform="matrix(.15847 0 0 .15847 -.007 -.002)"><path class="st0" d="M23.6 6.9c.5 1.7-.2 3.5-1.3 4.7-2.2 2.3-5.8 1.6-7.5 4.6-.9 2.7-3.5 5.5-6.5 5.6-1.7.4-3.8 0-5.3 1-1 1.5-.4 3.6-.1 5.2-1.6-.4-2.4-2.1-2.8-3.5-.1-1.4-.2-3.2 1.1-3.9 2.8 0 5.3-1 7.8-1.8 2.9-1.2 2.9-5 5.8-6.4 2.3-.7 5-.9 6.6-3 .3-.5.3-1.4.2-1.9-.2-.5-.7-1-1.2-1.2-.5-.1-1.3-.3-1.6.2-.1 0-.2.1-.2-.1.4-1.1 1.5-1.5 2.5-1.5.9.3 2.2.8 2.5 2" id="path3832" fill="#18283d"/><path class="st0" d="M50.8 17c.2-.1.4-.3.7-.3.1 1-1.1 1.4-1.8 1.8-3.6 1-6.8-.5-9.5-2.5-3.4-1.8-8-2.8-11.3-.1-.3-.2-.1-.7 0-1 2.1-2.6 5.2-4 8.6-3.4 3.7.9 6.5 4 10 5.4 1 .4 2.2.2 3.3.1" id="path3834" fill="#18283d"/><path class="st0" d="M55.6 18.9c2.3 3.9 6.9 4.5 10.1 7.4 1.2 1.5 1.9 3.2 1.9 5.2 0 .1-.1.1-.2.1-2.3-4.9-8.3-3.9-11-8.2-1.2-1.8-1.9-3.9-2-6.1l.1-.2c.7.4.7 1.2 1.1 1.8" id="path3836" fill="#18283d"/><path class="st0" d="M22.6 19.2c-.1.4-.5.5-.7.8-1.1.9-2.3 1.6-3.2 2.7-.6.1-1.1-.1-1.5-.5-.5-.4-.4-1.2-.5-1.8.9-.3 1.9-.6 2.8-.7.9-.4 2-.2 2.7-.7.1.1.4-.1.4.2" id="path3838" fill="#18283d"/><path class="st0" d="M44.5 27.2c2.4 1.3 5.7 2.2 8.2.6.3.6-.7.9-.9 1.4-2 1.4-4.7 1.8-7.1 1-3.9-1.2-6.9-4.7-11.1-5.5-.7 0-1.3.6-1.9.2 1.2-1.5 3.3-2.1 5.3-1.6 2.7.9 5 2.7 7.5 3.9" id="path3840" fill="#18283d"/><path class="st0" d="M9.1 26.1v.5c-1.3 1.1-2.6 2.4-4.3 2.1.2-.3.6-.5 1-.7.8-.8 1-1.8 1-2.8.8.2 1.5.6 2.3.9" id="path3842" fill="#18283d"/><path class="st0" d="M30 26.2c.1 4.5-5.3 4.6-7 7.9-.2 0-.3-.1-.4-.1-.4-1.2 0-2.2.5-3.3 1.7-2.6 5.4-2.3 6.4-5.4.5 0 .4.6.5.9" id="path3844" fill="#18283d"/><path class="st0" d="M3.6 29.6c-.1 3.1.5 5.9 2.8 7.9 3.6-2.5 7.7-3.9 12.2-4.1.3.1.8.2.5.7-1.5 1.7-1.7 4.1-2.6 6.1-1.2 0-1.9-1-2.9-1.2-2-1-4.7-.5-6.3.7C6.1 41 5.8 42.9 6 44.5c.5 1.1 1.4 2 2.4 2.4l-.4.3c-1.6-.2-3-.9-3.9-2.3-.8-1.8-.9-4.3.2-6-2.4-2.3-2.4-6.4-1.2-9.2.1-.2.4-.5.5-.1" id="path3846" fill="#18283d"/><path class="st0" d="M18.2 49.5c-.6 4-1 8.4-4.8 10.7-.3.2-.6 0-.8-.1.4-.6 1.1-.9 1.4-1.7 1.4-3.9-.4-8.9 2.2-12.4-1.7 0-3.3.6-4.8 1.5-.7.6-1.2 1.5-1.3 2.4v.1c-.5-.5-.3-1.3-.4-2 .4-2.4 2.5-4.3 4.8-4.9 1.9-.6 4.4-.2 6-1.9 1-1.2 1.7-2.6 2-4.1 1.2 4.9-3.4 8-4.3 12.4" id="path3848" fill="#18283d"/><path class="st1" d="M31.8 2.1c5.7-1.1 11.6.1 15.6 4 3.5 3.3 6 9.7 11.8 8.7.3.1 1 .1 1.4 0 .1.6-.6.6-.9.9-.8.3-1.6.5-2.5.7-6.3.1-9.7-7.1-14.9-9.6-3.4-2-7.8-2.3-11.7-2-1.5.3-2.8.7-4 1.6-.1 0-.2 0-.3-.1.3-.9 1-1.9 1.9-2.4-2-1.6-5.2-1.9-7.6-.8-.5.2-.9.6-1.4.8.1-1.2 1.2-1.7 2-2.5C22.8.3 24.8-.2 26.8.1c1.8.3 3.5.9 5 2" id="path3850" fill="#c8292b"/><path class="st1" d="M39.1 18.7c3.2 1.4 6 3.5 9.5 4.1 1.3.2 2.3-.1 3.4-.7.4.3-.1.7-.2 1-1.6 1.6-4.5 2.4-6.7 1.5-4.7-1.5-8.7-5.5-14-4.5-.1.2-.3.2-.4.3-.6-1.2.9-1.3 1.4-2 2.2-1.1 4.9-.9 7 .3" id="path3852" fill="#c8292b"/><path class="st1" d="M33.5 30.2c.6 2.2.8 4.9.1 7.2-2.1 5.5-5.9 10.6-6.1 16.9l.2 1.8c.1.2.3.4.2.6-.1.2-.4.2-.5.1-1.9-2.9-1.5-6.6-1.2-10.1.5-3.2 2.6-5.8 4.1-8.6 1.4-2.8 2.6-6 1.9-9.2 0-.3.5-.2.7-.1" id="path3854" fill="#c8292b"/><path class="st1" d="M54.3 35.3c16 0 22.8 6.6 20.4 19.7-1.4 7.7-5.1 13.7-10.5 17.4-5.2 3.5-10.8 4.4-18.2 4.4H30.5l8.4-41.5m4.4 32.6h4.9c8.2 0 13.9-4.6 15.2-11.8 1.5-8.1-2.1-12.4-10.5-12.4h-4.8z" id="path3856" fill="#c8292b"/><path class="st1" d="M93.1 35.3l-4.9 24.4c0 .1 0 .2-.1.4-1 5.2 1.2 7.9 6.4 7.9 5.6 0 8.3-2.9 9.6-9.4l5.2-23.2h11.1L115 59.7c-2.3 11.7-10 17.7-22.6 17.7-12.5 0-17.9-5.8-15.8-17 0-.2.1-.3.1-.5l5-24.6" id="path3858" fill="#c8292b"/><path class="st1" d="M142.8 35.3c11.6 0 16.5 4.4 14.7 13.1-1.6 8.1-9.1 13.5-19.1 13.5h-7.8l-3.3 14.9H115l9.2-41.5m7.8 19.2h4.6c5.1 0 8.4-2.2 9.1-6 .8-4-1.3-6-6.4-6h-4.8z" id="path3860" fill="#c8292b"/></g></g><g id="layer2" display="inline"><g id="party-conservatives" fill-opacity="1" fill-rule="nonzero" stroke="none" stroke-width=".614"><path id="path30" d="M22.73 10.278a4.312 4.312 0 01-.805.276c-.229.05-.49.093-.778.124a7.333 7.333 0 01-.86.046c-1.23 0-2.15-.344-2.758-1.037-.603-.695-.907-1.578-.907-2.652 0-1.08.304-1.966.907-2.654.604-.692 1.554-1.037 2.85-1.037.763 0 1.525.092 2.282.268V4.76a14.519 14.519 0 00-.893-.275 5.296 5.296 0 00-.661-.129 4.287 4.287 0 00-.62-.044c-.81 0-1.395.26-1.76.777-.367.522-.548 1.163-.548 1.927 0 .805.208 1.454.621 1.95.413.496 1.028.744 1.849.744.683 0 1.375-.168 2.08-.51z" fill="#032046"/><path id="path34" d="M25.793 10.677c-.564 0-1.05-.11-1.453-.332a2.145 2.145 0 01-.924-.975 3.14 3.14 0 01-.32-1.426c0-.52.104-.994.315-1.422.208-.429.515-.753.922-.977.405-.223.893-.336 1.46-.336.568 0 1.058.113 1.46.336.406.224.714.548.924.977.21.428.317.902.317 1.422 0 .523-.109 1-.32 1.426-.21.43-.518.757-.925.975-.405.221-.89.332-1.456.332m0-.877c.398 0 .7-.176.904-.528.198-.353.3-.792.3-1.328 0-.532-.102-.974-.3-1.325-.205-.355-.506-.532-.904-.532-.397 0-.696.177-.898.532-.202.351-.3.793-.3 1.325 0 .536.098.975.3 1.328.202.352.5.528.898.528" fill="#032046"/><path id="path38" d="M29.13 10.556V5.33h1.408v.982c.253-.404.536-.686.843-.854.307-.165.62-.249.937-.249.414 0 .768.133 1.068.397.296.267.444.686.444 1.256v3.694h-1.408V7.208c0-.286-.026-.478-.081-.58a.567.567 0 00-.211-.234.636.636 0 00-.305-.075c-.195 0-.395.064-.605.19-.21.128-.437.381-.682.756v3.291z" fill="#032046"/><path id="path42" d="M34.581 10.388v-1.04c.7.3 1.293.452 1.79.452.26 0 .472-.057.627-.168a.502.502 0 00.239-.426.482.482 0 00-.177-.375 2.025 2.025 0 00-.54-.292l-.476-.188c-.49-.196-.855-.415-1.09-.655-.235-.234-.353-.54-.353-.919 0-.453.178-.829.532-1.123.356-.297.897-.445 1.629-.445.425 0 .93.064 1.52.19v.988c-.568-.198-1.037-.3-1.412-.3-.294 0-.515.052-.66.151-.148.1-.222.23-.222.387 0 .125.047.234.143.33.092.096.262.19.508.28l.41.158c.678.258 1.122.507 1.33.751.21.241.314.534.314.876 0 .44-.19.827-.571 1.162-.38.33-.93.495-1.654.495a6.52 6.52 0 01-1.887-.289" fill="#032046"/><path id="path46" d="M43.901 10.38a6.625 6.625 0 01-1.892.298c-.563 0-1.059-.11-1.48-.318a2.164 2.164 0 01-.984-.99 3.202 3.202 0 01-.342-1.466c0-.49.095-.942.292-1.355.193-.41.474-.738.846-.98.37-.239.826-.36 1.37-.36.666 0 1.196.214 1.594.637.398.428.596 1.22.596 2.377H40.69c.031.352.111.63.238.834.13.201.3.362.519.484.214.117.507.18.87.18.47 0 .999-.115 1.585-.332zm-3.23-2.954h1.845c0-.481-.08-.822-.237-1.03a.746.746 0 00-.61-.31.817.817 0 00-.673.343c-.175.223-.283.556-.325.997" fill="#032046"/><path id="path50" d="M44.642 10.556V5.33h1.41v.976c.166-.333.396-.6.686-.797a1.684 1.684 0 011.238-.278v1.265a1.651 1.651 0 00-.56-.11 1.4 1.4 0 00-.757.213c-.23.14-.43.353-.608.636v3.321z" fill="#032046"/><path id="path54" d="M50.358 10.556L48.362 5.33h1.488l1.46 3.77 1.453-3.77h1.02l-2.014 5.226z" fill="#032046"/><path id="path58" d="M56.676 9.99c-.203.199-.378.343-.527.428-.152.087-.307.15-.468.196a2.11 2.11 0 01-.515.064c-.466 0-.838-.148-1.12-.437a1.485 1.485 0 01-.423-1.07c0-.514.212-.945.633-1.289.42-.343 1.103-.518 2.044-.518h.378v-.477c0-.32-.091-.53-.267-.644a1.286 1.286 0 00-.677-.165c-.54 0-1.09.154-1.649.464V5.57a5.358 5.358 0 011.9-.36c.387 0 .733.054 1.036.157a1.6 1.6 0 01.731.49c.18.22.272.55.272.985v2.315c0 .283.047.453.133.517.09.066.18.096.269.096.053 0 .117-.005.197-.017l.021.79a2.85 2.85 0 01-.794.136c-.264 0-.488-.046-.675-.133-.192-.09-.335-.274-.437-.556zm.002-.753V8.173h-.334c-.464 0-.806.08-1.032.245-.226.166-.341.368-.341.613 0 .202.069.368.205.494.14.13.3.195.481.195.167 0 .337-.041.507-.122.172-.082.343-.202.514-.36" fill="#032046"/><path id="path62" d="M61.927 10.528c-.335.1-.6.15-.793.15-.46 0-.818-.064-1.072-.197a1.33 1.33 0 01-.567-.53c-.129-.226-.194-.552-.194-.989V6.207h-.587V5.33h.587v-.88l1.409-.158V5.33h1.118v.877H60.71v2.57c0 .379.067.633.2.764.131.133.326.2.585.2.121 0 .264-.02.432-.062z" fill="#032046"/><path d="M62.533 3.275h1.405v1.176h-1.405zm0 2.055h1.405v5.226h-1.405z" id="path64" fill="#032046"/><path id="path68" d="M66.429 10.556L64.432 5.33h1.485L67.38 9.1l1.45-3.77h1.02l-2.013 5.226z" fill="#032046"/><path id="path72" d="M74.543 10.38a6.637 6.637 0 01-1.892.298c-.566 0-1.06-.11-1.482-.318a2.181 2.181 0 01-.983-.99 3.21 3.21 0 01-.343-1.466c0-.49.1-.942.293-1.355.194-.41.476-.738.846-.98.372-.239.827-.36 1.369-.36.667 0 1.198.214 1.595.637.398.428.597 1.22.597 2.377h-3.214c.034.352.11.63.24.834.127.201.3.362.516.484.218.117.51.18.873.18.47 0 1-.115 1.585-.332zM71.31 7.425h1.845c0-.481-.078-.822-.236-1.03a.74.74 0 00-.611-.31.815.815 0 00-.671.343c-.175.223-.284.556-.327.997" fill="#032046"/><path id="path76" d="M75.265 10.388v-1.04c.697.3 1.294.452 1.788.452.263 0 .472-.057.63-.168a.504.504 0 00.234-.426.473.473 0 00-.175-.375 2.076 2.076 0 00-.538-.292l-.478-.188c-.489-.196-.854-.415-1.09-.655-.233-.234-.351-.54-.351-.919 0-.453.174-.829.532-1.123.354-.297.895-.445 1.627-.445.424 0 .935.064 1.52.19v.988c-.567-.198-1.04-.3-1.412-.3-.292 0-.516.052-.66.151-.148.1-.222.23-.222.387 0 .125.047.234.142.33.094.096.262.19.509.28l.41.158c.68.258 1.123.507 1.33.751.21.241.314.534.314.876 0 .44-.19.827-.57 1.162-.38.33-.932.495-1.655.495-.62 0-1.244-.095-1.885-.289" fill="#032046"/><path id="path80" d="M22.73 10.278a4.312 4.312 0 01-.805.276c-.229.05-.49.093-.778.124a7.333 7.333 0 01-.86.046c-1.23 0-2.15-.344-2.758-1.037-.603-.695-.907-1.578-.907-2.652 0-1.08.304-1.966.907-2.654.604-.692 1.554-1.037 2.85-1.037.763 0 1.525.092 2.282.268V4.76a14.519 14.519 0 00-.893-.275 5.296 5.296 0 00-.661-.129 4.287 4.287 0 00-.62-.044c-.81 0-1.395.26-1.76.777-.367.522-.548 1.163-.548 1.927 0 .805.208 1.454.621 1.95.413.496 1.028.744 1.849.744.683 0 1.375-.168 2.08-.51z" fill="#032046"/><path id="path84" d="M25.793 10.677c-.564 0-1.05-.11-1.453-.332a2.145 2.145 0 01-.924-.975 3.14 3.14 0 01-.32-1.426c0-.52.104-.994.315-1.422.208-.429.515-.753.922-.977.405-.223.893-.336 1.46-.336.568 0 1.058.113 1.46.336.406.224.714.548.924.977.21.428.317.902.317 1.422 0 .523-.109 1-.32 1.426-.21.43-.518.757-.925.975-.405.221-.89.332-1.456.332m0-.877c.398 0 .7-.176.904-.528.198-.353.3-.792.3-1.328 0-.532-.102-.974-.3-1.325-.205-.355-.506-.532-.904-.532-.397 0-.696.177-.898.532-.202.351-.3.793-.3 1.325 0 .536.098.975.3 1.328.202.352.5.528.898.528" fill="#032046"/><path id="path88" d="M29.13 10.556V5.33h1.408v.982c.253-.404.536-.686.843-.854.307-.165.62-.249.937-.249.414 0 .768.133 1.068.397.296.267.444.686.444 1.256v3.694h-1.408V7.208c0-.286-.026-.478-.081-.58a.567.567 0 00-.211-.234.636.636 0 00-.305-.075c-.195 0-.395.064-.605.19-.21.128-.437.381-.682.756v3.291z" fill="#032046"/><path id="path92" d="M34.581 10.388v-1.04c.7.3 1.293.452 1.79.452.26 0 .472-.057.627-.168a.502.502 0 00.239-.426.482.482 0 00-.177-.375 2.025 2.025 0 00-.54-.292l-.476-.188c-.49-.196-.855-.415-1.09-.655-.235-.234-.353-.54-.353-.919 0-.453.178-.829.532-1.123.356-.297.897-.445 1.629-.445.425 0 .93.064 1.52.19v.988c-.568-.198-1.037-.3-1.412-.3-.294 0-.515.052-.66.151-.148.1-.222.23-.222.387 0 .125.047.234.143.33.092.096.262.19.508.28l.41.158c.678.258 1.122.507 1.33.751.21.241.314.534.314.876 0 .44-.19.827-.571 1.162-.38.33-.93.495-1.654.495a6.52 6.52 0 01-1.887-.289" fill="#032046"/><path id="path96" d="M43.901 10.38a6.625 6.625 0 01-1.892.298c-.563 0-1.059-.11-1.48-.318a2.164 2.164 0 01-.984-.99 3.202 3.202 0 01-.342-1.466c0-.49.095-.942.292-1.355.193-.41.474-.738.846-.98.37-.239.826-.36 1.37-.36.666 0 1.196.214 1.594.637.398.428.596 1.22.596 2.377H40.69c.031.352.111.63.238.834.13.201.3.362.519.484.214.117.507.18.87.18.47 0 .999-.115 1.585-.332zm-3.23-2.954h1.845c0-.481-.08-.822-.237-1.03a.746.746 0 00-.61-.31.817.817 0 00-.673.343c-.175.223-.283.556-.325.997" fill="#032046"/><path id="path100" d="M44.642 10.556V5.33h1.41v.976c.166-.333.396-.6.686-.797a1.684 1.684 0 011.238-.278v1.265a1.651 1.651 0 00-.56-.11 1.4 1.4 0 00-.757.213c-.23.14-.43.353-.608.636v3.321z" fill="#032046"/><path id="path104" d="M50.358 10.556L48.362 5.33h1.488l1.46 3.77 1.453-3.77h1.02l-2.014 5.226z" fill="#032046"/><path id="path108" d="M56.676 9.99c-.203.199-.378.343-.527.428-.152.087-.307.15-.468.196a2.11 2.11 0 01-.515.064c-.466 0-.838-.148-1.12-.437a1.485 1.485 0 01-.423-1.07c0-.514.212-.945.633-1.289.42-.343 1.103-.518 2.044-.518h.378v-.477c0-.32-.091-.53-.267-.644a1.286 1.286 0 00-.677-.165c-.54 0-1.09.154-1.649.464V5.57a5.358 5.358 0 011.9-.36c.387 0 .733.054 1.036.157a1.6 1.6 0 01.731.49c.18.22.272.55.272.985v2.315c0 .283.047.453.133.517.09.066.18.096.269.096.053 0 .117-.005.197-.017l.021.79a2.85 2.85 0 01-.794.136c-.264 0-.488-.046-.675-.133-.192-.09-.335-.274-.437-.556zm.002-.753V8.173h-.334c-.464 0-.806.08-1.032.245-.226.166-.341.368-.341.613 0 .202.069.368.205.494.14.13.3.195.481.195.167 0 .337-.041.507-.122.172-.082.343-.202.514-.36" fill="#032046"/><path id="path112" d="M61.927 10.528c-.335.1-.6.15-.793.15-.46 0-.818-.064-1.072-.197a1.33 1.33 0 01-.567-.53c-.129-.226-.194-.552-.194-.989V6.207h-.587V5.33h.587v-.88l1.409-.158V5.33h1.118v.877H60.71v2.57c0 .379.067.633.2.764.131.133.326.2.585.2.121 0 .264-.02.432-.062z" fill="#032046"/><path d="M62.533 3.275h1.405v1.176h-1.405zm0 2.055h1.405v5.226h-1.405z" id="path114" fill="#032046"/><path id="path118" d="M66.429 10.556L64.432 5.33h1.485L67.38 9.1l1.45-3.77h1.02l-2.013 5.226z" fill="#032046"/><path id="path122" d="M74.543 10.38a6.637 6.637 0 01-1.892.298c-.566 0-1.06-.11-1.482-.318a2.181 2.181 0 01-.983-.99 3.21 3.21 0 01-.343-1.466c0-.49.1-.942.293-1.355.194-.41.476-.738.846-.98.372-.239.827-.36 1.369-.36.667 0 1.198.214 1.595.637.398.428.597 1.22.597 2.377h-3.214c.034.352.11.63.24.834.127.201.3.362.516.484.218.117.51.18.873.18.47 0 1-.115 1.585-.332zM71.31 7.425h1.845c0-.481-.078-.822-.236-1.03a.74.74 0 00-.611-.31.815.815 0 00-.671.343c-.175.223-.284.556-.327.997" fill="#032046"/><path id="path126" d="M75.265 10.388v-1.04c.697.3 1.294.452 1.788.452.263 0 .472-.057.63-.168a.504.504 0 00.234-.426.473.473 0 00-.175-.375 2.076 2.076 0 00-.538-.292l-.478-.188c-.489-.196-.854-.415-1.09-.655-.233-.234-.351-.54-.351-.919 0-.453.174-.829.532-1.123.354-.297.895-.445 1.627-.445.424 0 .935.064 1.52.19v.988c-.567-.198-1.04-.3-1.412-.3-.292 0-.516.052-.66.151-.148.1-.222.23-.222.387 0 .125.047.234.142.33.094.096.262.19.509.28l.41.158c.68.258 1.123.507 1.33.751.21.241.314.534.314.876 0 .44-.19.827-.57 1.162-.38.33-.932.495-1.655.495-.62 0-1.244-.095-1.885-.289" fill="#032046"/><path id="path130" d="M.452 8.771c.167-.215.416-.52.721-.855h1.108zM.21 4.81l.141.083h1.163c.02-.014.04-.029.062-.043L.479 4.204a8.5 8.5 0 00-.268.605m9.867 4.28a3.782 3.782 0 00-.272.604l1.375.809c.177-.091.382-.204.615-.34l.052-.03zm3.086-1.847c-.275-.304-1.02-.93-1.02-.93s-.83.583-1.466.89c0 0 .55-.517.743-.693a87.923 87.923 0 001.066-1.017l-.016-.017-7.182.023.923-4.306a12.156 12.156 0 00-1.901.72l-.764 3.586H1.212C.49 6.226.02 6.873.02 6.873l.401.438h.926c.276-.244.676-.569 1.225-.948l-.137.37a8.82 8.82 0 00-.67.578H3.15l-.525 2.37.638.635.046.052s.421-.074.95-.207l.631-2.85 8.26-.023c.012-.025.018-.042.015-.046m-3.142 1.815L8.085 7.916H6.787L9.38 9.442c.287-.162.513-.303.642-.385m.84-5.758l-.34-.447-4.367 2.04h1.297zM.395 5.763s.118-.105.316-.265H.132c.122.118.263.265.263.265" fill="#e63329"/><path id="path134" d="M1.577 4.849c.288-.2.61-.405.945-.589L.976 3.351a7.204 7.204 0 00-.497.852z" fill="#fff"/><path id="path138" d="M14.007 7.916l-.453-.334s-.145.141-.36.334z" fill="#032046"/><path id="path142" d="M11.95 4.892H9.4l1.972-.922-.51-.671-3.41 1.593H6.155l4.367-2.04-.26.122-.186-.217L6.06 4.635 6.812 1.2l-.074-.143s-.201.043-.526.135L5.29 5.498l7.182-.022z" fill="#fff"/><path id="path146" d="M.352 4.892L.21 4.809a10.77 10.77 0 00-.21.567c.033.027.081.072.132.122H.71c.198-.16.476-.376.804-.606z" fill="#fff"/><path id="path150" d="M4.9 9.98l.38-1.806 3.048 1.803c.11-.048.222-.1.336-.156.261-.128.505-.259.717-.379L6.787 7.916h1.298l1.938 1.14.119-.077s-.027.043-.064.11l1.77 1.042a9.89 9.89 0 00.322-.198L8.734 7.916h3.989c.202-.277.376-.53.426-.629l-8.26.024-.63 2.85c.203-.052.423-.112.64-.181" fill="#fff"/><path id="path154" d="M9.805 9.693c-.093.28-.15.561-.15.561l.825.582s.253-.1.701-.334z" fill="#fff"/><path id="path158" d="M3.158 4.635l-.564-.332c-.027.019-.568.4-1.228 1.043-.053.051-.104.101-.154.152h2.335l.764-3.585c-.207.096-.402.197-.593.298z" fill="#fff"/><path id="path162" d="M1.347 7.311H.421l.437.478s.15-.177.49-.478" fill="#fff"/><path id="path166" d="M1.987 9.905l.501-.35.057.047.079.079.524-2.37H1.765a12.29 12.29 0 00-.591.605H2.28l-1.83.856c-.15.193-.235.313-.235.313l.068.068 2.094-.979z" fill="#fff"/><path id="path170" d="M14.007 7.916h-.812c-.122.11-.268.238-.422.363-.287.235-.69.475-.69.475.165-.2.419-.535.64-.838h-3.99l3.438 2.018c.393-.251.722-.496.989-.7l-.492.755c.287.273.592.515.592.515l1.314-2.17z" fill="#013670"/><path id="path174" d="M6.812 1.2l-.753 3.435 4.018-1.877-.155-.18-1.26.645-.548-1.016-1.528.67c.186-.185.281-.264.738-.538-.193-.49-.404-.924-.512-1.138" fill="#013670"/><path id="path178" d="M2.522 4.26c.018.006.06.033.075.041l-.003.002.564.332.56-2.425A9.504 9.504 0 001.84 3.503l-.032-.016c.132-.251.518-.661.956-1.048.407-.36.97-.673.97-.673l.094-.563c-.736.27-1.552.663-2.19 1.33a6.34 6.34 0 00-.66.819z" fill="#013670"/><path id="path182" d="M11.95 4.892l-.479-.536.057-.181-.156-.205-1.973.922z" fill="#013670"/><path id="path186" d="M1.987 9.905l.391-1.73-2.094.978 1.133 1.15z" fill="#013670"/><path id="path190" d="M4.928 9.971c.692-.222 1.316-.548 1.316-.548s.136.153.265.326l.554.71s.577-.175 1.265-.481L5.28 8.174 4.9 9.98c.009-.003.019-.005.028-.009" fill="#013670"/><path id="path194" d="M10.431 12.092c-.016-.002.034-.14.022-.14-1.26-.046-3.657-.043-3.892-.219-.17-.128.09-.777.259-1.134 0 0-.262-.355-.68-.865-.043.043-.686.763-.751 1.883-.35.098-.396.169-1.087.225-.416.032-2.289.09-2.289.09l-.103.093c-.112.008-.735.03-.735.03s.066.21.2.358c.167.013 3.984.096 4.49-.233.194.165.548.257 1.243.228.13-.005 2.378.02 2.647.019.95-.006 2.878-.126 2.878-.126l.174-.19c-.209 0-1.226-.013-1.858-.013-.173 0-.478-.002-.518-.006" fill="#013670"/></g></g><style type="text/css" id="style3830">.st0{fill:#18283d}.st1{fill:#c8292b}</style><style type="text/css" id="style1124">.st0{fill:#dc241f}</style></svg>